<svg xmlns="http://www.w3.org/2000/svg" xmlns:xlink="http://www.w3.org/1999/xlink" width="200" zoomAndPan="magnify" viewBox="0 0 150 44.999999" height="60" preserveAspectRatio="xMidYMid meet" version="1.0"><defs><g/><clipPath id="id1"><path d="M 103.15625 13.277344 L 115.582031 13.277344 L 115.582031 15.03125 L 103.15625 15.03125 Z M 103.15625 13.277344 " clip-rule="nonzero"/></clipPath><clipPath id="id2"><path d="M 99.472656 3.183594 L 119.722656 3.183594 L 119.722656 14 L 99.472656 14 Z M 99.472656 3.183594 " clip-rule="nonzero"/></clipPath></defs><g fill="rgb(0%, 0%, 0%)" fill-opacity="1"><g transform="translate(8.346003, 28.718276)"><g><path d="M 10.058594 -3.542969 C 11.261719 -4.441406 11.984375 -5.824219 11.984375 -7.476562 C 11.984375 -10.457031 9.71875 -12.605469 6.589844 -12.605469 L 4.339844 -12.605469 C 4.007812 -12.605469 3.121094 -12.605469 2.316406 -12.605469 L 1.609375 -12.605469 C 1.304688 -12.605469 1.078125 -12.382812 1.078125 -12.074219 L 1.078125 -0.523438 C 1.078125 -0.214844 1.304688 0 1.609375 0 L 4.324219 0 C 4.648438 0 4.886719 -0.214844 4.886719 -0.523438 L 4.886719 -2.457031 L 6.589844 -2.457031 L 7.59375 -0.449219 C 7.71875 -0.191406 7.976562 0 8.207031 0 L 11.300781 0 C 11.691406 0 11.832031 -0.257812 11.652344 -0.605469 Z M 4.886719 -9.285156 L 6.332031 -9.285156 C 7.402344 -9.285156 8.183594 -8.53125 8.183594 -7.492188 C 8.183594 -6.355469 7.402344 -5.609375 6.332031 -5.609375 L 4.886719 -5.609375 Z M 4.886719 -9.285156 "/></g></g></g><g fill="rgb(0%, 0%, 0%)" fill-opacity="1"><g transform="translate(21.115034, 28.718276)"><g><path d="M 13.253906 -0.640625 L 8.761719 -8.390625 L 12.125 -11.949219 C 12.40625 -12.238281 12.289062 -12.605469 11.90625 -12.605469 L 8.421875 -12.605469 C 8.066406 -12.605469 7.898438 -12.539062 7.644531 -12.257812 L 4.886719 -9.292969 L 4.886719 -12.222656 C 4.886719 -12.472656 4.738281 -12.605469 4.507812 -12.605469 L 1.460938 -12.605469 C 1.226562 -12.605469 1.078125 -12.472656 1.078125 -12.222656 L 1.078125 -0.382812 C 1.078125 -0.140625 1.226562 0 1.460938 0 L 4.507812 0 C 4.738281 0 4.886719 -0.140625 4.886719 -0.382812 L 4.886719 -4.289062 L 6.082031 -5.550781 L 9.09375 -0.214844 C 9.21875 -0.0742188 9.394531 0 9.601562 0 L 13.027344 0 C 13.394531 0 13.460938 -0.28125 13.253906 -0.640625 Z M 13.253906 -0.640625 "/></g></g></g><g fill="rgb(0%, 0%, 0%)" fill-opacity="1"><g transform="translate(34.41507, 28.718276)"><g/></g></g><g fill="rgb(0%, 0%, 0%)" fill-opacity="1"><g transform="translate(40.372292, 28.718276)"><g><path d="M 15.410156 -0.539062 L 14.097656 -12.347656 C 14.058594 -12.6875 13.882812 -12.863281 13.566406 -12.863281 L 12.960938 -12.863281 C 12.613281 -12.863281 12.523438 -12.636719 12.355469 -12.355469 L 8.082031 -5.21875 L 3.808594 -12.355469 C 3.644531 -12.636719 3.550781 -12.863281 3.203125 -12.863281 L 2.597656 -12.863281 C 2.28125 -12.863281 2.109375 -12.6875 2.066406 -12.347656 L 0.753906 -0.539062 C 0.714844 -0.164062 0.953125 0 1.304688 0 L 4.066406 0 C 4.390625 0 4.5625 -0.148438 4.597656 -0.507812 L 4.945312 -4.015625 L 7.179688 -0.28125 C 7.394531 0.0820312 7.601562 0.230469 7.917969 0.230469 L 8.25 0.230469 C 8.5625 0.230469 8.769531 0.0820312 8.988281 -0.28125 L 11.21875 -4.015625 L 11.566406 -0.507812 C 11.601562 -0.148438 11.773438 0 12.097656 0 L 14.863281 0 C 15.210938 0 15.453125 -0.164062 15.410156 -0.539062 Z M 15.410156 -0.539062 "/></g></g></g><g fill="rgb(0%, 0%, 0%)" fill-opacity="1"><g transform="translate(56.534782, 28.718276)"><g><path d="M 0.414062 -4.25 C 0.414062 -1.742188 2.449219 0.230469 5.027344 0.230469 C 7.601562 0.230469 9.617188 -1.742188 9.617188 -4.25 C 9.617188 -6.753906 7.601562 -8.730469 5.027344 -8.730469 C 2.449219 -8.730469 0.414062 -6.753906 0.414062 -4.25 Z M 3.859375 -4.25 C 3.859375 -4.988281 4.324219 -5.492188 5.011719 -5.492188 C 5.699219 -5.492188 6.175781 -4.988281 6.175781 -4.25 C 6.175781 -3.511719 5.699219 -3.003906 5.011719 -3.003906 C 4.324219 -3.003906 3.859375 -3.511719 3.859375 -4.25 Z M 3.859375 -4.25 "/></g></g></g><g fill="rgb(0%, 0%, 0%)" fill-opacity="1"><g transform="translate(66.565814, 28.718276)"><g><path d="M 5.875 -8.730469 C 5.253906 -8.730469 4.695312 -8.5625 4.222656 -8.257812 L 4.25 -12.769531 C 4.25 -12.996094 4.117188 -13.128906 3.917969 -13.128906 L 1.203125 -13.128906 C 0.988281 -13.128906 0.839844 -12.996094 0.839844 -12.769531 L 0.839844 -4.308594 L 0.828125 -4.316406 L 0.828125 -0.375 C 0.828125 -0.15625 0.972656 -0.0078125 1.1875 -0.0078125 L 2.761719 -0.0078125 C 2.921875 -0.0078125 3.054688 -0.0976562 3.144531 -0.222656 L 3.527344 -0.871094 C 4.109375 -0.15625 4.914062 0.230469 5.875 0.230469 C 8.109375 0.230469 9.757812 -1.636719 9.757812 -4.214844 C 9.757812 -6.855469 8.109375 -8.730469 5.875 -8.730469 Z M 5.210938 -3.113281 C 4.648438 -3.113281 4.082031 -3.578125 4.082031 -4.230469 C 4.082031 -4.894531 4.648438 -5.367188 5.210938 -5.367188 C 5.765625 -5.367188 6.324219 -4.894531 6.324219 -4.230469 C 6.324219 -3.578125 5.765625 -3.113281 5.210938 -3.113281 Z M 5.210938 -3.113281 "/></g></g></g><g fill="rgb(0%, 0%, 0%)" fill-opacity="1"><g transform="translate(76.737894, 28.718276)"><g><path d="M 2.523438 -9.070312 C 3.550781 -9.070312 4.363281 -9.882812 4.363281 -10.914062 C 4.363281 -11.917969 3.550781 -12.753906 2.523438 -12.753906 C 1.503906 -12.753906 0.679688 -11.925781 0.679688 -10.914062 C 0.679688 -9.882812 1.503906 -9.070312 2.523438 -9.070312 Z M 3.890625 -8.496094 L 1.160156 -8.496094 C 0.945312 -8.496094 0.828125 -8.363281 0.828125 -8.15625 L 0.828125 -0.339844 C 0.828125 -0.125 0.945312 0 1.160156 0 L 3.890625 0 C 4.109375 0 4.230469 -0.125 4.230469 -0.339844 L 4.230469 -8.15625 C 4.230469 -8.363281 4.109375 -8.496094 3.890625 -8.496094 Z M 3.890625 -8.496094 "/></g></g></g><g fill="rgb(0%, 0%, 0%)" fill-opacity="1"><g transform="translate(81.799043, 28.718276)"><g><path d="M 3.890625 -12.605469 L 1.160156 -12.605469 C 0.945312 -12.605469 0.828125 -12.488281 0.828125 -12.273438 L 0.828125 -0.339844 C 0.828125 -0.125 0.945312 0 1.160156 0 L 3.890625 0 C 4.109375 0 4.230469 -0.125 4.230469 -0.339844 L 4.230469 -12.273438 C 4.230469 -12.488281 4.109375 -12.605469 3.890625 -12.605469 Z M 3.890625 -12.605469 "/></g></g></g><g fill="rgb(0%, 0%, 0%)" fill-opacity="1"><g transform="translate(86.860193, 28.718276)"><g><path d="M 4.988281 -8.730469 C 2.421875 -8.730469 0.414062 -6.730469 0.414062 -4.230469 C 0.414062 -1.75 2.472656 0.242188 5.019531 0.242188 C 6.132812 0.242188 7.144531 -0.125 7.941406 -0.730469 C 8.125 -0.878906 8.148438 -1.070312 8 -1.285156 L 6.953125 -2.78125 C 6.804688 -2.996094 6.628906 -3.070312 6.382812 -2.90625 C 6.125 -2.738281 5.71875 -2.582031 5.113281 -2.582031 C 4.457031 -2.582031 3.917969 -2.929688 3.792969 -3.445312 L 8.125 -3.445312 C 8.8125 -3.445312 9.277344 -3.84375 9.277344 -4.421875 C 9.277344 -6.980469 7.535156 -8.730469 4.988281 -8.730469 Z M 4.90625 -5.800781 C 5.460938 -5.800781 5.910156 -5.453125 6.007812 -4.9375 L 3.808594 -4.9375 C 3.941406 -5.425781 4.375 -5.800781 4.90625 -5.800781 Z M 4.90625 -5.800781 "/></g></g></g><g fill="rgb(0%, 0%, 0%)" fill-opacity="1"><g transform="translate(96.551049, 28.718276)"><g/></g></g><g fill="rgb(0%, 0%, 0%)" fill-opacity="1"><g transform="translate(102.50827, 28.718276)"><g><path d="M 13.253906 -0.640625 L 8.761719 -8.390625 L 12.125 -11.949219 C 12.40625 -12.238281 12.289062 -12.605469 11.90625 -12.605469 L 8.421875 -12.605469 C 8.066406 -12.605469 7.898438 -12.539062 7.644531 -12.257812 L 4.886719 -9.292969 L 4.886719 -12.222656 C 4.886719 -12.472656 4.738281 -12.605469 4.507812 -12.605469 L 1.460938 -12.605469 C 1.226562 -12.605469 1.078125 -12.472656 1.078125 -12.222656 L 1.078125 -0.382812 C 1.078125 -0.140625 1.226562 0 1.460938 0 L 4.507812 0 C 4.738281 0 4.886719 -0.140625 4.886719 -0.382812 L 4.886719 -4.289062 L 6.082031 -5.550781 L 9.09375 -0.214844 C 9.21875 -0.0742188 9.394531 0 9.601562 0 L 13.027344 0 C 13.394531 0 13.460938 -0.28125 13.253906 -0.640625 Z M 13.253906 -0.640625 "/></g></g></g><g fill="rgb(0%, 0%, 0%)" fill-opacity="1"><g transform="translate(115.808307, 28.718276)"><g><path d="M 2.523438 -9.070312 C 3.550781 -9.070312 4.363281 -9.882812 4.363281 -10.914062 C 4.363281 -11.917969 3.550781 -12.753906 2.523438 -12.753906 C 1.503906 -12.753906 0.679688 -11.925781 0.679688 -10.914062 C 0.679688 -9.882812 1.503906 -9.070312 2.523438 -9.070312 Z M 3.890625 -8.496094 L 1.160156 -8.496094 C 0.945312 -8.496094 0.828125 -8.363281 0.828125 -8.15625 L 0.828125 -0.339844 C 0.828125 -0.125 0.945312 0 1.160156 0 L 3.890625 0 C 4.109375 0 4.230469 -0.125 4.230469 -0.339844 L 4.230469 -8.15625 C 4.230469 -8.363281 4.109375 -8.496094 3.890625 -8.496094 Z M 3.890625 -8.496094 "/></g></g></g><g fill="rgb(0%, 0%, 0%)" fill-opacity="1"><g transform="translate(120.869456, 28.718276)"><g><path d="M 6.457031 -8.730469 C 5.425781 -8.730469 4.296875 -8.097656 3.765625 -7.234375 L 3.144531 -8.28125 C 3.054688 -8.40625 2.921875 -8.496094 2.761719 -8.496094 L 1.1875 -8.496094 C 0.972656 -8.496094 0.828125 -8.347656 0.828125 -8.132812 L 0.828125 -0.355469 C 0.828125 -0.125 0.953125 0 1.179688 0 L 3.882812 0 C 4.109375 0 4.242188 -0.125 4.242188 -0.355469 L 4.242188 -4.605469 C 4.242188 -5.152344 4.738281 -5.652344 5.367188 -5.652344 C 6.089844 -5.652344 6.480469 -5.210938 6.480469 -4.597656 L 6.480469 -0.355469 C 6.480469 -0.125 6.597656 0 6.828125 0 L 9.527344 0 C 9.757812 0 9.882812 -0.125 9.882812 -0.355469 L 9.882812 -4.804688 C 9.882812 -7.285156 8.480469 -8.730469 6.457031 -8.730469 Z M 6.457031 -8.730469 "/></g></g></g><g fill="rgb(0%, 0%, 0%)" fill-opacity="1"><g transform="translate(131.49787, 28.718276)"><g><path d="M 8.953125 -8.496094 L 7.378906 -8.496094 C 7.21875 -8.496094 7.085938 -8.40625 6.996094 -8.28125 L 6.621094 -7.644531 C 6.042969 -8.347656 5.246094 -8.730469 4.296875 -8.730469 C 2.066406 -8.730469 0.414062 -6.855469 0.414062 -4.214844 C 0.414062 -1.964844 2.066406 -0.0976562 4.296875 -0.0976562 C 4.953125 -0.0976562 5.542969 -0.28125 6.03125 -0.613281 L 6.023438 -0.488281 C 5.976562 0.230469 5.585938 0.714844 4.894531 0.714844 C 4.117188 0.714844 3.328125 0.488281 2.945312 0.382812 C 2.746094 0.324219 2.523438 0.324219 2.429688 0.53125 L 1.644531 2.355469 C 1.527344 2.621094 1.558594 2.8125 1.710938 2.90625 C 2.621094 3.433594 3.917969 3.667969 5.085938 3.644531 C 7.550781 3.585938 9.3125 1.949219 9.3125 -0.449219 L 9.3125 -8.132812 C 9.3125 -8.347656 9.167969 -8.496094 8.953125 -8.496094 Z M 3.851562 -4.375 C 3.851562 -4.996094 4.265625 -5.410156 4.960938 -5.410156 C 5.667969 -5.410156 6.089844 -4.996094 6.089844 -4.375 C 6.089844 -3.792969 5.667969 -3.402344 4.960938 -3.402344 C 4.265625 -3.402344 3.851562 -3.792969 3.851562 -4.375 Z M 3.851562 -4.375 "/></g></g></g><g clip-path="url(#id1)"><path fill="rgb(6.269836%, 5.879211%, 5.099487%)" d="M 115.53125 14.46875 L 115.398438 15.03125 C 111.441406 14.015625 107.304688 14.015625 103.34375 15.03125 L 103.210938 14.46875 C 107.257812 13.425781 111.488281 13.425781 115.535156 14.46875 L 115.53125 14.46875 " fill-opacity="1" fill-rule="nonzero"/></g><g clip-path="url(#id2)"><path fill="rgb(6.269836%, 5.879211%, 5.099487%)" d="M 100.230469 6.621094 C 101.34375 8.207031 102.847656 9.449219 104.578125 10.226562 C 104.339844 8.992188 104.222656 7.734375 104.226562 6.476562 C 103.953125 6.539062 103.679688 6.363281 103.617188 6.078125 C 103.554688 5.789062 103.722656 5.507812 103.996094 5.441406 C 104.269531 5.371094 104.542969 5.550781 104.605469 5.839844 C 104.664062 6.089844 104.535156 6.347656 104.304688 6.445312 C 104.976562 7.636719 105.8125 8.714844 106.789062 9.644531 C 107.941406 8.21875 108.867188 6.605469 109.535156 4.867188 C 109.089844 4.828125 108.757812 4.417969 108.796875 3.957031 C 108.835938 3.488281 109.226562 3.144531 109.671875 3.1875 C 110.113281 3.226562 110.445312 3.632812 110.40625 4.097656 C 110.375 4.507812 110.0625 4.832031 109.671875 4.867188 C 110.335938 6.605469 111.261719 8.21875 112.417969 9.644531 C 113.390625 8.714844 114.230469 7.636719 114.898438 6.445312 C 114.640625 6.335938 114.519531 6.023438 114.628906 5.753906 C 114.734375 5.480469 115.035156 5.355469 115.292969 5.46875 C 115.550781 5.582031 115.671875 5.894531 115.566406 6.164062 C 115.46875 6.402344 115.21875 6.535156 114.976562 6.476562 C 114.980469 7.734375 114.863281 8.992188 114.621094 10.226562 C 116.355469 9.449219 117.855469 8.207031 118.972656 6.621094 C 118.726562 6.480469 118.640625 6.15625 118.773438 5.898438 C 118.910156 5.644531 119.21875 5.550781 119.46875 5.691406 C 119.710938 5.835938 119.800781 6.15625 119.664062 6.414062 C 119.539062 6.652344 119.261719 6.75 119.023438 6.644531 L 116.003906 13.839844 C 111.796875 12.757812 107.402344 12.757812 103.199219 13.839844 L 100.179688 6.644531 C 99.921875 6.761719 99.625 6.632812 99.511719 6.363281 C 99.40625 6.09375 99.527344 5.78125 99.785156 5.667969 C 100.042969 5.554688 100.34375 5.679688 100.449219 5.953125 C 100.550781 6.199219 100.457031 6.488281 100.230469 6.621094 " fill-opacity="1" fill-rule="nonzero"/></g></svg>