<svg xmlns="http://www.w3.org/2000/svg" xmlns:xlink="http://www.w3.org/1999/xlink" width="200" zoomAndPan="magnify" viewBox="0 0 150 44.999999" height="60" preserveAspectRatio="xMidYMid meet" version="1.0"><defs><g/><clipPath id="id1"><path d="M 106.410156 12.203125 L 120.675781 12.203125 L 120.675781 14.175781 L 106.410156 14.175781 Z M 106.410156 12.203125 " clip-rule="nonzero"/></clipPath><clipPath id="id2"><path d="M 102.183594 0.847656 L 125.433594 0.847656 L 125.433594 13 L 102.183594 13 Z M 102.183594 0.847656 " clip-rule="nonzero"/></clipPath></defs><g fill="rgb(0%, 0%, 0%)" fill-opacity="1"><g transform="translate(0.494441, 28.874998)"><g><path d="M 11.242188 -3.960938 C 12.585938 -4.960938 13.394531 -6.511719 13.394531 -8.359375 C 13.394531 -11.6875 10.863281 -14.089844 7.367188 -14.089844 L 4.851562 -14.089844 C 4.480469 -14.089844 3.488281 -14.089844 2.589844 -14.089844 L 1.800781 -14.089844 C 1.457031 -14.089844 1.207031 -13.839844 1.207031 -13.496094 L 1.207031 -0.585938 C 1.207031 -0.242188 1.457031 0 1.800781 0 L 4.832031 0 C 5.195312 0 5.464844 -0.242188 5.464844 -0.585938 L 5.464844 -2.746094 L 7.367188 -2.746094 L 8.488281 -0.5 C 8.625 -0.214844 8.914062 0 9.175781 0 L 12.632812 0 C 13.070312 0 13.226562 -0.289062 13.023438 -0.675781 Z M 5.464844 -10.378906 L 7.078125 -10.378906 C 8.273438 -10.378906 9.144531 -9.535156 9.144531 -8.375 C 9.144531 -7.105469 8.273438 -6.269531 7.078125 -6.269531 L 5.464844 -6.269531 Z M 5.464844 -10.378906 "/></g></g></g><g fill="rgb(0%, 0%, 0%)" fill-opacity="1"><g transform="translate(14.769343, 28.874998)"><g><path d="M 14.8125 -0.714844 L 9.796875 -9.378906 L 13.550781 -13.359375 C 13.867188 -13.683594 13.738281 -14.089844 13.3125 -14.089844 L 9.414062 -14.089844 C 9.015625 -14.089844 8.832031 -14.015625 8.542969 -13.699219 L 5.464844 -10.390625 L 5.464844 -13.664062 C 5.464844 -13.941406 5.296875 -14.089844 5.035156 -14.089844 L 1.632812 -14.089844 C 1.371094 -14.089844 1.207031 -13.941406 1.207031 -13.664062 L 1.207031 -0.425781 C 1.207031 -0.15625 1.371094 0 1.632812 0 L 5.035156 0 C 5.296875 0 5.464844 -0.15625 5.464844 -0.425781 L 5.464844 -4.796875 L 6.800781 -6.207031 L 10.167969 -0.242188 C 10.304688 -0.0820312 10.5 0 10.734375 0 L 14.5625 0 C 14.972656 0 15.046875 -0.316406 14.8125 -0.714844 Z M 14.8125 -0.714844 "/></g></g></g><g fill="rgb(0%, 0%, 0%)" fill-opacity="1"><g transform="translate(29.637872, 28.874998)"><g/></g></g><g fill="rgb(0%, 0%, 0%)" fill-opacity="1"><g transform="translate(36.297635, 28.874998)"><g><path d="M 17.226562 -0.601562 L 15.761719 -13.804688 C 15.714844 -14.183594 15.519531 -14.378906 15.167969 -14.378906 L 14.488281 -14.378906 C 14.101562 -14.378906 13.996094 -14.128906 13.8125 -13.8125 L 9.035156 -5.835938 L 4.257812 -13.8125 C 4.070312 -14.128906 3.96875 -14.378906 3.582031 -14.378906 L 2.902344 -14.378906 C 2.550781 -14.378906 2.355469 -14.183594 2.308594 -13.804688 L 0.84375 -0.601562 C 0.796875 -0.183594 1.066406 0 1.457031 0 L 4.546875 0 C 4.90625 0 5.101562 -0.167969 5.140625 -0.566406 L 5.527344 -4.488281 L 8.023438 -0.316406 C 8.265625 0.09375 8.496094 0.257812 8.847656 0.257812 L 9.21875 0.257812 C 9.574219 0.257812 9.804688 0.09375 10.046875 -0.316406 L 12.542969 -4.488281 L 12.929688 -0.566406 C 12.96875 -0.167969 13.164062 0 13.523438 0 L 16.613281 0 C 17.003906 0 17.273438 -0.183594 17.226562 -0.601562 Z M 17.226562 -0.601562 "/></g></g></g><g fill="rgb(0%, 0%, 0%)" fill-opacity="1"><g transform="translate(54.366184, 28.874998)"><g><path d="M 0.464844 -4.75 C 0.464844 -1.949219 2.738281 0.257812 5.621094 0.257812 C 8.496094 0.257812 10.75 -1.949219 10.75 -4.75 C 10.75 -7.550781 8.496094 -9.757812 5.621094 -9.757812 C 2.738281 -9.757812 0.464844 -7.550781 0.464844 -4.75 Z M 4.3125 -4.75 C 4.3125 -5.574219 4.832031 -6.140625 5.601562 -6.140625 C 6.371094 -6.140625 6.902344 -5.574219 6.902344 -4.75 C 6.902344 -3.921875 6.371094 -3.359375 5.601562 -3.359375 C 4.832031 -3.359375 4.3125 -3.921875 4.3125 -4.75 Z M 4.3125 -4.75 "/></g></g></g><g fill="rgb(0%, 0%, 0%)" fill-opacity="1"><g transform="translate(65.580191, 28.874998)"><g><path d="M 6.566406 -9.757812 C 5.871094 -9.757812 5.25 -9.574219 4.722656 -9.230469 L 4.75 -14.277344 C 4.75 -14.527344 4.601562 -14.675781 4.378906 -14.675781 L 1.34375 -14.675781 C 1.105469 -14.675781 0.9375 -14.527344 0.9375 -14.277344 L 0.9375 -4.8125 L 0.925781 -4.824219 L 0.925781 -0.417969 C 0.925781 -0.175781 1.085938 -0.0078125 1.328125 -0.0078125 L 3.089844 -0.0078125 C 3.265625 -0.0078125 3.414062 -0.109375 3.515625 -0.25 L 3.941406 -0.972656 C 4.589844 -0.175781 5.492188 0.257812 6.566406 0.257812 C 9.0625 0.257812 10.910156 -1.828125 10.910156 -4.710938 C 10.910156 -7.660156 9.0625 -9.757812 6.566406 -9.757812 Z M 5.824219 -3.480469 C 5.195312 -3.480469 4.5625 -3.996094 4.5625 -4.730469 C 4.5625 -5.472656 5.195312 -6 5.824219 -6 C 6.445312 -6 7.070312 -5.472656 7.070312 -4.730469 C 7.070312 -3.996094 6.445312 -3.480469 5.824219 -3.480469 Z M 5.824219 -3.480469 "/></g></g></g><g fill="rgb(0%, 0%, 0%)" fill-opacity="1"><g transform="translate(76.951876, 28.874998)"><g><path d="M 2.820312 -10.140625 C 3.96875 -10.140625 4.878906 -11.046875 4.878906 -12.199219 C 4.878906 -13.320312 3.96875 -14.257812 2.820312 -14.257812 C 1.679688 -14.257812 0.761719 -13.328125 0.761719 -12.199219 C 0.761719 -11.046875 1.679688 -10.140625 2.820312 -10.140625 Z M 4.351562 -9.5 L 1.296875 -9.5 C 1.058594 -9.5 0.925781 -9.351562 0.925781 -9.117188 L 0.925781 -0.378906 C 0.925781 -0.140625 1.058594 0 1.296875 0 L 4.351562 0 C 4.589844 0 4.730469 -0.140625 4.730469 -0.378906 L 4.730469 -9.117188 C 4.730469 -9.351562 4.589844 -9.5 4.351562 -9.5 Z M 4.351562 -9.5 "/></g></g></g><g fill="rgb(0%, 0%, 0%)" fill-opacity="1"><g transform="translate(82.609891, 28.874998)"><g><path d="M 4.351562 -14.089844 L 1.296875 -14.089844 C 1.058594 -14.089844 0.925781 -13.960938 0.925781 -13.71875 L 0.925781 -0.378906 C 0.925781 -0.140625 1.058594 0 1.296875 0 L 4.351562 0 C 4.589844 0 4.730469 -0.140625 4.730469 -0.378906 L 4.730469 -13.71875 C 4.730469 -13.960938 4.589844 -14.089844 4.351562 -14.089844 Z M 4.351562 -14.089844 "/></g></g></g><g fill="rgb(0%, 0%, 0%)" fill-opacity="1"><g transform="translate(88.267907, 28.874998)"><g><path d="M 5.574219 -9.757812 C 2.707031 -9.757812 0.464844 -7.523438 0.464844 -4.730469 C 0.464844 -1.957031 2.765625 0.269531 5.613281 0.269531 C 6.855469 0.269531 7.988281 -0.140625 8.878906 -0.816406 C 9.082031 -0.984375 9.109375 -1.195312 8.941406 -1.4375 L 7.773438 -3.109375 C 7.605469 -3.347656 7.410156 -3.433594 7.132812 -3.246094 C 6.847656 -3.0625 6.390625 -2.886719 5.714844 -2.886719 C 4.980469 -2.886719 4.378906 -3.273438 4.238281 -3.847656 L 9.082031 -3.847656 C 9.851562 -3.847656 10.371094 -4.292969 10.371094 -4.945312 C 10.371094 -7.800781 8.421875 -9.757812 5.574219 -9.757812 Z M 5.480469 -6.484375 C 6.105469 -6.484375 6.605469 -6.09375 6.714844 -5.519531 L 4.257812 -5.519531 C 4.40625 -6.066406 4.886719 -6.484375 5.480469 -6.484375 Z M 5.480469 -6.484375 "/></g></g></g><g fill="rgb(0%, 0%, 0%)" fill-opacity="1"><g transform="translate(99.101616, 28.874998)"><g/></g></g><g fill="rgb(0%, 0%, 0%)" fill-opacity="1"><g transform="translate(105.761379, 28.874998)"><g><path d="M 14.8125 -0.714844 L 9.796875 -9.378906 L 13.550781 -13.359375 C 13.867188 -13.683594 13.738281 -14.089844 13.3125 -14.089844 L 9.414062 -14.089844 C 9.015625 -14.089844 8.832031 -14.015625 8.542969 -13.699219 L 5.464844 -10.390625 L 5.464844 -13.664062 C 5.464844 -13.941406 5.296875 -14.089844 5.035156 -14.089844 L 1.632812 -14.089844 C 1.371094 -14.089844 1.207031 -13.941406 1.207031 -13.664062 L 1.207031 -0.425781 C 1.207031 -0.15625 1.371094 0 1.632812 0 L 5.035156 0 C 5.296875 0 5.464844 -0.15625 5.464844 -0.425781 L 5.464844 -4.796875 L 6.800781 -6.207031 L 10.167969 -0.242188 C 10.304688 -0.0820312 10.5 0 10.734375 0 L 14.5625 0 C 14.972656 0 15.046875 -0.316406 14.8125 -0.714844 Z M 14.8125 -0.714844 "/></g></g></g><g fill="rgb(0%, 0%, 0%)" fill-opacity="1"><g transform="translate(120.629908, 28.874998)"><g><path d="M 2.820312 -10.140625 C 3.96875 -10.140625 4.878906 -11.046875 4.878906 -12.199219 C 4.878906 -13.320312 3.96875 -14.257812 2.820312 -14.257812 C 1.679688 -14.257812 0.761719 -13.328125 0.761719 -12.199219 C 0.761719 -11.046875 1.679688 -10.140625 2.820312 -10.140625 Z M 4.351562 -9.5 L 1.296875 -9.5 C 1.058594 -9.5 0.925781 -9.351562 0.925781 -9.117188 L 0.925781 -0.378906 C 0.925781 -0.140625 1.058594 0 1.296875 0 L 4.351562 0 C 4.589844 0 4.730469 -0.140625 4.730469 -0.378906 L 4.730469 -9.117188 C 4.730469 -9.351562 4.589844 -9.5 4.351562 -9.5 Z M 4.351562 -9.5 "/></g></g></g><g fill="rgb(0%, 0%, 0%)" fill-opacity="1"><g transform="translate(126.287924, 28.874998)"><g><path d="M 7.21875 -9.757812 C 6.066406 -9.757812 4.804688 -9.054688 4.210938 -8.089844 L 3.515625 -9.257812 C 3.414062 -9.398438 3.265625 -9.5 3.089844 -9.5 L 1.328125 -9.5 C 1.085938 -9.5 0.925781 -9.332031 0.925781 -9.089844 L 0.925781 -0.398438 C 0.925781 -0.140625 1.066406 0 1.316406 0 L 4.339844 0 C 4.589844 0 4.738281 -0.140625 4.738281 -0.398438 L 4.738281 -5.148438 C 4.738281 -5.761719 5.296875 -6.316406 6 -6.316406 C 6.808594 -6.316406 7.246094 -5.824219 7.246094 -5.140625 L 7.246094 -0.398438 C 7.246094 -0.140625 7.375 0 7.632812 0 L 10.648438 0 C 10.910156 0 11.046875 -0.140625 11.046875 -0.398438 L 11.046875 -5.371094 C 11.046875 -8.144531 9.480469 -9.757812 7.21875 -9.757812 Z M 7.21875 -9.757812 "/></g></g></g><g fill="rgb(0%, 0%, 0%)" fill-opacity="1"><g transform="translate(138.169763, 28.874998)"><g><path d="M 10.007812 -9.5 L 8.246094 -9.5 C 8.070312 -9.5 7.921875 -9.398438 7.820312 -9.257812 L 7.402344 -8.542969 C 6.753906 -9.332031 5.863281 -9.757812 4.804688 -9.757812 C 2.308594 -9.757812 0.464844 -7.660156 0.464844 -4.710938 C 0.464844 -2.199219 2.308594 -0.109375 4.804688 -0.109375 C 5.539062 -0.109375 6.195312 -0.316406 6.742188 -0.6875 L 6.734375 -0.546875 C 6.679688 0.257812 6.242188 0.796875 5.472656 0.796875 C 4.601562 0.796875 3.71875 0.546875 3.292969 0.425781 C 3.070312 0.363281 2.820312 0.363281 2.71875 0.59375 L 1.835938 2.632812 C 1.707031 2.929688 1.742188 3.144531 1.910156 3.246094 C 2.929688 3.839844 4.378906 4.101562 5.6875 4.070312 C 8.441406 4.007812 10.40625 2.179688 10.40625 -0.5 L 10.40625 -9.089844 C 10.40625 -9.332031 10.25 -9.5 10.007812 -9.5 Z M 4.304688 -4.886719 C 4.304688 -5.585938 4.769531 -6.046875 5.546875 -6.046875 C 6.335938 -6.046875 6.808594 -5.585938 6.808594 -4.886719 C 6.808594 -4.238281 6.335938 -3.804688 5.546875 -3.804688 C 4.769531 -3.804688 4.304688 -4.238281 4.304688 -4.886719 Z M 4.304688 -4.886719 "/></g></g></g><g clip-path="url(#id1)"><path fill="rgb(6.269836%, 5.879211%, 5.099487%)" d="M 120.621094 13.542969 L 120.46875 14.175781 C 115.921875 13.035156 111.171875 13.035156 106.625 14.175781 L 106.472656 13.542969 C 111.121094 12.371094 115.976562 12.371094 120.621094 13.542969 " fill-opacity="1" fill-rule="nonzero"/></g><g clip-path="url(#id2)"><path fill="rgb(6.269836%, 5.879211%, 5.099487%)" d="M 103.050781 4.714844 C 104.332031 6.5 106.058594 7.898438 108.042969 8.773438 C 107.769531 7.382812 107.632812 5.96875 107.636719 4.550781 C 107.324219 4.625 107.011719 4.425781 106.9375 4.105469 C 106.867188 3.78125 107.058594 3.460938 107.375 3.386719 C 107.691406 3.3125 108.003906 3.511719 108.074219 3.835938 C 108.140625 4.117188 107.992188 4.410156 107.730469 4.519531 C 108.5 5.859375 109.457031 7.074219 110.582031 8.121094 C 111.90625 6.511719 112.96875 4.699219 113.734375 2.742188 C 113.222656 2.699219 112.84375 2.238281 112.886719 1.71875 C 112.929688 1.195312 113.378906 0.808594 113.890625 0.851562 C 114.398438 0.894531 114.78125 1.355469 114.738281 1.878906 C 114.699219 2.339844 114.339844 2.703125 113.890625 2.742188 C 114.652344 4.699219 115.71875 6.511719 117.042969 8.121094 C 118.164062 7.074219 119.125 5.859375 119.894531 4.519531 C 119.59375 4.394531 119.457031 4.042969 119.582031 3.738281 C 119.703125 3.433594 120.046875 3.292969 120.34375 3.417969 C 120.640625 3.546875 120.78125 3.898438 120.660156 4.203125 C 120.546875 4.472656 120.261719 4.621094 119.984375 4.550781 C 119.988281 5.96875 119.851562 7.382812 119.574219 8.773438 C 121.566406 7.898438 123.289062 6.5 124.570312 4.714844 C 124.289062 4.554688 124.1875 4.191406 124.34375 3.902344 C 124.5 3.617188 124.855469 3.511719 125.136719 3.671875 C 125.417969 3.832031 125.523438 4.195312 125.363281 4.480469 C 125.21875 4.75 124.902344 4.863281 124.628906 4.746094 L 121.164062 12.835938 C 116.332031 11.617188 111.289062 11.617188 106.460938 12.835938 L 102.992188 4.746094 C 102.695312 4.871094 102.355469 4.730469 102.226562 4.425781 C 102.105469 4.121094 102.242188 3.773438 102.539062 3.644531 C 102.835938 3.515625 103.179688 3.660156 103.304688 3.960938 C 103.421875 4.242188 103.308594 4.570312 103.050781 4.714844 " fill-opacity="1" fill-rule="nonzero"/></g></svg>