<svg xmlns="http://www.w3.org/2000/svg" viewBox="0 0 286.05 28.52"><defs><style>.cls-1{fill:#301e20;}</style></defs><title>资源 1</title><g id="图层_2" data-name="图层 2"><g id="图层_1-2" data-name="图层 1"><path class="cls-1" d="M151,5.87a8.82,8.82,0,0,0-6.69,2.88V6.19H141V28.07h3.35V15.92h0a6.68,6.68,0,1,1,13.36,0h0V28.07h3.35V15.91h0A10.05,10.05,0,0,0,151,5.87Z"/><path class="cls-1" d="M182.63,9.11a11.22,11.22,0,1,0,0,16v3H186V6.19h-3.35ZM174.77,25a7.86,7.86,0,1,1,7.86-7.86A7.85,7.85,0,0,1,174.77,25Z"/><path class="cls-1" d="M231.36,5.69A11.42,11.42,0,1,0,242.78,17.1,11.41,11.41,0,0,0,231.36,5.69Zm0,19.47a8.06,8.06,0,1,1,8.06-8.06A8.06,8.06,0,0,1,231.36,25.16Z"/><path class="cls-1" d="M193.64,8.64V6.19h-3.36V28.07h3.36V16c0-5,3.46-6.58,6.66-6.58V6.17h0C197.15,6.17,194.84,7.11,193.64,8.64Z"/><polygon class="cls-1" points="217.62 10.36 217.62 10.36 218.48 9.16 218.48 9.16 218.48 9.15 218.48 9.15 219.11 8.26 219.11 8.26 219.11 8.26 219.11 6.2 203.4 6.2 203.4 6.19 203.4 6.19 203.4 9.46 213.99 9.46 203.08 24.79 203.08 24.79 202.45 25.68 202.45 28.06 219.52 28.06 219.52 24.69 207.41 24.69 217.62 10.36"/><path class="cls-1" d="M259.85,14.45h-2.7l.37-4.8h8.73V6.33h-12l-.83,11.56h6.27c2.33,0,3.93,1.29,3.93,3.44s-1.6,3.48-4,3.48-3.72-1-4.28-2.92l-3,1.75c1.14,3.1,4.06,4.61,7.32,4.61,4,0,7.53-2.4,7.53-6.92S263.76,14.45,259.85,14.45Z"/><path class="cls-1" d="M277.6,5.93c-5.42,0-8.46,4.52-8.46,11.16s3,11.16,8.46,11.16,8.45-4.52,8.45-11.16S283,5.93,277.6,5.93Zm0,18.88c-3.17,0-4.92-2.77-4.92-7.72s1.75-7.72,4.92-7.72,4.92,2.77,4.92,7.72S280.79,24.81,277.6,24.81Z"/><path class="cls-1" d="M94.08,6.09a8.33,8.33,0,0,0-7,3.45,7.1,7.1,0,0,0-6.44-3.45,7.65,7.65,0,0,0-5.8,2.39V6.39H71.43V28h3.44V14.16A5.09,5.09,0,0,1,80,9.32c3,0,4.92,2.14,4.92,5.59V28H88.4V14.49c0-2.5,1.38-5.17,5.26-5.17,3,0,5,2.2,5,5.59V28h3.44V14.91C102.06,9.47,99,6.09,94.08,6.09Z"/><path class="cls-1" d="M25.47,6c-6.3,0-10.87,4.7-10.87,11.17S19,28.3,25.39,28.3a10.35,10.35,0,0,0,9.48-5.25l.17-.29-2.94-1.9-.19.33a7,7,0,0,1-6.52,3.88A7.27,7.27,0,0,1,18,18H35.55V16.88a11.24,11.24,0,0,0-3-8A9.81,9.81,0,0,0,25.47,6ZM18.2,14.89a7.33,7.33,0,0,1,7.19-5.65,6.58,6.58,0,0,1,6.66,5.65Z"/><polygon class="cls-1" points="0 28.05 3.44 28.05 3.44 9.62 13.29 9.62 13.29 6.39 0 6.39 0 28.05"/><path class="cls-1" d="M115.87,6C109.57,6,105,10.71,105,17.18s4.43,11.12,10.79,11.12a10.35,10.35,0,0,0,9.48-5.25l.17-.29-2.94-1.9-.19.33a7,7,0,0,1-6.52,3.88A7.25,7.25,0,0,1,108.45,18H126V16.88a11.24,11.24,0,0,0-3-8A9.8,9.8,0,0,0,115.87,6Zm-7.27,8.88a7.33,7.33,0,0,1,7.19-5.65,6.58,6.58,0,0,1,6.66,5.65Z"/><rect class="cls-1" x="63.53" width="3.44" height="28.01"/><path class="cls-1" d="M55.67,8.42A10.55,10.55,0,0,0,49,6.09a10.86,10.86,0,0,0-7.88,3.22,11.33,11.33,0,0,0-3.08,8,11.28,11.28,0,0,0,3.08,7.93A10.88,10.88,0,0,0,49,28.39a10.48,10.48,0,0,0,6.68-2.32v2h3.4V6.43h-3.4ZM48.82,25a7.36,7.36,0,0,1-7.35-7.69,7.38,7.38,0,0,1,7.35-7.73c4.35,0,7.27,3.11,7.27,7.73S53.17,25,48.82,25Z"/></g></g></svg>