 <svg version="1.0" xmlns="http://www.w3.org/2000/svg"  width="900.000000pt" height="201.000000pt" viewBox="0 0 900.000000 201.000000"  preserveAspectRatio="xMidYMid meet">  <g transform="translate(0.000000,201.000000) scale(0.100000,-0.100000)" fill="#000000" stroke="none"> <path d="M3143 1998 c1 -8 -17 -16 -48 -21 -27 -5 -63 -15 -78 -23 -16 -8 -33 -14 -38 -14 -14 0 -97 -64 -118 -92 -46 -60 -70 -155 -70 -291 -1 -123 10 -117 -207 -117 -145 0 -186 -3 -190 -13 -3 -8 15 -35 39 -61 28 -29 57 -76 77 -124 19 -42 39 -83 45 -90 9 -10 44 -14 116 -15 l104 -2 5 -540 5 -539 25 -7 c14 -4 84 -7 157 -8 121 -1 133 1 143 18 6 13 10 201 10 541 0 408 3 522 13 525 6 2 111 6 231 9 120 3 222 9 226 13 4 4 10 67 13 140 5 98 3 134 -6 140 -7 4 -115 10 -242 13 l-230 5 -3 55 c-2 30 1 78 8 107 18 83 28 87 265 93 l200 5 8 100 c4 55 5 124 2 153 l-6 52 -230 0 c-176 0 -228 -3 -226 -12z"/> <path d="M3892 1858 l3 -153 159 -3 c108 -2 163 1 172 9 15 12 20 187 8 262 l-7 37 -169 0 -169 0 3 -152z"/> <path d="M6592 1858 l3 -153 165 0 165 0 3 153 3 152 -171 0 -171 0 3 -152z"/> <path d="M44 1836 c-19 -14 -19 -35 -19 -889 0 -726 2 -877 14 -890 20 -25 292 -25 312 0 12 13 14 165 14 895 0 770 -2 880 -15 888 -25 16 -283 12 -306 -4z"/> <path d="M1265 1439 c-93 -10 -167 -31 -197 -57 -18 -15 -19 -15 -33 35 -6 19 -82 25 -210 16 l-120 -8 -3 -680 c-2 -630 -1 -681 15 -692 21 -16 275 -18 304 -3 18 10 19 26 19 469 0 437 1 460 20 502 24 54 36 69 75 94 28 19 51 20 345 23 398 5 447 1 501 -41 30 -24 46 -46 60 -87 18 -50 19 -89 19 -500 0 -334 3 -449 12 -458 17 -17 304 -17 315 1 4 6 6 231 5 498 -3 432 -5 494 -21 561 -33 133 -96 231 -173 269 -110 54 -98 52 -378 55 -146 2 -310 5 -365 7 -55 3 -140 1 -190 -4z"/> <path d="M5150 1436 c-61 -8 -109 -20 -133 -34 -49 -28 -65 -28 -73 3 l-6 25 -164 0 -164 0 2 -692 3 -693 160 0 159 0 7 35 c12 58 14 238 5 545 -7 255 -6 295 8 335 8 25 16 53 16 62 0 9 20 37 45 61 l45 45 92 7 c51 4 226 5 389 3 l296 -3 40 -27 c22 -14 51 -46 64 -70 l24 -43 0 -463 c0 -447 1 -464 19 -478 28 -20 288 -20 305 0 20 24 24 212 12 631 -10 331 -15 411 -30 465 -27 96 -45 131 -93 175 -89 83 -173 102 -488 109 -129 3 -282 8 -340 10 -58 3 -148 -1 -200 -8z"/> <path d="M3902 1428 c-9 -9 -12 -169 -12 -695 l0 -683 23 -5 c12 -3 85 -4 162 -3 l140 3 8 70 c9 88 9 1109 -1 1230 l-7 90 -150 3 c-109 2 -154 -1 -163 -10z"/> <path d="M7188 1434 c-37 -11 -42 -6 353 -402 96 -98 199 -199 227 -226 30 -28 52 -57 52 -69 0 -14 -106 -126 -326 -344 -181 -179 -324 -328 -322 -335 4 -10 49 -13 201 -13 l196 0 78 75 c42 41 114 113 158 159 166 175 223 231 235 231 16 0 116 -96 283 -275 78 -82 153 -157 167 -167 38 -24 187 -40 306 -32 113 7 124 15 81 57 -12 12 -130 134 -262 272 -132 137 -264 274 -292 303 -31 30 -53 61 -53 74 0 14 102 122 325 342 179 176 325 326 325 332 0 7 -10 14 -22 18 -31 8 -303 7 -353 -1 -44 -7 -67 -28 -341 -315 -78 -82 -149 -148 -158 -148 -9 0 -108 93 -219 206 -111 114 -220 218 -242 233 -39 25 -45 26 -210 28 -93 1 -178 -1 -187 -3z"/> <path d="M6607 1424 c-4 -4 -7 -312 -7 -685 0 -660 1 -679 19 -689 24 -12 280 -13 300 -1 11 7 13 130 15 692 l1 684 -161 3 c-88 1 -163 -1 -167 -4z"/> </g> </svg> 