 <svg version="1.0" xmlns="http://www.w3.org/2000/svg"  width="900.000000pt" height="453.000000pt" viewBox="0 0 900.000000 453.000000"  preserveAspectRatio="xMidYMid meet">  <g transform="translate(0.000000,453.000000) scale(0.100000,-0.100000)" fill="#000000" stroke="none"> <path d="M4000 4300 c-52 -4 -173 -13 -268 -18 -95 -6 -205 -15 -245 -21 -39 -6 -119 -15 -177 -21 -58 -7 -139 -15 -180 -20 -41 -4 -102 -13 -135 -19 -76 -13 -182 -30 -264 -42 -35 -5 -77 -13 -95 -18 -30 -10 -96 -23 -203 -40 -28 -5 -66 -14 -85 -19 -18 -6 -53 -15 -78 -20 -57 -13 -257 -65 -330 -87 -30 -8 -68 -20 -85 -24 -69 -19 -231 -75 -239 -83 -6 -4 -18 -8 -28 -8 -17 0 -65 -18 -121 -46 -16 -8 -33 -14 -39 -14 -10 0 -21 -5 -148 -62 -70 -32 -195 -93 -220 -108 -8 -5 -55 -32 -105 -61 -49 -29 -92 -55 -95 -58 -3 -3 -26 -20 -51 -37 -89 -61 -216 -174 -265 -236 -27 -35 -54 -69 -61 -76 -21 -22 -97 -186 -107 -232 -14 -68 -12 -249 3 -285 l14 -30 10 35 c17 65 90 196 137 250 208 237 427 389 820 567 36 17 85 38 110 47 25 10 59 24 75 31 41 19 302 105 316 105 6 0 25 6 42 13 42 18 123 43 164 52 18 4 35 11 38 16 4 5 18 9 33 9 15 0 40 7 56 15 15 8 37 15 47 15 10 0 36 6 56 14 39 14 81 25 188 52 33 8 87 21 120 30 33 8 84 19 114 25 29 5 62 14 72 19 10 6 30 10 44 10 15 0 54 6 88 14 134 32 308 64 412 77 38 4 90 13 115 18 56 13 184 30 310 42 52 5 122 13 155 18 82 14 278 30 470 41 88 5 219 14 290 20 223 21 1089 2 1445 -31 63 -6 171 -14 240 -19 156 -11 314 -27 451 -46 69 -9 114 -11 130 -5 26 10 31 8 -76 25 -16 2 -50 10 -75 16 -82 21 -134 32 -190 41 -117 18 -187 31 -235 41 -27 6 -79 15 -115 19 -116 13 -234 30 -297 40 -35 6 -109 15 -165 19 -134 10 -334 28 -478 42 -136 13 -1172 19 -1310 8z"/> <path d="M3253 3683 c-56 -20 -129 -85 -153 -139 -45 -98 -12 -202 72 -225 97 -26 204 18 266 110 29 41 32 54 32 117 0 82 -18 111 -84 138 -46 19 -76 19 -133 -1z"/> <path d="M6967 3684 c-42 -15 -120 -84 -141 -123 -7 -14 -27 -52 -44 -83 -18 -32 -46 -84 -63 -115 -82 -149 -105 -192 -136 -248 -18 -33 -47 -87 -64 -120 -16 -33 -38 -73 -48 -90 -10 -16 -38 -68 -63 -115 -46 -86 -94 -176 -155 -285 -18 -33 -45 -85 -60 -115 -15 -30 -31 -57 -34 -60 -3 -3 -19 -30 -34 -60 -14 -30 -41 -82 -59 -115 -18 -33 -43 -78 -54 -100 -27 -49 -28 -81 -2 -123 40 -66 137 -77 226 -26 65 38 79 56 162 214 16 30 44 82 62 115 18 33 48 89 68 125 19 36 48 90 65 120 17 30 47 87 67 125 20 39 51 96 68 128 18 31 46 83 63 115 18 31 45 82 62 112 44 80 112 207 201 373 20 37 52 97 72 134 43 78 49 149 18 184 -44 49 -103 60 -177 33z"/> <path d="M4215 3599 c-60 -25 -119 -84 -161 -165 -17 -32 -46 -86 -64 -119 -18 -33 -44 -80 -57 -105 -43 -80 -43 -80 -167 -80 -135 0 -184 -15 -244 -73 -42 -41 -92 -128 -92 -160 0 -29 36 -37 164 -37 124 0 126 0 126 -22 0 -13 -7 -36 -16 -53 -9 -16 -36 -66 -59 -110 -23 -44 -64 -120 -90 -170 -105 -196 -145 -280 -145 -304 0 -15 -5 -42 -10 -61 -17 -55 5 -154 47 -217 46 -68 125 -121 200 -134 108 -18 271 5 378 53 58 26 141 86 191 139 58 63 124 167 124 198 0 46 -54 39 -115 -14 -52 -46 -186 -125 -250 -147 -29 -10 -80 -17 -121 -18 -62 0 -75 3 -97 24 -35 32 -42 65 -27 128 14 55 55 138 193 388 17 30 47 87 67 125 66 125 90 168 100 180 8 9 63 14 189 16 176 4 178 4 219 32 39 28 67 62 111 140 48 86 30 96 -181 97 -92 0 -169 4 -172 9 -3 5 27 69 67 142 40 74 81 151 90 171 28 59 4 123 -58 152 -43 21 -79 19 -140 -5z"/> <path d="M5585 3189 c-22 -5 -65 -14 -95 -20 -30 -5 -59 -14 -64 -20 -6 -5 -19 -9 -29 -9 -44 0 -264 -112 -359 -182 -86 -64 -211 -187 -255 -251 -15 -23 -30 -44 -33 -47 -29 -26 -99 -167 -125 -250 -9 -30 -21 -68 -27 -85 -5 -16 -12 -73 -15 -126 -11 -190 57 -318 205 -386 54 -25 65 -26 212 -26 157 0 201 7 315 50 48 18 186 84 200 95 6 4 37 28 70 51 194 141 305 300 235 337 -17 9 -27 4 -68 -33 -185 -170 -422 -287 -582 -287 -101 0 -199 48 -239 116 -30 50 -29 163 0 210 l21 34 86 0 c49 1 104 7 127 15 22 8 51 15 65 15 14 0 38 7 54 15 15 8 36 15 45 15 9 0 29 7 45 15 15 8 34 15 40 15 14 0 207 97 215 108 3 4 20 16 36 27 90 56 204 194 238 285 35 94 15 208 -45 262 -56 50 -189 78 -273 57z m-8 -251 c18 -17 23 -32 23 -69 0 -26 -4 -50 -9 -53 -5 -3 -12 -17 -15 -31 -13 -49 -106 -142 -181 -179 -95 -46 -177 -68 -277 -73 -111 -7 -133 2 -124 48 8 40 91 157 162 226 111 108 200 150 318 152 69 1 83 -2 103 -21z"/> <path d="M3013 3139 c-60 -14 -132 -83 -174 -166 -19 -37 -37 -70 -40 -73 -4 -3 -19 -30 -34 -60 -25 -52 -46 -90 -125 -235 -18 -33 -48 -89 -68 -125 -19 -36 -48 -90 -65 -120 -17 -30 -47 -86 -67 -125 -20 -38 -53 -100 -73 -137 -48 -88 -50 -143 -8 -190 28 -31 33 -33 93 -32 94 2 169 48 216 132 16 28 63 115 110 202 19 36 46 85 60 110 13 25 46 86 72 135 27 50 60 110 73 135 14 25 39 70 55 100 16 30 44 82 62 115 96 175 100 184 100 229 0 89 -76 131 -187 105z"/> <path d="M8720 3046 c0 -19 -4 -37 -9 -41 -5 -3 -12 -19 -16 -35 -28 -127 -258 -406 -470 -570 -38 -30 -72 -57 -75 -60 -6 -7 -167 -127 -200 -150 -12 -8 -28 -19 -34 -25 -6 -5 -31 -24 -56 -41 -25 -17 -79 -55 -120 -83 -41 -29 -106 -73 -145 -99 -38 -26 -71 -50 -73 -54 -2 -5 -7 -8 -12 -8 -8 0 -105 -61 -127 -80 -7 -5 -14 -10 -17 -10 -2 0 -33 -19 -68 -42 -35 -24 -71 -47 -80 -53 -14 -8 -114 -70 -227 -140 -20 -13 -90 -56 -116 -72 -153 -92 -265 -160 -285 -171 -14 -7 -38 -22 -55 -32 -16 -11 -39 -24 -50 -29 -11 -5 -73 -41 -138 -80 -65 -39 -120 -71 -122 -71 -2 0 -42 -23 -89 -50 -47 -27 -87 -50 -91 -50 -3 0 -22 -11 -43 -23 -34 -22 -75 -45 -227 -127 -27 -15 -66 -37 -85 -48 -19 -12 -62 -35 -95 -51 -62 -32 -145 -78 -203 -112 -45 -26 -92 -26 -92 1 0 16 69 118 192 282 7 9 20 26 28 38 8 12 44 61 79 108 35 48 74 103 86 123 13 20 30 42 37 50 58 58 138 207 138 258 0 67 -79 93 -220 71 -41 -6 -113 -15 -160 -19 -47 -5 -119 -14 -160 -20 -106 -15 -280 -31 -455 -41 -82 -5 -193 -14 -245 -19 -118 -13 -940 -35 -1035 -27 -38 3 -191 8 -340 11 -148 3 -299 10 -335 15 -36 6 -123 14 -195 20 -169 13 -293 28 -380 46 -81 17 -121 18 -130 4 -6 -10 12 -15 75 -24 19 -2 53 -9 75 -15 22 -5 76 -17 120 -26 44 -9 102 -21 129 -27 26 -6 74 -14 105 -18 130 -19 209 -32 253 -41 25 -6 86 -15 135 -20 48 -5 111 -13 138 -18 28 -6 77 -10 110 -11 33 0 80 -5 103 -10 24 -6 112 -15 195 -20 84 -5 202 -14 262 -21 66 -6 365 -11 755 -12 615 -2 645 -3 648 -20 4 -17 -28 -71 -66 -113 -9 -10 -48 -57 -87 -104 -38 -47 -74 -90 -80 -96 -5 -6 -30 -35 -55 -64 -43 -51 -103 -122 -125 -146 -5 -6 -44 -49 -85 -95 -73 -82 -149 -165 -200 -219 -163 -172 -195 -231 -155 -284 47 -61 138 -59 270 7 28 14 120 59 205 100 157 75 302 146 665 322 307 148 330 160 335 165 3 3 84 45 180 93 96 48 238 121 315 161 77 41 167 88 200 105 33 17 89 47 125 67 36 19 94 51 130 70 36 20 83 45 105 58 22 12 69 38 105 58 36 19 81 45 100 57 19 11 44 25 56 30 19 9 138 78 174 101 8 6 27 15 43 21 15 6 27 15 27 20 0 5 5 9 11 9 9 0 163 91 254 150 13 8 57 35 97 59 40 25 75 48 76 53 2 4 8 8 13 8 10 0 107 66 199 135 30 22 67 48 81 57 14 9 32 23 40 30 8 7 46 38 84 67 77 60 252 231 307 301 54 69 111 168 139 240 20 54 24 82 23 170 0 99 -2 109 -34 168 -37 70 -60 81 -60 28z"/> <path d="M2093 1563 c9 -2 25 -2 35 0 9 3 1 5 -18 5 -19 0 -27 -2 -17 -5z"/> </g> </svg> 