 <svg version="1.0" xmlns="http://www.w3.org/2000/svg"  width="900.000000pt" height="600.000000pt" viewBox="0 0 900.000000 600.000000"  preserveAspectRatio="xMidYMid meet">  <g transform="translate(0.000000,600.000000) scale(0.100000,-0.100000)" fill="#000000" stroke="none"> <path d="M4388 5690 c-139 -25 -295 -145 -361 -277 -47 -96 -61 -166 -54 -279 7 -127 46 -219 131 -311 65 -70 163 -136 227 -153 20 -6 42 -16 48 -24 21 -25 -138 -602 -233 -846 -44 -111 -64 -156 -114 -259 -181 -374 -364 -565 -598 -625 -122 -31 -236 -14 -390 60 -162 77 -331 219 -498 418 -94 113 -211 272 -280 381 -20 33 -60 95 -87 138 -27 43 -49 86 -49 95 0 8 24 39 53 67 66 65 106 138 118 219 26 167 -61 332 -214 405 -194 92 -425 8 -515 -187 -23 -50 -26 -70 -26 -157 0 -92 2 -105 32 -167 37 -77 105 -143 188 -184 46 -22 71 -27 151 -30 52 -2 97 -5 100 -7 4 -5 11 -44 46 -262 133 -830 102 -1323 -95 -1500 -102 -91 -265 -105 -448 -37 -207 77 -474 278 -719 544 -39 42 -71 81 -71 87 0 5 16 27 35 48 20 21 48 63 63 93 24 50 27 65 27 165 0 101 -2 114 -28 164 -99 188 -295 264 -492 190 -72 -27 -153 -101 -196 -181 -33 -61 -34 -66 -33 -173 0 -133 18 -179 101 -266 102 -107 254 -146 390 -100 34 12 67 21 73 21 19 0 103 -150 245 -436 156 -317 186 -384 320 -724 35 -89 77 -216 110 -330 20 -68 41 -128 48 -132 7 -4 1407 -7 3112 -5 l3099 2 17 50 c9 28 35 111 59 185 71 223 146 415 256 660 91 203 346 696 374 724 6 6 35 1 75 -12 124 -41 253 -22 355 53 58 42 93 87 128 163 23 49 26 70 26 147 0 80 -3 97 -31 155 -34 70 -114 156 -173 185 -159 81 -346 47 -460 -82 -55 -62 -78 -110 -95 -192 -12 -56 -12 -76 0 -133 16 -78 33 -114 87 -185 l40 -53 -25 -32 c-67 -88 -292 -299 -427 -403 -333 -255 -666 -311 -814 -135 -53 63 -84 137 -118 275 -21 83 -22 114 -22 400 0 307 4 362 45 635 6 36 14 96 19 134 6 38 14 85 20 105 5 20 10 48 10 62 0 14 7 48 15 76 l15 50 82 5 c164 11 278 89 344 237 20 44 24 70 24 147 0 84 -3 101 -31 159 -39 83 -106 150 -189 189 -58 27 -75 31 -160 30 -86 0 -101 -3 -162 -32 -155 -75 -245 -242 -216 -403 17 -95 44 -147 119 -223 38 -38 69 -72 69 -76 0 -24 -265 -418 -366 -545 -197 -247 -428 -442 -598 -505 -132 -50 -232 -60 -331 -35 -124 31 -213 85 -312 186 -235 241 -428 661 -581 1264 -58 226 -66 261 -60 276 3 9 25 21 47 28 137 41 265 158 324 296 23 54 47 161 47 210 0 55 -33 175 -65 241 -54 110 -176 215 -300 258 -58 20 -208 29 -277 16z"/> <path d="M1392 848 c-9 -9 -12 -81 -12 -265 l0 -253 26 -10 c41 -16 6166 -13 6187 3 16 11 17 36 15 272 l-3 260 -3100 3 c-2404 1 -3104 -1 -3113 -10z"/> </g> </svg> 