 <svg version="1.0" xmlns="http://www.w3.org/2000/svg"  width="900.000000pt" height="237.000000pt" viewBox="0 0 900.000000 237.000000"  preserveAspectRatio="xMidYMid meet">  <g transform="translate(0.000000,237.000000) scale(0.100000,-0.100000)" fill="#000000" stroke="none"> <path d="M1005 2203 c-81 -11 -285 -58 -313 -72 -9 -5 -46 -21 -82 -37 -234 -104 -393 -284 -452 -508 -17 -66 -19 -100 -15 -195 5 -113 8 -131 50 -236 57 -145 220 -314 372 -383 11 -6 41 -19 65 -30 168 -78 389 -113 624 -100 259 14 479 86 645 211 173 129 263 279 292 487 11 80 11 103 -4 191 -10 55 -21 108 -26 117 -60 126 -84 167 -133 224 -104 120 -241 208 -417 267 -85 29 -130 39 -276 61 -59 9 -270 11 -330 3z m295 -253 c93 -11 201 -37 240 -57 14 -7 28 -13 32 -13 14 0 119 -67 162 -104 51 -43 104 -119 132 -191 15 -40 19 -75 19 -170 -1 -115 -2 -123 -34 -190 -45 -92 -150 -198 -241 -241 -144 -68 -264 -94 -441 -94 -291 0 -508 87 -636 255 -42 55 -52 77 -74 156 -54 195 16 383 188 511 156 115 405 167 653 138z"/> <path d="M3240 2205 c-8 -2 -49 -9 -90 -15 -148 -24 -299 -76 -409 -141 -36 -21 -68 -36 -73 -33 -4 3 -8 26 -8 52 0 26 -4 53 -8 60 -7 9 -43 12 -148 10 l-139 -3 -5 -988 c-4 -732 -2 -991 6 -998 7 -5 74 -8 150 -7 l139 3 3 343 c1 205 6 342 12 342 5 0 31 -12 57 -28 229 -132 487 -183 798 -158 217 17 439 95 590 206 82 61 176 170 217 251 53 108 58 124 74 227 21 144 -6 296 -75 422 -121 222 -356 371 -696 440 -56 11 -362 23 -395 15z m300 -259 c125 -18 184 -36 284 -86 125 -61 213 -157 261 -285 27 -69 27 -239 0 -310 -69 -185 -228 -301 -490 -360 -96 -21 -326 -21 -425 1 -85 18 -227 70 -251 90 -8 8 -20 14 -26 14 -5 0 -38 25 -72 57 -246 222 -204 607 85 774 174 100 403 138 634 105z"/> <path d="M5440 2204 c-136 -24 -206 -40 -270 -61 -79 -26 -195 -77 -220 -99 -8 -7 -27 -16 -42 -19 -27 -7 -28 -6 -28 31 0 87 5 84 -151 84 -127 0 -139 -2 -149 -19 -7 -14 -9 -335 -8 -998 l3 -978 150 0 150 0 3 343 c1 221 6 342 12 342 6 0 29 -12 53 -27 88 -55 191 -95 362 -139 103 -27 476 -27 590 0 377 87 611 272 707 558 30 90 30 315 1 403 -39 116 -96 207 -179 287 -92 88 -119 107 -219 157 -137 68 -201 90 -350 121 -60 12 -368 23 -415 14z m301 -254 c79 -10 168 -31 214 -50 197 -82 299 -179 349 -333 27 -82 26 -225 -3 -302 -90 -239 -344 -375 -701 -375 -241 0 -430 59 -559 176 -115 104 -161 205 -161 352 0 127 38 235 114 321 62 69 197 149 311 181 119 34 300 46 436 30z"/> <path d="M7630 2200 c-25 -4 -72 -13 -105 -18 -149 -26 -340 -108 -455 -197 -175 -135 -290 -356 -290 -559 0 -58 22 -181 44 -242 76 -213 268 -383 532 -472 183 -62 210 -66 454 -66 200 0 235 3 315 23 125 31 167 46 265 93 106 51 145 78 243 168 52 47 147 183 147 210 0 9 4 20 9 26 5 5 19 45 30 88 23 88 28 233 10 301 -5 22 -14 56 -19 75 -9 37 -50 120 -87 179 -34 53 -139 157 -203 201 -69 47 -192 110 -214 110 -8 0 -17 4 -21 9 -3 5 -20 13 -38 16 -17 4 -52 13 -77 20 -25 7 -72 18 -105 25 -73 15 -373 22 -435 10z m340 -254 c52 -8 118 -21 145 -29 152 -43 293 -144 356 -254 133 -231 64 -498 -166 -648 -46 -30 -68 -40 -150 -75 -121 -50 -407 -66 -566 -31 -229 50 -381 156 -461 319 -32 65 -33 70 -33 197 0 128 1 131 35 200 42 83 123 168 209 219 34 20 65 36 68 36 3 0 19 6 36 14 50 23 105 37 202 51 119 17 209 17 325 1z"/> </g> </svg> 