 <svg version="1.0" xmlns="http://www.w3.org/2000/svg"  width="900.000000pt" height="228.000000pt" viewBox="0 0 900.000000 228.000000"  preserveAspectRatio="xMidYMid meet">  <g transform="translate(0.000000,228.000000) scale(0.100000,-0.100000)" fill="#000000" stroke="none"> <path d="M4504 2201 c-2 -2 -4 -478 -4 -1058 l0 -1053 95 0 95 0 0 1054 0 1055 -91 3 c-50 2 -93 1 -95 -1z"/> <path d="M1590 1605 c-149 -25 -274 -89 -381 -195 -44 -43 -114 -136 -128 -170 -6 -14 -15 -32 -20 -40 -13 -21 -36 -86 -52 -145 -19 -68 -19 -362 0 -430 22 -80 50 -148 100 -243 19 -35 173 -189 203 -202 13 -6 43 -22 67 -35 24 -14 51 -25 59 -25 7 0 26 -6 40 -14 40 -21 137 -39 232 -44 91 -4 254 19 302 44 14 8 32 14 40 14 16 0 65 24 128 64 60 38 196 179 204 212 4 15 6 27 4 28 -2 1 -22 17 -44 34 -23 18 -45 32 -50 32 -4 0 -15 7 -25 16 -16 14 -20 11 -62 -43 -24 -32 -56 -70 -69 -84 -32 -35 -124 -99 -141 -99 -7 0 -18 -5 -24 -11 -6 -6 -29 -15 -50 -20 -21 -4 -58 -13 -83 -19 -77 -20 -258 2 -331 41 -13 7 -31 16 -39 21 -8 4 -24 12 -36 17 -32 14 -134 111 -162 156 -40 61 -51 79 -57 95 -24 56 -35 94 -46 157 -10 58 -10 75 1 88 11 13 88 15 642 15 536 0 629 2 634 14 8 20 -12 222 -26 276 -12 42 -22 67 -59 150 -16 34 -91 140 -121 170 -155 153 -395 218 -650 175z m280 -159 c92 -22 167 -64 240 -134 68 -66 140 -180 140 -220 0 -11 7 -36 15 -57 29 -68 54 -65 -540 -65 -421 0 -535 3 -543 13 -23 28 31 163 104 259 39 49 107 108 169 145 35 21 103 47 160 61 59 14 192 13 255 -2z"/> <path d="M8065 1605 c-213 -38 -401 -167 -494 -340 -12 -22 -26 -47 -30 -55 -13 -22 -36 -86 -56 -155 -26 -86 -26 -351 0 -433 43 -137 67 -190 124 -267 112 -151 250 -236 456 -280 122 -26 323 -11 422 31 17 8 35 14 41 14 5 0 36 14 68 31 91 49 165 111 230 194 42 55 46 70 23 91 -19 17 -28 23 -90 58 l-33 19 -25 -34 c-78 -106 -221 -214 -311 -232 -14 -3 -43 -10 -65 -16 -51 -13 -159 -13 -210 0 -22 6 -56 14 -75 18 -54 13 -150 68 -206 119 -59 55 -124 139 -140 182 -3 8 -11 29 -19 45 -11 26 -23 78 -40 170 -9 47 2 50 207 50 106 0 393 1 636 3 l444 2 -5 113 c-5 130 -22 202 -76 317 -17 38 -92 142 -125 176 -52 52 -192 144 -219 144 -5 0 -23 6 -40 14 -79 35 -261 44 -392 21z m295 -162 c40 -8 60 -16 110 -45 8 -4 24 -12 35 -17 58 -26 194 -187 195 -232 0 -8 7 -23 15 -33 8 -11 15 -29 15 -40 0 -11 5 -35 12 -53 10 -29 10 -36 -2 -43 -17 -11 -1048 -14 -1075 -4 -27 11 -9 94 36 174 5 8 14 26 19 39 18 40 162 174 215 200 28 13 62 30 77 38 14 7 39 13 55 14 15 0 37 4 48 9 24 11 181 6 245 -7z"/> <path d="M3285 1599 c-52 -8 -123 -28 -165 -46 -14 -6 -32 -14 -40 -18 -24 -10 -53 -28 -107 -68 -58 -42 -183 -174 -183 -193 0 -6 -7 -17 -15 -24 -8 -7 -15 -20 -15 -30 0 -10 -7 -23 -15 -30 -8 -7 -15 -22 -15 -34 0 -12 -7 -31 -15 -42 -8 -10 -15 -31 -15 -45 0 -15 -7 -46 -15 -69 -32 -91 -13 -355 31 -442 8 -14 14 -35 14 -46 0 -11 7 -25 15 -32 8 -7 15 -19 15 -26 0 -23 119 -176 167 -214 79 -64 86 -69 148 -98 123 -58 189 -74 337 -79 143 -5 237 12 344 63 67 32 145 82 157 101 4 7 17 13 27 13 18 0 20 -7 20 -75 0 -87 1 -88 115 -83 l70 3 3 730 c1 402 0 740 -3 753 -5 21 -11 22 -89 22 -97 0 -96 0 -96 -91 0 -45 -4 -61 -16 -66 -9 -3 -19 -2 -23 3 -8 13 -83 69 -101 77 -8 4 -22 11 -30 15 -54 32 -147 63 -210 72 -69 10 -229 10 -295 -1z m286 -175 c54 -16 111 -38 139 -55 8 -5 25 -13 37 -19 29 -12 141 -124 153 -153 6 -12 14 -29 18 -37 60 -106 72 -159 72 -325 0 -127 -3 -160 -21 -210 -11 -33 -25 -64 -30 -70 -5 -5 -9 -15 -9 -22 0 -14 -59 -102 -88 -131 -36 -35 -108 -89 -142 -104 -90 -41 -110 -47 -191 -58 -113 -15 -227 1 -324 46 -65 30 -152 95 -183 136 -7 9 -20 25 -30 34 -19 20 -28 34 -58 96 -57 114 -59 125 -59 283 0 168 5 187 93 352 20 35 134 150 163 163 13 5 31 14 39 19 111 66 301 91 421 55z"/> <path d="M5550 1600 c-55 -10 -116 -32 -132 -48 -7 -7 -18 -12 -24 -12 -7 0 -41 -27 -76 -60 -88 -84 -97 -81 -100 28 l-3 87 -85 0 -85 0 -3 -752 -2 -753 90 0 90 0 2 313 c3 733 4 750 24 793 85 182 282 288 469 251 116 -24 221 -94 256 -172 5 -11 13 -27 18 -35 46 -79 45 -64 49 -622 l4 -528 89 0 89 0 3 533 c3 603 0 577 85 683 43 52 80 83 122 100 8 3 29 12 45 19 17 8 64 19 105 25 80 12 163 0 243 -34 55 -24 140 -112 169 -176 54 -119 52 -93 58 -638 3 -281 8 -512 13 -512 4 0 41 0 82 0 l75 0 -1 513 c0 281 -4 535 -9 562 -26 162 -139 331 -255 384 -28 12 -63 29 -79 37 -38 19 -239 29 -321 16 -58 -10 -115 -26 -145 -43 -8 -5 -34 -18 -57 -30 -46 -24 -128 -99 -156 -142 -26 -40 -48 -34 -94 29 -46 63 -140 138 -193 155 -19 6 -40 16 -47 21 -16 12 -256 19 -313 8z"/> <path d="M58 850 c-2 -412 -2 -755 0 -760 5 -15 162 -13 162 3 -4 124 9 1329 14 1334 4 5 167 9 362 11 l355 3 -3 77 -3 77 -442 3 -443 2 -2 -750z"/> </g> </svg> 