<svg xmlns="http://www.w3.org/2000/svg" xmlns:xlink="http://www.w3.org/1999/xlink" width="4032" zoomAndPan="magnify" viewBox="0 0 3024 647.999998" height="864" preserveAspectRatio="xMidYMid meet" version="1.0"><defs><g/></defs><g fill="rgb(100%, 78.819275%, 8.239746%)" fill-opacity="1"><g transform="translate(517.92593, 468.211259)"><g><path d="M 175.226562 0.21875 L 139.582031 -63.335938 C 159.667969 -71.945312 171.03125 -90.261719 171.03125 -115.527344 C 171.03125 -150.730469 148.851562 -175.226562 110.234375 -175.226562 L 18.867188 -175.226562 L 18.867188 0 L 62.566406 0 L 62.566406 -57.820312 L 95.667969 -57.820312 L 125.019531 0.21875 Z M 62.566406 -138.371094 L 101.957031 -138.371094 C 119.941406 -138.371094 127.554688 -130.867188 127.554688 -116.851562 C 127.554688 -103.5 120.496094 -94.675781 101.957031 -94.675781 L 62.566406 -94.675781 Z M 62.566406 -138.371094 "/></g></g></g><g fill="rgb(100%, 78.819275%, 8.239746%)" fill-opacity="1"><g transform="translate(706.330085, 468.211259)"><g><path d="M 136.714844 0 L 191.445312 0 L 120.714844 -101.957031 L 188.355469 -175.226562 L 132.632812 -175.226562 L 63.007812 -93.238281 L 63.007812 -175.226562 L 19.089844 -175.226562 L 19.089844 0 L 63.007812 0 L 63.007812 -39.390625 L 91.585938 -70.289062 Z M 136.714844 0 "/></g></g></g><g fill="rgb(100%, 78.819275%, 8.239746%)" fill-opacity="1"><g transform="translate(905.989241, 468.211259)"><g/></g></g><g fill="rgb(100%, 78.819275%, 8.239746%)" fill-opacity="1"><g transform="translate(973.126414, 468.211259)"><g><path d="M 162.09375 -175.226562 L 125.019531 -59.035156 L 87.945312 -175.226562 L 19.089844 -175.226562 L 19.089844 0 L 63.007812 0 L 63.007812 -130.644531 L 64.21875 -130.644531 L 106.039062 0 L 143.886719 0 L 185.816406 -130.644531 L 187.03125 -130.644531 L 187.03125 0 L 230.835938 0 L 230.835938 -175.226562 Z M 162.09375 -175.226562 "/></g></g></g><g fill="rgb(100%, 78.819275%, 8.239746%)" fill-opacity="1"><g transform="translate(1229.8329, 468.211259)"><g><path d="M 72.164062 2.757812 C 109.902344 2.757812 138.261719 -20.414062 138.261719 -64.550781 C 138.261719 -109.351562 109.902344 -132.523438 72.164062 -132.523438 C 34.539062 -132.523438 5.628906 -109.238281 5.628906 -64.550781 C 5.628906 -20.414062 34.539062 2.757812 72.164062 2.757812 Z M 72.273438 -31.226562 C 58.59375 -31.226562 47.777344 -39.945312 47.777344 -64.550781 C 47.777344 -89.707031 58.59375 -98.648438 72.273438 -98.648438 C 85.957031 -98.648438 96.769531 -89.707031 96.769531 -64.550781 C 96.769531 -39.945312 85.957031 -31.226562 72.273438 -31.226562 Z M 72.273438 -31.226562 "/></g></g></g><g fill="rgb(100%, 78.819275%, 8.239746%)" fill-opacity="1"><g transform="translate(1380.720406, 468.211259)"><g><path d="M 93.902344 2.757812 C 126.011719 2.757812 147.199219 -23.945312 147.199219 -64.992188 C 147.199219 -105.707031 126.34375 -132.523438 94.785156 -132.523438 C 75.804688 -132.523438 65.210938 -125.570312 58.480469 -117.292969 L 57.929688 -117.292969 L 57.929688 -175.226562 L 15.226562 -175.226562 L 15.226562 0 L 56.828125 0 L 56.828125 -12.6875 L 57.597656 -12.6875 C 63.007812 -5.515625 73.488281 2.757812 93.902344 2.757812 Z M 79.335938 -31.117188 C 65.210938 -31.117188 55.390625 -43.253906 55.390625 -65.433594 C 55.390625 -85.957031 65.210938 -98.535156 79.335938 -98.535156 C 94.5625 -98.535156 104.164062 -88.054688 104.164062 -65.433594 C 104.164062 -41.15625 94.5625 -31.117188 79.335938 -31.117188 Z M 79.335938 -31.117188 "/></g></g></g><g fill="rgb(100%, 78.819275%, 8.239746%)" fill-opacity="1"><g transform="translate(1541.318086, 468.211259)"><g><path d="M 15.226562 -147.199219 L 57.820312 -147.199219 L 57.820312 -175.226562 L 15.226562 -175.226562 Z M 15.226562 0 L 57.820312 0 L 57.820312 -129.984375 L 15.226562 -129.984375 Z M 15.226562 0 "/></g></g></g><g fill="rgb(100%, 78.819275%, 8.239746%)" fill-opacity="1"><g transform="translate(1621.144743, 468.211259)"><g><path d="M 15.226562 0 L 57.929688 0 L 57.929688 -175.226562 L 15.226562 -175.226562 Z M 15.226562 0 "/></g></g></g><g fill="rgb(100%, 78.819275%, 8.239746%)" fill-opacity="1"><g transform="translate(1701.081721, 468.211259)"><g><path d="M 73.597656 -30.125 C 53.847656 -30.125 47.667969 -43.476562 48.21875 -55.613281 L 130.976562 -55.613281 C 132.082031 -63.886719 132.300781 -66.316406 132.300781 -70.066406 C 132.300781 -112.328125 103.171875 -132.523438 70.621094 -132.523438 C 33.433594 -132.523438 5.628906 -107.144531 5.628906 -66.09375 C 5.628906 -18.316406 36.746094 2.539062 75.695312 2.539062 C 100.851562 2.539062 119.058594 -5.957031 131.527344 -27.585938 L 98.425781 -46.125 C 91.363281 -32.992188 82.09375 -30.125 73.597656 -30.125 Z M 70.066406 -102.839844 C 84.964844 -102.839844 90.703125 -93.238281 90.921875 -80.992188 L 48.882812 -80.992188 C 49.542969 -92.910156 54.730469 -102.839844 70.066406 -102.839844 Z M 70.066406 -102.839844 "/></g></g></g><g fill="rgb(100%, 78.819275%, 8.239746%)" fill-opacity="1"><g transform="translate(1846.452077, 468.211259)"><g/></g></g><g fill="rgb(100%, 78.819275%, 8.239746%)" fill-opacity="1"><g transform="translate(1913.58925, 468.211259)"><g><path d="M 136.714844 0 L 191.445312 0 L 120.714844 -101.957031 L 188.355469 -175.226562 L 132.632812 -175.226562 L 63.007812 -93.238281 L 63.007812 -175.226562 L 19.089844 -175.226562 L 19.089844 0 L 63.007812 0 L 63.007812 -39.390625 L 91.585938 -70.289062 Z M 136.714844 0 "/></g></g></g><g fill="rgb(100%, 78.819275%, 8.239746%)" fill-opacity="1"><g transform="translate(2113.248361, 468.211259)"><g><path d="M 15.226562 -147.199219 L 57.820312 -147.199219 L 57.820312 -175.226562 L 15.226562 -175.226562 Z M 15.226562 0 L 57.820312 0 L 57.820312 -129.984375 L 15.226562 -129.984375 Z M 15.226562 0 "/></g></g></g><g fill="rgb(100%, 78.819275%, 8.239746%)" fill-opacity="1"><g transform="translate(2193.075018, 468.211259)"><g><path d="M 15.226562 0 L 57.820312 0 L 57.820312 -68.632812 C 57.820312 -90.480469 67.53125 -98.535156 80.992188 -98.535156 C 93.570312 -98.535156 101.734375 -91.695312 101.734375 -74.261719 L 101.734375 0 L 143.886719 0 L 143.886719 -84.742188 C 143.886719 -114.644531 125.679688 -132.523438 98.867188 -132.523438 C 79.558594 -132.523438 65.765625 -124.355469 58.480469 -114.976562 L 57.046875 -114.976562 L 57.046875 -129.984375 L 15.226562 -129.984375 Z M 15.226562 0 "/></g></g></g><g fill="rgb(100%, 78.819275%, 8.239746%)" fill-opacity="1"><g transform="translate(2356.21063, 468.211259)"><g><path d="M 68.855469 47.777344 C 96.109375 47.777344 134.617188 37.074219 134.617188 -11.476562 L 134.617188 -129.984375 L 92.136719 -129.984375 L 92.136719 -115.859375 L 90.703125 -115.859375 C 84.191406 -126.230469 71.722656 -132.523438 57.488281 -132.523438 C 31.117188 -132.523438 5.628906 -112 5.628906 -68.742188 C 5.628906 -26.8125 30.34375 -4.855469 58.59375 -4.855469 C 74.59375 -4.855469 86.066406 -11.585938 90.8125 -20.855469 L 92.246094 -20.855469 L 92.246094 -9.269531 C 92.246094 10.59375 79.445312 16.882812 66.976562 16.882812 C 57.15625 16.882812 47.890625 13.242188 39.0625 1.433594 L 5.847656 17.984375 C 18.207031 41.820312 48.550781 47.777344 68.855469 47.777344 Z M 71.945312 -36.523438 C 57.597656 -36.523438 48.660156 -47.449219 48.660156 -67.972656 C 48.660156 -88.824219 57.710938 -99.53125 71.722656 -99.53125 C 86.289062 -99.53125 95.445312 -88.054688 95.445312 -67.972656 C 95.445312 -46.675781 86.066406 -36.523438 71.945312 -36.523438 Z M 71.945312 -36.523438 "/></g></g></g><path fill="rgb(100%, 78.819275%, 8.239746%)" d="M 2016.347656 136.644531 C 2014.875 136.777344 2013.289062 137.234375 2011.859375 137.941406 C 2011.285156 138.230469 2010.675781 138.59375 2009.488281 139.375 C 2008.152344 140.253906 2006.050781 142.679688 2005.269531 144.285156 C 2004.980469 144.859375 2004.675781 145.492188 2004.582031 145.679688 C 2004.464844 145.871094 2004.21875 146.695312 2004.007812 147.496094 C 2002.382812 153.667969 2004.980469 160.222656 2010.425781 163.683594 C 2011.34375 164.273438 2012.621094 164.925781 2012.851562 164.925781 C 2012.945312 164.925781 2013.308594 165.039062 2013.632812 165.191406 C 2013.980469 165.324219 2014.476562 165.535156 2014.78125 165.648438 C 2015.371094 165.898438 2015.410156 166.109375 2015.027344 167.253906 C 2014.875 167.714844 2014.703125 168.382812 2014.628906 168.746094 C 2014.496094 169.511719 2013.882812 172.011719 2013.460938 173.425781 C 2013.308594 173.941406 2013.117188 174.726562 2013.003906 175.148438 C 2012.773438 176.082031 2012.203125 178.167969 2011.6875 179.828125 C 2011.476562 180.515625 2011.132812 181.644531 2010.921875 182.351562 C 2010.710938 183.058594 2010.503906 183.726562 2010.425781 183.839844 C 2010.367188 183.9375 2010.195312 184.433594 2010.042969 184.929688 C 2009.910156 185.445312 2009.566406 186.441406 2009.28125 187.1875 C 2009.011719 187.910156 2008.707031 188.789062 2008.59375 189.136719 C 2008.496094 189.480469 2008.285156 189.996094 2008.132812 190.28125 C 2007.980469 190.566406 2007.847656 190.910156 2007.847656 191.046875 C 2007.847656 191.160156 2007.714844 191.503906 2007.558594 191.808594 C 2007.425781 192.097656 2007.121094 192.746094 2006.890625 193.242188 C 2005.402344 196.738281 2004.066406 199.414062 2002.726562 201.613281 C 2002.5 201.976562 2002.171875 202.53125 2002 202.855469 C 2001.828125 203.160156 2001.621094 203.464844 2001.5625 203.523438 C 2001.503906 203.582031 2001.199219 204 2000.875 204.480469 C 1998.507812 208.089844 1995.105469 211.339844 1992.144531 212.792969 C 1991.589844 213.078125 1990.980469 213.382812 1990.789062 213.480469 C 1990.597656 213.59375 1989.777344 213.863281 1988.972656 214.070312 C 1987.007812 214.605469 1984.179688 214.625 1982.25 214.148438 C 1980.472656 213.707031 1977.914062 212.734375 1976.902344 212.105469 C 1976.75 212.007812 1976.367188 211.796875 1976.042969 211.625 C 1975.355469 211.242188 1973.40625 209.984375 1973.273438 209.828125 C 1973.214844 209.773438 1972.871094 209.503906 1972.507812 209.257812 C 1971.589844 208.625 1968.460938 205.796875 1967.101562 204.382812 C 1964.675781 201.878906 1962.039062 198.671875 1959.195312 194.734375 C 1958.410156 193.664062 1956.023438 190.128906 1955.890625 189.859375 C 1955.832031 189.765625 1955.394531 189.058594 1954.914062 188.332031 C 1953.695312 186.460938 1953.273438 185.753906 1952.949219 185.066406 C 1952.816406 184.738281 1952.585938 184.394531 1952.472656 184.339844 C 1952.355469 184.261719 1952.261719 183.917969 1952.261719 183.574219 C 1952.261719 183.097656 1952.394531 182.847656 1952.757812 182.597656 C 1954.761719 181.300781 1956.175781 179.21875 1956.863281 176.597656 C 1957.648438 173.597656 1957.132812 170.753906 1955.277344 167.867188 C 1954.628906 166.875 1952.71875 165.132812 1951.648438 164.597656 C 1949.546875 163.566406 1949.242188 163.492188 1946.53125 163.492188 C 1943.816406 163.492188 1943.570312 163.546875 1941.371094 164.597656 C 1940.285156 165.132812 1937.742188 167.636719 1937.191406 168.746094 C 1936.101562 170.867188 1935.929688 171.59375 1935.929688 174 C 1935.929688 176.390625 1936.121094 177.152344 1937.152344 179.160156 C 1938.984375 182.675781 1943.722656 185.199219 1947.503906 184.683594 C 1949.070312 184.472656 1949.148438 184.511719 1949.375 185.886719 C 1949.472656 186.382812 1949.644531 187.28125 1949.757812 187.855469 C 1949.949219 188.90625 1950.523438 192.324219 1950.921875 194.828125 C 1951.039062 195.554688 1951.230469 196.855469 1951.324219 197.695312 C 1951.421875 198.535156 1951.628906 200.160156 1951.800781 201.328125 C 1952.183594 204.171875 1952.832031 213.039062 1952.832031 215.351562 C 1952.832031 217.777344 1952.144531 224.714844 1951.765625 226.070312 C 1950.734375 229.777344 1950.121094 231.175781 1948.765625 232.914062 C 1946.359375 235.988281 1942.5 236.867188 1937.171875 235.53125 C 1936.484375 235.359375 1935.660156 235.109375 1935.316406 234.957031 C 1934.992188 234.804688 1934.648438 234.671875 1934.554688 234.671875 C 1934.417969 234.671875 1931.804688 233.371094 1930.351562 232.570312 C 1929.550781 232.128906 1927.238281 230.582031 1926.378906 229.914062 C 1925.441406 229.1875 1925.402344 229.167969 1924.488281 228.480469 C 1921.890625 226.53125 1914.59375 219.421875 1913.445312 217.703125 C 1913.140625 217.226562 1913.140625 217.207031 1914.171875 216.058594 C 1915.566406 214.492188 1916.40625 212.792969 1916.828125 210.632812 C 1917.171875 208.929688 1917.171875 208.796875 1916.847656 207.097656 C 1916.121094 203.21875 1913.523438 200.121094 1909.855469 198.746094 C 1908.785156 198.324219 1908.289062 198.269531 1906.320312 198.269531 C 1904.371094 198.269531 1903.835938 198.34375 1902.789062 198.726562 C 1902.101562 198.976562 1901.410156 199.300781 1901.238281 199.453125 C 1901.085938 199.585938 1900.839844 199.703125 1900.707031 199.703125 C 1900.570312 199.703125 1899.769531 200.410156 1898.910156 201.269531 C 1896.351562 203.847656 1895.605469 205.816406 1895.777344 209.523438 C 1895.910156 212.351562 1896.578125 213.976562 1898.46875 216.078125 C 1901.105469 219 1904.773438 220.089844 1908.996094 219.210938 C 1909.625 219.078125 1910.238281 218.886719 1910.371094 218.792969 C 1910.484375 218.675781 1910.847656 218.523438 1911.171875 218.429688 C 1911.9375 218.21875 1912.070312 218.410156 1913.886719 221.8125 C 1914.265625 222.519531 1914.800781 223.492188 1915.070312 223.96875 C 1915.679688 225.078125 1920.933594 235.589844 1921.5625 236.964844 C 1922.023438 237.996094 1924.734375 244.128906 1925.210938 245.277344 C 1925.367188 245.582031 1925.652344 246.367188 1925.902344 246.996094 C 1926.128906 247.625 1926.433594 248.390625 1926.589844 248.714844 C 1926.835938 249.269531 1927.179688 250.1875 1927.714844 251.773438 C 1927.867188 252.195312 1928.210938 253.128906 1928.480469 253.875 C 1928.746094 254.601562 1929.089844 255.59375 1929.242188 256.074219 C 1929.949219 258.367188 1930.371094 259.722656 1930.675781 260.851562 C 1930.886719 261.539062 1931.152344 262.4375 1931.285156 262.855469 L 1931.535156 263.621094 L 2104.941406 263.621094 L 2105.398438 262.09375 C 2105.667969 261.25 2106.050781 259.953125 2106.257812 259.226562 C 2106.46875 258.480469 2106.8125 257.449219 2107.003906 256.933594 C 2107.195312 256.398438 2107.367188 255.84375 2107.367188 255.691406 C 2107.367188 255.539062 2107.480469 255.175781 2107.632812 254.90625 C 2107.769531 254.640625 2107.941406 254.160156 2108.015625 253.855469 C 2108.167969 253.246094 2108.226562 253.09375 2110.347656 247.664062 C 2111.148438 245.621094 2112.007812 243.460938 2112.277344 242.886719 C 2112.753906 241.835938 2113.058594 241.128906 2113.671875 239.734375 C 2114.242188 238.433594 2114.929688 236.964844 2115.945312 234.84375 C 2116.480469 233.714844 2116.996094 232.605469 2117.109375 232.359375 C 2117.203125 232.109375 2117.375 231.765625 2117.492188 231.613281 C 2117.585938 231.460938 2117.757812 231.117188 2117.871094 230.847656 C 2117.96875 230.582031 2118.140625 230.238281 2118.253906 230.085938 C 2118.351562 229.933594 2118.542969 229.589844 2118.636719 229.320312 C 2118.90625 228.671875 2122.113281 222.632812 2122.953125 221.199219 C 2123.203125 220.777344 2123.488281 220.226562 2123.601562 219.957031 C 2123.71875 219.691406 2124.023438 219.210938 2124.292969 218.867188 C 2124.769531 218.238281 2125.167969 218.199219 2125.992188 218.734375 C 2126.601562 219.117188 2128.875 219.574219 2130.195312 219.574219 C 2132.199219 219.574219 2134.492188 218.867188 2136.210938 217.703125 C 2137.453125 216.878906 2139.113281 214.949219 2139.707031 213.652344 C 2140.011719 212.964844 2140.355469 212.199219 2140.46875 211.949219 C 2140.777344 211.339844 2140.777344 206.410156 2140.46875 205.796875 C 2140.355469 205.550781 2139.972656 204.726562 2139.648438 204 C 2139.171875 202.96875 2138.675781 202.320312 2137.507812 201.171875 C 2136.6875 200.371094 2135.90625 199.703125 2135.789062 199.703125 C 2135.675781 199.703125 2135.425781 199.585938 2135.273438 199.453125 C 2135.101562 199.320312 2134.453125 198.996094 2133.824219 198.746094 C 2132.808594 198.324219 2132.390625 198.269531 2130.195312 198.269531 C 2127.902344 198.269531 2127.613281 198.308594 2126.375 198.824219 C 2123.601562 199.949219 2122.324219 201.097656 2120.507812 204.097656 C 2120.011719 204.917969 2119.402344 207.480469 2119.402344 208.757812 C 2119.402344 210.117188 2119.9375 212.371094 2120.566406 213.652344 C 2120.796875 214.128906 2121.484375 215.121094 2122.09375 215.867188 L 2123.183594 217.242188 L 2122.800781 217.875 C 2122.4375 218.484375 2115.886719 225.136719 2114.433594 226.378906 C 2111.742188 228.671875 2107.863281 231.539062 2106.125 232.492188 C 2100.222656 235.742188 2095.792969 236.753906 2091.988281 235.722656 C 2087.808594 234.59375 2085.265625 230.640625 2084.347656 223.777344 C 2083.757812 219.382812 2083.605469 215.601562 2083.832031 211.703125 C 2084.367188 203.332031 2084.464844 202.015625 2084.730469 200.5625 C 2084.863281 199.722656 2085.054688 198.382812 2085.113281 197.601562 C 2085.191406 196.816406 2085.363281 195.652344 2085.496094 195.019531 C 2085.628906 194.390625 2085.800781 193.320312 2085.878906 192.632812 C 2085.933594 191.945312 2086.105469 190.910156 2086.257812 190.339844 C 2086.394531 189.765625 2086.566406 188.828125 2086.640625 188.253906 C 2086.792969 186.917969 2087.253906 185.160156 2087.5 184.910156 C 2087.617188 184.796875 2088.265625 184.738281 2088.992188 184.757812 C 2091.1875 184.875 2094.035156 183.957031 2095.90625 182.542969 C 2096.957031 181.738281 2098.253906 180.289062 2098.714844 179.410156 C 2100.011719 176.867188 2100.011719 176.847656 2100.011719 174 C 2099.992188 171.152344 2100.050781 171.324219 2098.808594 168.765625 C 2097.53125 166.148438 2094.035156 163.738281 2090.996094 163.394531 C 2089.203125 163.203125 2087.023438 163.433594 2085.667969 163.949219 C 2084.65625 164.332031 2083.355469 165.058594 2082.992188 165.402344 C 2082.859375 165.515625 2082.515625 165.839844 2082.191406 166.109375 C 2080.777344 167.292969 2079.476562 169.527344 2079 171.535156 C 2078.332031 174.421875 2078.808594 176.980469 2080.566406 180.058594 C 2080.910156 180.667969 2082.765625 182.503906 2083.335938 182.808594 C 2084.042969 183.171875 2084.347656 183.785156 2084.042969 184.148438 C 2083.929688 184.300781 2083.679688 184.683594 2083.507812 184.988281 C 2082.878906 186.132812 2081.867188 187.777344 2081.253906 188.65625 C 2080.910156 189.152344 2080.625 189.613281 2080.625 189.667969 C 2080.625 189.765625 2078.523438 192.878906 2077.492188 194.3125 C 2076.804688 195.269531 2075.351562 197.21875 2075.140625 197.503906 C 2071.074219 202.625 2067.710938 206.179688 2064.675781 208.585938 C 2062.515625 210.308594 2061.597656 210.976562 2061.410156 210.976562 C 2061.332031 210.976562 2061.121094 211.089844 2060.96875 211.242188 C 2060.546875 211.625 2057.777344 213.078125 2057.472656 213.078125 C 2057.339844 213.078125 2056.976562 213.210938 2056.652344 213.382812 C 2056.097656 213.691406 2054.855469 213.996094 2052.449219 214.433594 C 2050.863281 214.722656 2047.578125 214.28125 2045.953125 213.554688 C 2042.460938 212.027344 2039.996094 210.097656 2037.472656 206.964844 C 2034.972656 203.847656 2033.40625 201.308594 2031.265625 196.929688 C 2029.910156 194.140625 2029.738281 193.796875 2029.050781 192.058594 C 2028.820312 191.484375 2028.457031 190.644531 2028.265625 190.1875 C 2028.074219 189.746094 2027.902344 189.289062 2027.902344 189.191406 C 2027.902344 189.097656 2027.808594 188.789062 2027.695312 188.484375 C 2026.988281 186.765625 2025.574219 182.542969 2024.941406 180.304688 C 2024.789062 179.773438 2024.503906 178.738281 2024.292969 178.011719 C 2023.089844 173.808594 2022.726562 172.472656 2022.058594 169.511719 C 2021.90625 168.820312 2021.636719 167.808594 2021.484375 167.253906 C 2021.3125 166.699219 2021.21875 166.128906 2021.277344 165.992188 C 2021.332031 165.859375 2021.925781 165.554688 2022.59375 165.324219 C 2026.144531 164.0625 2028.726562 162.097656 2030.617188 159.171875 C 2031.628906 157.625 2032.066406 156.554688 2032.601562 154.414062 C 2033.15625 152.179688 2033.175781 150.476562 2032.679688 148.320312 C 2032.03125 145.605469 2031.265625 143.941406 2029.792969 142.089844 C 2027.902344 139.699219 2025.785156 138.210938 2022.707031 137.121094 C 2021.945312 136.851562 2018.714844 136.414062 2018.066406 136.488281 C 2017.972656 136.488281 2017.1875 136.566406 2016.347656 136.644531 Z M 2016.347656 136.644531 " fill-opacity="1" fill-rule="nonzero"/><path fill="rgb(100%, 78.819275%, 8.239746%)" d="M 1931.632812 271.722656 C 1931.34375 272.296875 1931.363281 286.113281 1931.667969 286.417969 C 1931.992188 286.742188 2104.519531 286.742188 2104.84375 286.417969 C 2105.015625 286.246094 2105.074219 284.355469 2105.074219 279.078125 C 2105.074219 272.871094 2105.035156 271.914062 2104.769531 271.664062 C 2104.5 271.378906 2096.363281 271.359375 2018.160156 271.359375 C 1933.007812 271.359375 1931.839844 271.359375 1931.632812 271.722656 Z M 1931.632812 271.722656 " fill-opacity="1" fill-rule="nonzero"/></svg>