<svg xmlns="http://www.w3.org/2000/svg" xmlns:xlink="http://www.w3.org/1999/xlink" width="4032" zoomAndPan="magnify" viewBox="0 0 3024 647.999998" height="864" preserveAspectRatio="xMidYMid meet" version="1.0"><defs><g/></defs><g fill="rgb(6.669617%, 6.669617%, 6.669617%)" fill-opacity="1"><g transform="translate(507.053024, 415.172117)"><g><path d="M 177.140625 0.222656 L 141.109375 -64.03125 C 161.414062 -72.730469 172.902344 -91.25 172.902344 -116.792969 C 172.902344 -152.378906 150.480469 -177.140625 111.4375 -177.140625 L 19.074219 -177.140625 L 19.074219 0 L 63.25 0 L 63.25 -58.453125 L 96.714844 -58.453125 L 126.386719 0.222656 Z M 63.25 -139.882812 L 103.074219 -139.882812 C 121.253906 -139.882812 128.953125 -132.296875 128.953125 -118.132812 C 128.953125 -104.632812 121.8125 -95.710938 103.074219 -95.710938 L 63.25 -95.710938 Z M 63.25 -139.882812 "/></g></g></g><g fill="rgb(6.669617%, 6.669617%, 6.669617%)" fill-opacity="1"><g transform="translate(697.518606, 415.172117)"><g><path d="M 138.210938 0 L 193.539062 0 L 122.035156 -103.074219 L 190.417969 -177.140625 L 134.082031 -177.140625 L 63.695312 -94.261719 L 63.695312 -177.140625 L 19.296875 -177.140625 L 19.296875 0 L 63.695312 0 L 63.695312 -39.824219 L 92.585938 -71.058594 Z M 138.210938 0 "/></g></g></g><g fill="rgb(6.669617%, 6.669617%, 6.669617%)" fill-opacity="1"><g transform="translate(899.362334, 415.172117)"><g/></g></g><g fill="rgb(6.669617%, 6.669617%, 6.669617%)" fill-opacity="1"><g transform="translate(967.234073, 415.172117)"><g><path d="M 163.867188 -177.140625 L 126.386719 -59.679688 L 88.90625 -177.140625 L 19.296875 -177.140625 L 19.296875 0 L 63.695312 0 L 63.695312 -132.074219 L 64.921875 -132.074219 L 107.199219 0 L 145.460938 0 L 187.851562 -132.074219 L 189.078125 -132.074219 L 189.078125 0 L 233.363281 0 L 233.363281 -177.140625 Z M 163.867188 -177.140625 "/></g></g></g><g fill="rgb(6.669617%, 6.669617%, 6.669617%)" fill-opacity="1"><g transform="translate(1226.74935, 415.172117)"><g><path d="M 72.953125 2.789062 C 111.105469 2.789062 139.773438 -20.636719 139.773438 -65.257812 C 139.773438 -110.546875 111.105469 -133.972656 72.953125 -133.972656 C 34.914062 -133.972656 5.6875 -110.433594 5.6875 -65.257812 C 5.6875 -20.636719 34.914062 2.789062 72.953125 2.789062 Z M 73.066406 -31.570312 C 59.234375 -31.570312 48.300781 -40.382812 48.300781 -65.257812 C 48.300781 -90.691406 59.234375 -99.726562 73.066406 -99.726562 C 86.898438 -99.726562 97.828125 -90.691406 97.828125 -65.257812 C 97.828125 -40.382812 86.898438 -31.570312 73.066406 -31.570312 Z M 73.066406 -31.570312 "/></g></g></g><g fill="rgb(6.669617%, 6.669617%, 6.669617%)" fill-opacity="1"><g transform="translate(1379.287807, 415.172117)"><g><path d="M 94.929688 2.789062 C 127.390625 2.789062 148.808594 -24.207031 148.808594 -65.703125 C 148.808594 -106.867188 127.726562 -133.972656 95.820312 -133.972656 C 76.636719 -133.972656 65.925781 -126.945312 59.121094 -118.578125 L 58.5625 -118.578125 L 58.5625 -177.140625 L 15.394531 -177.140625 L 15.394531 0 L 57.449219 0 L 57.449219 -12.828125 L 58.230469 -12.828125 C 63.695312 -5.578125 74.292969 2.789062 94.929688 2.789062 Z M 80.203125 -31.457031 C 65.925781 -31.457031 56 -43.726562 56 -66.148438 C 56 -86.898438 65.925781 -99.613281 80.203125 -99.613281 C 95.597656 -99.613281 105.304688 -89.015625 105.304688 -66.148438 C 105.304688 -41.609375 95.597656 -31.457031 80.203125 -31.457031 Z M 80.203125 -31.457031 "/></g></g></g><g fill="rgb(6.669617%, 6.669617%, 6.669617%)" fill-opacity="1"><g transform="translate(1541.642657, 415.172117)"><g><path d="M 15.394531 -148.808594 L 58.453125 -148.808594 L 58.453125 -177.140625 L 15.394531 -177.140625 Z M 15.394531 0 L 58.453125 0 L 58.453125 -131.40625 L 15.394531 -131.40625 Z M 15.394531 0 "/></g></g></g><g fill="rgb(6.669617%, 6.669617%, 6.669617%)" fill-opacity="1"><g transform="translate(1622.342658, 415.172117)"><g><path d="M 15.394531 0 L 58.5625 0 L 58.5625 -177.140625 L 15.394531 -177.140625 Z M 15.394531 0 "/></g></g></g><g fill="rgb(6.669617%, 6.669617%, 6.669617%)" fill-opacity="1"><g transform="translate(1703.154259, 415.172117)"><g><path d="M 74.402344 -30.453125 C 54.4375 -30.453125 48.191406 -43.949219 48.746094 -56.222656 L 132.410156 -56.222656 C 133.527344 -64.585938 133.75 -67.042969 133.75 -70.835938 C 133.75 -113.558594 104.300781 -133.972656 71.390625 -133.972656 C 33.800781 -133.972656 5.6875 -108.316406 5.6875 -66.820312 C 5.6875 -18.515625 37.144531 2.566406 76.523438 2.566406 C 101.957031 2.566406 120.363281 -6.023438 132.96875 -27.886719 L 99.503906 -46.628906 C 92.363281 -33.355469 82.992188 -30.453125 74.402344 -30.453125 Z M 70.835938 -103.964844 C 85.894531 -103.964844 91.695312 -94.261719 91.917969 -81.878906 L 49.417969 -81.878906 C 50.085938 -93.925781 55.328125 -103.964844 70.835938 -103.964844 Z M 70.835938 -103.964844 "/></g></g></g><g fill="rgb(6.669617%, 6.669617%, 6.669617%)" fill-opacity="1"><g transform="translate(1850.115255, 415.172117)"><g/></g></g><g fill="rgb(6.669617%, 6.669617%, 6.669617%)" fill-opacity="1"><g transform="translate(1917.986962, 415.172117)"><g><path d="M 138.210938 0 L 193.539062 0 L 122.035156 -103.074219 L 190.417969 -177.140625 L 134.082031 -177.140625 L 63.695312 -94.261719 L 63.695312 -177.140625 L 19.296875 -177.140625 L 19.296875 0 L 63.695312 0 L 63.695312 -39.824219 L 92.585938 -71.058594 Z M 138.210938 0 "/></g></g></g><g fill="rgb(6.669617%, 6.669617%, 6.669617%)" fill-opacity="1"><g transform="translate(2119.830721, 415.172117)"><g><path d="M 15.394531 -148.808594 L 58.453125 -148.808594 L 58.453125 -177.140625 L 15.394531 -177.140625 Z M 15.394531 0 L 58.453125 0 L 58.453125 -131.40625 L 15.394531 -131.40625 Z M 15.394531 0 "/></g></g></g><g fill="rgb(6.669617%, 6.669617%, 6.669617%)" fill-opacity="1"><g transform="translate(2200.530722, 415.172117)"><g><path d="M 15.394531 0 L 58.453125 0 L 58.453125 -69.382812 C 58.453125 -91.472656 68.269531 -99.613281 81.878906 -99.613281 C 94.59375 -99.613281 102.847656 -92.699219 102.847656 -75.074219 L 102.847656 0 L 145.460938 0 L 145.460938 -85.671875 C 145.460938 -115.902344 127.054688 -133.972656 99.949219 -133.972656 C 80.429688 -133.972656 66.484375 -125.71875 59.121094 -116.234375 L 57.671875 -116.234375 L 57.671875 -131.40625 L 15.394531 -131.40625 Z M 15.394531 0 "/></g></g></g><g fill="rgb(6.669617%, 6.669617%, 6.669617%)" fill-opacity="1"><g transform="translate(2365.451258, 415.172117)"><g><path d="M 69.609375 48.300781 C 97.160156 48.300781 136.089844 37.480469 136.089844 -11.601562 L 136.089844 -131.40625 L 93.144531 -131.40625 L 93.144531 -117.128906 L 91.695312 -117.128906 C 85.113281 -127.613281 72.507812 -133.972656 58.117188 -133.972656 C 31.457031 -133.972656 5.6875 -113.222656 5.6875 -69.496094 C 5.6875 -27.105469 30.675781 -4.910156 59.234375 -4.910156 C 75.40625 -4.910156 87.007812 -11.710938 91.804688 -21.082031 L 93.257812 -21.082031 L 93.257812 -9.371094 C 93.257812 10.707031 80.316406 17.066406 67.710938 17.066406 C 57.78125 17.066406 48.414062 13.386719 39.488281 1.449219 L 5.914062 18.183594 C 18.40625 42.277344 49.082031 48.300781 69.609375 48.300781 Z M 72.730469 -36.921875 C 58.230469 -36.921875 49.195312 -47.964844 49.195312 -68.714844 C 49.195312 -89.796875 58.339844 -100.617188 72.507812 -100.617188 C 87.230469 -100.617188 96.492188 -89.015625 96.492188 -68.714844 C 96.492188 -47.1875 87.007812 -36.921875 72.730469 -36.921875 Z M 72.730469 -36.921875 "/></g></g></g><path fill="rgb(6.669617%, 6.669617%, 6.669617%)" d="M 2021.078125 72.972656 C 2019.617188 73.105469 2018.039062 73.558594 2016.617188 74.261719 C 2016.046875 74.546875 2015.441406 74.910156 2014.265625 75.6875 C 2012.9375 76.5625 2010.847656 78.976562 2010.070312 80.570312 C 2009.785156 81.140625 2009.484375 81.769531 2009.386719 81.960938 C 2009.273438 82.148438 2009.027344 82.964844 2008.820312 83.765625 C 2007.207031 89.902344 2009.785156 96.417969 2015.195312 99.859375 C 2016.105469 100.449219 2017.375 101.09375 2017.605469 101.09375 C 2017.699219 101.09375 2018.058594 101.207031 2018.382812 101.359375 C 2018.722656 101.492188 2019.21875 101.703125 2019.519531 101.816406 C 2020.109375 102.0625 2020.148438 102.273438 2019.765625 103.414062 C 2019.617188 103.867188 2019.445312 104.535156 2019.367188 104.894531 C 2019.234375 105.65625 2018.628906 108.144531 2018.210938 109.550781 C 2018.058594 110.0625 2017.871094 110.84375 2017.757812 111.261719 C 2017.527344 112.191406 2016.960938 114.261719 2016.445312 115.914062 C 2016.238281 116.601562 2015.894531 117.722656 2015.6875 118.425781 C 2015.480469 119.128906 2015.269531 119.792969 2015.195312 119.90625 C 2015.136719 120 2014.964844 120.496094 2014.816406 120.988281 C 2014.683594 121.503906 2014.339844 122.492188 2014.054688 123.230469 C 2013.789062 123.953125 2013.488281 124.828125 2013.371094 125.167969 C 2013.277344 125.511719 2013.070312 126.023438 2012.917969 126.308594 C 2012.765625 126.59375 2012.632812 126.9375 2012.632812 127.070312 C 2012.632812 127.183594 2012.5 127.527344 2012.347656 127.828125 C 2012.214844 128.113281 2011.910156 128.761719 2011.683594 129.253906 C 2010.203125 132.730469 2008.875 135.394531 2007.546875 137.578125 C 2007.320312 137.9375 2006.996094 138.488281 2006.824219 138.8125 C 2006.65625 139.117188 2006.445312 139.421875 2006.390625 139.476562 C 2006.332031 139.535156 2006.027344 139.953125 2005.707031 140.429688 C 2003.355469 144.019531 1999.976562 147.25 1997.035156 148.695312 C 1996.484375 148.980469 1995.878906 149.28125 1995.6875 149.378906 C 1995.496094 149.492188 1994.683594 149.757812 1993.882812 149.96875 C 1991.929688 150.5 1989.121094 150.519531 1987.207031 150.042969 C 1985.441406 149.605469 1982.898438 148.636719 1981.890625 148.011719 C 1981.742188 147.914062 1981.359375 147.707031 1981.039062 147.535156 C 1980.355469 147.15625 1978.417969 145.902344 1978.285156 145.75 C 1978.230469 145.691406 1977.886719 145.425781 1977.527344 145.179688 C 1976.617188 144.550781 1973.503906 141.738281 1972.15625 140.332031 C 1969.746094 137.84375 1967.128906 134.652344 1964.300781 130.738281 C 1963.523438 129.671875 1961.152344 126.15625 1961.019531 125.890625 C 1960.960938 125.796875 1960.527344 125.09375 1960.050781 124.371094 C 1958.835938 122.507812 1958.417969 121.804688 1958.097656 121.121094 C 1957.964844 120.800781 1957.734375 120.457031 1957.621094 120.398438 C 1957.507812 120.324219 1957.414062 119.980469 1957.414062 119.640625 C 1957.414062 119.164062 1957.546875 118.917969 1957.90625 118.671875 C 1959.898438 117.378906 1961.304688 115.308594 1961.988281 112.703125 C 1962.765625 109.722656 1962.253906 106.890625 1960.410156 104.019531 C 1959.765625 103.03125 1957.867188 101.304688 1956.804688 100.769531 C 1954.71875 99.746094 1954.414062 99.667969 1951.71875 99.667969 C 1949.027344 99.667969 1948.78125 99.726562 1946.597656 100.769531 C 1945.515625 101.304688 1942.992188 103.792969 1942.441406 104.894531 C 1941.359375 107.003906 1941.1875 107.726562 1941.1875 110.121094 C 1941.1875 112.496094 1941.378906 113.253906 1942.402344 115.25 C 1944.226562 118.746094 1948.929688 121.253906 1952.6875 120.742188 C 1954.246094 120.53125 1954.320312 120.570312 1954.546875 121.9375 C 1954.644531 122.433594 1954.8125 123.328125 1954.925781 123.894531 C 1955.117188 124.941406 1955.6875 128.34375 1956.085938 130.832031 C 1956.199219 131.554688 1956.390625 132.847656 1956.484375 133.683594 C 1956.578125 134.519531 1956.789062 136.132812 1956.957031 137.292969 C 1957.335938 140.125 1957.984375 148.941406 1957.984375 151.242188 C 1957.984375 153.652344 1957.300781 160.550781 1956.921875 161.902344 C 1955.894531 165.585938 1955.289062 166.972656 1953.941406 168.703125 C 1951.550781 171.761719 1947.71875 172.636719 1942.421875 171.304688 C 1941.738281 171.136719 1940.921875 170.886719 1940.582031 170.738281 C 1940.257812 170.585938 1939.917969 170.453125 1939.824219 170.453125 C 1939.691406 170.453125 1937.089844 169.160156 1935.648438 168.359375 C 1934.851562 167.925781 1932.554688 166.386719 1931.703125 165.71875 C 1930.773438 164.996094 1930.734375 164.980469 1929.824219 164.292969 C 1927.242188 162.355469 1919.992188 155.289062 1918.855469 153.578125 C 1918.550781 153.101562 1918.550781 153.082031 1919.574219 151.945312 C 1920.960938 150.386719 1921.796875 148.695312 1922.214844 146.546875 C 1922.554688 144.855469 1922.554688 144.722656 1922.234375 143.03125 C 1921.511719 139.175781 1918.929688 136.097656 1915.289062 134.726562 C 1914.226562 134.308594 1913.730469 134.253906 1911.777344 134.253906 C 1909.839844 134.253906 1909.308594 134.328125 1908.265625 134.707031 C 1907.582031 134.957031 1906.898438 135.277344 1906.730469 135.429688 C 1906.578125 135.5625 1906.332031 135.675781 1906.199219 135.675781 C 1906.066406 135.675781 1905.269531 136.378906 1904.414062 137.234375 C 1901.871094 139.800781 1901.132812 141.757812 1901.300781 145.445312 C 1901.433594 148.257812 1902.097656 149.871094 1903.976562 151.960938 C 1906.597656 154.871094 1910.238281 155.953125 1914.433594 155.078125 C 1915.058594 154.945312 1915.667969 154.753906 1915.800781 154.660156 C 1915.914062 154.546875 1916.273438 154.394531 1916.597656 154.300781 C 1917.355469 154.089844 1917.488281 154.28125 1919.292969 157.664062 C 1919.671875 158.367188 1920.203125 159.335938 1920.46875 159.808594 C 1921.074219 160.914062 1926.292969 171.363281 1926.917969 172.730469 C 1927.375 173.757812 1930.070312 179.855469 1930.542969 180.996094 C 1930.695312 181.300781 1930.980469 182.082031 1931.226562 182.707031 C 1931.453125 183.335938 1931.757812 184.09375 1931.910156 184.417969 C 1932.15625 184.96875 1932.5 185.882812 1933.03125 187.457031 C 1933.179688 187.875 1933.523438 188.808594 1933.789062 189.546875 C 1934.054688 190.269531 1934.394531 191.257812 1934.546875 191.734375 C 1935.25 194.015625 1935.667969 195.363281 1935.972656 196.484375 C 1936.179688 197.167969 1936.445312 198.0625 1936.578125 198.480469 L 1936.824219 199.238281 L 2109.085938 199.238281 L 2109.542969 197.71875 C 2109.808594 196.882812 2110.1875 195.589844 2110.394531 194.867188 C 2110.605469 194.128906 2110.945312 193.101562 2111.136719 192.589844 C 2111.324219 192.054688 2111.496094 191.503906 2111.496094 191.355469 C 2111.496094 191.203125 2111.609375 190.839844 2111.761719 190.574219 C 2111.894531 190.308594 2112.066406 189.832031 2112.140625 189.53125 C 2112.292969 188.921875 2112.351562 188.769531 2114.457031 183.371094 C 2115.253906 181.339844 2116.105469 179.191406 2116.371094 178.621094 C 2116.847656 177.578125 2117.152344 176.875 2117.757812 175.488281 C 2118.328125 174.195312 2119.011719 172.730469 2120.015625 170.621094 C 2120.546875 169.5 2121.058594 168.398438 2121.171875 168.152344 C 2121.269531 167.90625 2121.4375 167.5625 2121.554688 167.410156 C 2121.648438 167.257812 2121.820312 166.917969 2121.933594 166.652344 C 2122.027344 166.386719 2122.199219 166.042969 2122.3125 165.890625 C 2122.40625 165.738281 2122.597656 165.398438 2122.691406 165.128906 C 2122.957031 164.484375 2126.144531 158.480469 2126.980469 157.054688 C 2127.226562 156.636719 2127.511719 156.085938 2127.625 155.820312 C 2127.738281 155.554688 2128.042969 155.078125 2128.308594 154.738281 C 2128.78125 154.109375 2129.179688 154.070312 2129.996094 154.605469 C 2130.605469 154.984375 2132.863281 155.441406 2134.171875 155.441406 C 2136.164062 155.441406 2138.441406 154.738281 2140.148438 153.578125 C 2141.382812 152.761719 2143.035156 150.839844 2143.621094 149.550781 C 2143.925781 148.863281 2144.265625 148.105469 2144.378906 147.859375 C 2144.683594 147.25 2144.683594 142.347656 2144.378906 141.738281 C 2144.265625 141.492188 2143.886719 140.675781 2143.566406 139.953125 C 2143.089844 138.925781 2142.597656 138.28125 2141.441406 137.140625 C 2140.625 136.34375 2139.84375 135.675781 2139.730469 135.675781 C 2139.617188 135.675781 2139.371094 135.5625 2139.21875 135.429688 C 2139.046875 135.296875 2138.402344 134.976562 2137.777344 134.726562 C 2136.773438 134.308594 2136.355469 134.253906 2134.171875 134.253906 C 2131.894531 134.253906 2131.609375 134.289062 2130.375 134.804688 C 2127.625 135.925781 2126.355469 137.066406 2124.550781 140.046875 C 2124.058594 140.867188 2123.449219 143.410156 2123.449219 144.683594 C 2123.449219 146.035156 2123.980469 148.277344 2124.609375 149.550781 C 2124.835938 150.023438 2125.519531 151.011719 2126.125 151.753906 L 2127.207031 153.121094 L 2126.828125 153.75 C 2126.46875 154.355469 2119.960938 160.96875 2118.515625 162.203125 C 2115.839844 164.484375 2111.988281 167.335938 2110.261719 168.285156 C 2104.398438 171.515625 2099.996094 172.523438 2096.21875 171.496094 C 2092.066406 170.375 2089.542969 166.441406 2088.628906 159.621094 C 2088.042969 155.25 2087.890625 151.488281 2088.117188 147.609375 C 2088.648438 139.289062 2088.746094 137.976562 2089.011719 136.53125 C 2089.144531 135.695312 2089.332031 134.367188 2089.390625 133.585938 C 2089.464844 132.808594 2089.636719 131.648438 2089.769531 131.023438 C 2089.902344 130.394531 2090.074219 129.332031 2090.148438 128.648438 C 2090.207031 127.964844 2090.375 126.9375 2090.527344 126.367188 C 2090.660156 125.796875 2090.832031 124.867188 2090.90625 124.296875 C 2091.058594 122.964844 2091.515625 121.21875 2091.761719 120.96875 C 2091.875 120.855469 2092.519531 120.800781 2093.242188 120.816406 C 2095.421875 120.933594 2098.25 120.019531 2100.109375 118.613281 C 2101.152344 117.816406 2102.445312 116.371094 2102.898438 115.496094 C 2104.191406 112.96875 2104.191406 112.953125 2104.191406 110.121094 C 2104.171875 107.289062 2104.226562 107.460938 2102.996094 104.914062 C 2101.722656 102.308594 2098.25 99.914062 2095.234375 99.574219 C 2093.449219 99.382812 2091.285156 99.613281 2089.941406 100.125 C 2088.933594 100.503906 2087.644531 101.226562 2087.28125 101.570312 C 2087.148438 101.683594 2086.808594 102.007812 2086.484375 102.273438 C 2085.082031 103.449219 2083.792969 105.671875 2083.316406 107.667969 C 2082.652344 110.539062 2083.128906 113.085938 2084.875 116.144531 C 2085.214844 116.75 2087.054688 118.574219 2087.625 118.878906 C 2088.328125 119.242188 2088.628906 119.847656 2088.328125 120.210938 C 2088.210938 120.363281 2087.964844 120.742188 2087.796875 121.046875 C 2087.167969 122.1875 2086.164062 123.820312 2085.554688 124.695312 C 2085.214844 125.1875 2084.929688 125.644531 2084.929688 125.703125 C 2084.929688 125.796875 2082.84375 128.894531 2081.816406 130.320312 C 2081.136719 131.269531 2079.691406 133.207031 2079.484375 133.492188 C 2075.441406 138.585938 2072.101562 142.121094 2069.085938 144.511719 C 2066.941406 146.222656 2066.03125 146.890625 2065.839844 146.890625 C 2065.765625 146.890625 2065.554688 147.003906 2065.402344 147.15625 C 2064.988281 147.535156 2062.234375 148.980469 2061.929688 148.980469 C 2061.796875 148.980469 2061.4375 149.113281 2061.117188 149.28125 C 2060.566406 149.585938 2059.332031 149.890625 2056.941406 150.328125 C 2055.367188 150.613281 2052.101562 150.175781 2050.488281 149.453125 C 2047.015625 147.933594 2044.570312 146.015625 2042.0625 142.898438 C 2039.578125 139.800781 2038.023438 137.273438 2035.898438 132.921875 C 2034.550781 130.148438 2034.378906 129.804688 2033.695312 128.078125 C 2033.46875 127.507812 2033.109375 126.671875 2032.917969 126.214844 C 2032.726562 125.777344 2032.558594 125.320312 2032.558594 125.226562 C 2032.558594 125.132812 2032.460938 124.828125 2032.347656 124.523438 C 2031.644531 122.8125 2030.242188 118.613281 2029.617188 116.390625 C 2029.464844 115.859375 2029.179688 114.832031 2028.972656 114.109375 C 2027.773438 109.929688 2027.414062 108.601562 2026.75 105.65625 C 2026.597656 104.96875 2026.332031 103.964844 2026.179688 103.414062 C 2026.011719 102.859375 2025.914062 102.292969 2025.972656 102.15625 C 2026.03125 102.023438 2026.617188 101.722656 2027.28125 101.492188 C 2030.8125 100.238281 2033.375 98.28125 2035.25 95.375 C 2036.257812 93.835938 2036.695312 92.769531 2037.226562 90.644531 C 2037.777344 88.417969 2037.792969 86.730469 2037.300781 84.582031 C 2036.65625 81.882812 2035.898438 80.230469 2034.4375 78.386719 C 2032.558594 76.011719 2030.449219 74.527344 2027.394531 73.445312 C 2026.636719 73.179688 2023.429688 72.742188 2022.785156 72.820312 C 2022.691406 72.820312 2021.910156 72.894531 2021.078125 72.972656 Z M 2021.078125 72.972656 " fill-opacity="1" fill-rule="nonzero"/><path fill="rgb(6.669617%, 6.669617%, 6.669617%)" d="M 1936.917969 207.296875 C 1936.636719 207.867188 1936.652344 221.605469 1936.957031 221.910156 C 1937.28125 222.230469 2108.667969 222.230469 2108.992188 221.910156 C 2109.160156 221.738281 2109.21875 219.855469 2109.21875 214.613281 C 2109.21875 208.4375 2109.179688 207.484375 2108.914062 207.238281 C 2108.648438 206.953125 2100.566406 206.933594 2022.878906 206.933594 C 1938.285156 206.933594 1937.128906 206.933594 1936.917969 207.296875 Z M 1936.917969 207.296875 " fill-opacity="1" fill-rule="nonzero"/></svg>