<svg xmlns="http://www.w3.org/2000/svg" xmlns:xlink="http://www.w3.org/1999/xlink" width="4032" zoomAndPan="magnify" viewBox="0 0 3024 647.999998" height="864" preserveAspectRatio="xMidYMid meet" version="1.0"><defs><g/></defs><g fill="rgb(6.669617%, 6.669617%, 6.669617%)" fill-opacity="1"><g transform="translate(271.404011, 432.530519)"><g><path d="M 218.679688 0.277344 L 174.199219 -79.042969 C 199.261719 -89.785156 213.445312 -112.644531 213.445312 -144.179688 C 213.445312 -188.109375 185.769531 -218.679688 137.570312 -218.679688 L 23.546875 -218.679688 L 23.546875 0 L 78.082031 0 L 78.082031 -72.160156 L 119.394531 -72.160156 L 156.023438 0.277344 Z M 78.082031 -172.683594 L 127.242188 -172.683594 C 149.6875 -172.683594 159.191406 -163.320312 159.191406 -145.832031 C 159.191406 -129.167969 150.375 -118.152344 127.242188 -118.152344 L 78.082031 -118.152344 Z M 78.082031 -172.683594 "/></g></g></g><g fill="rgb(6.669617%, 6.669617%, 6.669617%)" fill-opacity="1"><g transform="translate(506.531679, 432.530519)"><g><path d="M 170.621094 0 L 238.921875 0 L 150.652344 -127.242188 L 235.066406 -218.679688 L 165.523438 -218.679688 L 78.632812 -116.363281 L 78.632812 -218.679688 L 23.824219 -218.679688 L 23.824219 0 L 78.632812 0 L 78.632812 -49.160156 L 114.296875 -87.71875 Z M 170.621094 0 "/></g></g></g><g fill="rgb(6.669617%, 6.669617%, 6.669617%)" fill-opacity="1"><g transform="translate(755.705545, 432.530519)"><g/></g></g><g fill="rgb(6.669617%, 6.669617%, 6.669617%)" fill-opacity="1"><g transform="translate(839.49246, 432.530519)"><g><path d="M 202.292969 -218.679688 L 156.023438 -73.671875 L 109.753906 -218.679688 L 23.824219 -218.679688 L 23.824219 0 L 78.632812 0 L 78.632812 -163.046875 L 80.144531 -163.046875 L 132.335938 0 L 179.570312 0 L 231.898438 -163.046875 L 233.414062 -163.046875 L 233.414062 0 L 288.085938 0 L 288.085938 -218.679688 Z M 202.292969 -218.679688 "/></g></g></g><g fill="rgb(6.669617%, 6.669617%, 6.669617%)" fill-opacity="1"><g transform="translate(1159.861219, 432.530519)"><g><path d="M 90.0625 3.441406 C 137.15625 3.441406 172.546875 -25.476562 172.546875 -80.558594 C 172.546875 -136.46875 137.15625 -165.386719 90.0625 -165.386719 C 43.101562 -165.386719 7.023438 -136.332031 7.023438 -80.558594 C 7.023438 -25.476562 43.101562 3.441406 90.0625 3.441406 Z M 90.199219 -38.972656 C 73.121094 -38.972656 59.628906 -49.851562 59.628906 -80.558594 C 59.628906 -111.957031 73.121094 -123.109375 90.199219 -123.109375 C 107.273438 -123.109375 120.769531 -111.957031 120.769531 -80.558594 C 120.769531 -49.851562 107.273438 -38.972656 90.199219 -38.972656 Z M 90.199219 -38.972656 "/></g></g></g><g fill="rgb(6.669617%, 6.669617%, 6.669617%)" fill-opacity="1"><g transform="translate(1348.168268, 432.530519)"><g><path d="M 117.1875 3.441406 C 157.261719 3.441406 183.703125 -29.882812 183.703125 -81.109375 C 183.703125 -131.925781 157.675781 -165.386719 118.289062 -165.386719 C 94.605469 -165.386719 81.386719 -156.710938 72.984375 -146.382812 L 72.296875 -146.382812 L 72.296875 -218.679688 L 19.003906 -218.679688 L 19.003906 0 L 70.917969 0 L 70.917969 -15.835938 L 71.882812 -15.835938 C 78.632812 -6.886719 91.714844 3.441406 117.1875 3.441406 Z M 99.011719 -38.832031 C 81.386719 -38.832031 69.128906 -53.980469 69.128906 -81.660156 C 69.128906 -107.273438 81.386719 -122.972656 99.011719 -122.972656 C 118.015625 -122.972656 129.996094 -109.890625 129.996094 -81.660156 C 129.996094 -51.363281 118.015625 -38.832031 99.011719 -38.832031 Z M 99.011719 -38.832031 "/></g></g></g><g fill="rgb(6.669617%, 6.669617%, 6.669617%)" fill-opacity="1"><g transform="translate(1548.593547, 432.530519)"><g><path d="M 19.003906 -183.703125 L 72.160156 -183.703125 L 72.160156 -218.679688 L 19.003906 -218.679688 Z M 19.003906 0 L 72.160156 0 L 72.160156 -162.21875 L 19.003906 -162.21875 Z M 19.003906 0 "/></g></g></g><g fill="rgb(6.669617%, 6.669617%, 6.669617%)" fill-opacity="1"><g transform="translate(1648.216812, 432.530519)"><g><path d="M 19.003906 0 L 72.296875 0 L 72.296875 -218.679688 L 19.003906 -218.679688 Z M 19.003906 0 "/></g></g></g><g fill="rgb(6.669617%, 6.669617%, 6.669617%)" fill-opacity="1"><g transform="translate(1747.977845, 432.530519)"><g><path d="M 91.851562 -37.59375 C 67.203125 -37.59375 59.488281 -54.257812 60.179688 -69.40625 L 163.460938 -69.40625 C 164.835938 -79.734375 165.113281 -82.761719 165.113281 -87.445312 C 165.113281 -140.1875 128.757812 -165.386719 88.132812 -165.386719 C 41.726562 -165.386719 7.023438 -133.714844 7.023438 -82.488281 C 7.023438 -22.859375 45.855469 3.167969 94.46875 3.167969 C 125.863281 3.167969 148.585938 -7.4375 164.148438 -34.425781 L 122.835938 -57.5625 C 114.023438 -41.175781 102.453125 -37.59375 91.851562 -37.59375 Z M 87.445312 -128.34375 C 106.035156 -128.34375 113.195312 -116.363281 113.472656 -101.078125 L 61.003906 -101.078125 C 61.832031 -115.949219 68.304688 -128.34375 87.445312 -128.34375 Z M 87.445312 -128.34375 "/></g></g></g><g fill="rgb(6.669617%, 6.669617%, 6.669617%)" fill-opacity="1"><g transform="translate(1929.39958, 432.530519)"><g/></g></g><g fill="rgb(6.669617%, 6.669617%, 6.669617%)" fill-opacity="1"><g transform="translate(2013.186457, 432.530519)"><g><path d="M 170.621094 0 L 238.921875 0 L 150.652344 -127.242188 L 235.066406 -218.679688 L 165.523438 -218.679688 L 78.632812 -116.363281 L 78.632812 -218.679688 L 23.824219 -218.679688 L 23.824219 0 L 78.632812 0 L 78.632812 -49.160156 L 114.296875 -87.71875 Z M 170.621094 0 "/></g></g></g><g fill="rgb(6.669617%, 6.669617%, 6.669617%)" fill-opacity="1"><g transform="translate(2262.36036, 432.530519)"><g><path d="M 19.003906 -183.703125 L 72.160156 -183.703125 L 72.160156 -218.679688 L 19.003906 -218.679688 Z M 19.003906 0 L 72.160156 0 L 72.160156 -162.21875 L 19.003906 -162.21875 Z M 19.003906 0 "/></g></g></g><g fill="rgb(6.669617%, 6.669617%, 6.669617%)" fill-opacity="1"><g transform="translate(2361.983624, 432.530519)"><g><path d="M 19.003906 0 L 72.160156 0 L 72.160156 -85.652344 C 72.160156 -112.921875 84.277344 -122.972656 101.078125 -122.972656 C 116.777344 -122.972656 126.964844 -114.433594 126.964844 -92.675781 L 126.964844 0 L 179.570312 0 L 179.570312 -105.757812 C 179.570312 -143.078125 156.847656 -165.386719 123.386719 -165.386719 C 99.289062 -165.386719 82.074219 -155.195312 72.984375 -143.492188 L 71.195312 -143.492188 L 71.195312 -162.21875 L 19.003906 -162.21875 Z M 19.003906 0 "/></g></g></g><g fill="rgb(6.669617%, 6.669617%, 6.669617%)" fill-opacity="1"><g transform="translate(2565.576214, 432.530519)"><g><path d="M 85.929688 59.628906 C 119.945312 59.628906 168.003906 46.269531 168.003906 -14.320312 L 168.003906 -162.21875 L 114.984375 -162.21875 L 114.984375 -144.59375 L 113.195312 -144.59375 C 105.070312 -157.539062 89.511719 -165.386719 71.746094 -165.386719 C 38.832031 -165.386719 7.023438 -139.773438 7.023438 -85.792969 C 7.023438 -33.464844 37.871094 -6.058594 73.121094 -6.058594 C 93.089844 -6.058594 107.410156 -14.460938 113.332031 -26.027344 L 115.125 -26.027344 L 115.125 -11.566406 C 115.125 13.21875 99.148438 21.070312 83.589844 21.070312 C 71.332031 21.070312 59.765625 16.523438 48.75 1.789062 L 7.296875 22.445312 C 22.722656 52.191406 60.589844 59.628906 85.929688 59.628906 Z M 89.785156 -45.582031 C 71.882812 -45.582031 60.730469 -59.214844 60.730469 -84.828125 C 60.730469 -110.855469 72.019531 -124.210938 89.511719 -124.210938 C 107.6875 -124.210938 119.117188 -109.890625 119.117188 -84.828125 C 119.117188 -58.25 107.410156 -45.582031 89.785156 -45.582031 Z M 89.785156 -45.582031 "/></g></g></g><path fill="rgb(6.669617%, 6.669617%, 6.669617%)" d="M 2140.449219 10.085938 C 2138.644531 10.25 2136.703125 10.8125 2134.945312 11.683594 C 2134.242188 12.035156 2133.492188 12.480469 2132.039062 13.441406 C 2130.402344 14.519531 2127.824219 17.5 2126.863281 19.46875 C 2126.511719 20.175781 2126.136719 20.949219 2126.019531 21.183594 C 2125.878906 21.417969 2125.574219 22.425781 2125.316406 23.410156 C 2123.324219 30.988281 2126.511719 39.035156 2133.1875 43.28125 C 2134.3125 44.007812 2135.882812 44.804688 2136.164062 44.804688 C 2136.28125 44.804688 2136.726562 44.945312 2137.125 45.132812 C 2137.546875 45.296875 2138.152344 45.554688 2138.527344 45.695312 C 2139.253906 46 2139.300781 46.257812 2138.832031 47.667969 C 2138.644531 48.230469 2138.433594 49.050781 2138.339844 49.496094 C 2138.175781 50.433594 2137.429688 53.507812 2136.914062 55.242188 C 2136.726562 55.875 2136.492188 56.839844 2136.351562 57.355469 C 2136.070312 58.503906 2135.367188 61.0625 2134.734375 63.101562 C 2134.476562 63.945312 2134.054688 65.332031 2133.796875 66.199219 C 2133.539062 67.066406 2133.28125 67.886719 2133.1875 68.027344 C 2133.117188 68.144531 2132.90625 68.753906 2132.71875 69.363281 C 2132.554688 70 2132.132812 71.21875 2131.78125 72.132812 C 2131.453125 73.023438 2131.078125 74.101562 2130.9375 74.527344 C 2130.820312 74.949219 2130.5625 75.582031 2130.378906 75.933594 C 2130.191406 76.285156 2130.027344 76.707031 2130.027344 76.871094 C 2130.027344 77.011719 2129.863281 77.433594 2129.675781 77.808594 C 2129.511719 78.160156 2129.136719 78.960938 2128.855469 79.570312 C 2127.027344 83.863281 2125.386719 87.144531 2123.746094 89.84375 C 2123.464844 90.289062 2123.066406 90.96875 2122.859375 91.367188 C 2122.648438 91.742188 2122.390625 92.117188 2122.320312 92.1875 C 2122.25 92.257812 2121.875 92.777344 2121.476562 93.363281 C 2118.570312 97.796875 2114.402344 101.785156 2110.769531 103.566406 C 2110.089844 103.917969 2109.339844 104.292969 2109.105469 104.410156 C 2108.871094 104.550781 2107.867188 104.878906 2106.882812 105.136719 C 2104.46875 105.792969 2101 105.816406 2098.636719 105.230469 C 2096.457031 104.691406 2093.316406 103.496094 2092.078125 102.722656 C 2091.890625 102.605469 2091.421875 102.347656 2091.023438 102.136719 C 2090.179688 101.667969 2087.789062 100.117188 2087.625 99.929688 C 2087.554688 99.859375 2087.132812 99.53125 2086.6875 99.226562 C 2085.5625 98.453125 2081.722656 94.980469 2080.058594 93.246094 C 2077.085938 90.171875 2073.851562 86.230469 2070.363281 81.398438 C 2069.402344 80.085938 2066.472656 75.746094 2066.308594 75.417969 C 2066.238281 75.300781 2065.699219 74.433594 2065.113281 73.539062 C 2063.613281 71.242188 2063.097656 70.375 2062.703125 69.527344 C 2062.539062 69.128906 2062.257812 68.707031 2062.117188 68.636719 C 2061.976562 68.542969 2061.859375 68.121094 2061.859375 67.699219 C 2061.859375 67.113281 2062.023438 66.808594 2062.46875 66.503906 C 2064.925781 64.90625 2066.660156 62.351562 2067.503906 59.136719 C 2068.464844 55.453125 2067.832031 51.960938 2065.558594 48.417969 C 2064.761719 47.199219 2062.421875 45.0625 2061.109375 44.40625 C 2058.53125 43.140625 2058.15625 43.046875 2054.832031 43.046875 C 2051.503906 43.046875 2051.199219 43.117188 2048.503906 44.40625 C 2047.171875 45.0625 2044.054688 48.136719 2043.375 49.496094 C 2042.039062 52.101562 2041.828125 52.992188 2041.828125 55.945312 C 2041.828125 58.878906 2042.0625 59.816406 2043.328125 62.28125 C 2045.578125 66.597656 2051.386719 69.691406 2056.023438 69.058594 C 2057.945312 68.800781 2058.039062 68.847656 2058.320312 70.539062 C 2058.4375 71.148438 2058.648438 72.25 2058.789062 72.953125 C 2059.023438 74.242188 2059.726562 78.441406 2060.21875 81.515625 C 2060.359375 82.40625 2060.59375 84.003906 2060.710938 85.035156 C 2060.828125 86.066406 2061.085938 88.0625 2061.296875 89.492188 C 2061.765625 92.988281 2062.5625 103.871094 2062.5625 106.710938 C 2062.5625 109.6875 2061.71875 118.203125 2061.25 119.871094 C 2059.984375 124.421875 2059.234375 126.132812 2057.570312 128.265625 C 2054.621094 132.042969 2049.886719 133.125 2043.351562 131.480469 C 2042.507812 131.269531 2041.5 130.964844 2041.078125 130.777344 C 2040.679688 130.589844 2040.261719 130.425781 2040.144531 130.425781 C 2039.980469 130.425781 2036.769531 128.832031 2034.988281 127.84375 C 2034.003906 127.304688 2031.171875 125.40625 2030.117188 124.585938 C 2028.96875 123.691406 2028.921875 123.667969 2027.796875 122.824219 C 2024.613281 120.433594 2015.664062 111.707031 2014.257812 109.59375 C 2013.882812 109.007812 2013.882812 108.984375 2015.148438 107.578125 C 2016.859375 105.652344 2017.890625 103.566406 2018.402344 100.914062 C 2018.824219 98.828125 2018.824219 98.664062 2018.425781 96.574219 C 2017.539062 91.8125 2014.351562 88.015625 2009.855469 86.324219 C 2008.542969 85.808594 2007.933594 85.738281 2005.519531 85.738281 C 2003.132812 85.738281 2002.476562 85.832031 2001.1875 86.300781 C 2000.34375 86.605469 1999.5 87.003906 1999.289062 87.191406 C 1999.101562 87.355469 1998.796875 87.496094 1998.632812 87.496094 C 1998.46875 87.496094 1997.484375 88.367188 1996.429688 89.421875 C 1993.292969 92.589844 1992.378906 95.003906 1992.589844 99.554688 C 1992.753906 103.027344 1993.574219 105.019531 1995.890625 107.601562 C 1999.125 111.191406 2003.621094 112.527344 2008.800781 111.449219 C 2009.574219 111.285156 2010.324219 111.050781 2010.488281 110.933594 C 2010.628906 110.792969 2011.070312 110.605469 2011.46875 110.488281 C 2012.40625 110.226562 2012.570312 110.460938 2014.796875 114.636719 C 2015.265625 115.507812 2015.921875 116.703125 2016.25 117.289062 C 2017 118.648438 2023.441406 131.550781 2024.214844 133.242188 C 2024.777344 134.507812 2028.101562 142.035156 2028.6875 143.445312 C 2028.875 143.820312 2029.226562 144.78125 2029.53125 145.554688 C 2029.8125 146.328125 2030.1875 147.269531 2030.375 147.667969 C 2030.679688 148.347656 2031.101562 149.472656 2031.757812 151.421875 C 2031.945312 151.9375 2032.367188 153.085938 2032.695312 154 C 2033.023438 154.890625 2033.441406 156.113281 2033.628906 156.699219 C 2034.496094 159.511719 2035.011719 161.179688 2035.386719 162.5625 C 2035.644531 163.40625 2035.972656 164.507812 2036.136719 165.027344 L 2036.441406 165.964844 L 2249.097656 165.964844 L 2249.660156 164.085938 C 2249.988281 163.054688 2250.453125 161.460938 2250.710938 160.570312 C 2250.96875 159.652344 2251.390625 158.386719 2251.625 157.753906 C 2251.859375 157.097656 2252.070312 156.417969 2252.070312 156.230469 C 2252.070312 156.042969 2252.210938 155.59375 2252.398438 155.265625 C 2252.5625 154.9375 2252.773438 154.351562 2252.867188 153.976562 C 2253.054688 153.226562 2253.125 153.039062 2255.726562 146.375 C 2256.710938 143.867188 2257.761719 141.214844 2258.089844 140.511719 C 2258.675781 139.222656 2259.050781 138.355469 2259.800781 136.640625 C 2260.503906 135.046875 2261.347656 133.242188 2262.589844 130.636719 C 2263.246094 129.253906 2263.878906 127.890625 2264.019531 127.585938 C 2264.136719 127.28125 2264.347656 126.859375 2264.488281 126.671875 C 2264.605469 126.484375 2264.816406 126.0625 2264.957031 125.734375 C 2265.074219 125.40625 2265.28125 124.984375 2265.421875 124.796875 C 2265.539062 124.609375 2265.773438 124.1875 2265.890625 123.855469 C 2266.21875 123.058594 2270.15625 115.648438 2271.1875 113.886719 C 2271.492188 113.371094 2271.84375 112.691406 2271.984375 112.363281 C 2272.125 112.035156 2272.5 111.449219 2272.824219 111.027344 C 2273.410156 110.25 2273.902344 110.203125 2274.910156 110.863281 C 2275.660156 111.332031 2278.449219 111.894531 2280.066406 111.894531 C 2282.523438 111.894531 2285.335938 111.027344 2287.445312 109.59375 C 2288.964844 108.585938 2291.003906 106.21875 2291.730469 104.621094 C 2292.105469 103.777344 2292.527344 102.839844 2292.667969 102.535156 C 2293.042969 101.785156 2293.042969 95.730469 2292.667969 94.980469 C 2292.527344 94.675781 2292.058594 93.667969 2291.660156 92.777344 C 2291.074219 91.507812 2290.464844 90.710938 2289.035156 89.304688 C 2288.027344 88.320312 2287.070312 87.496094 2286.929688 87.496094 C 2286.789062 87.496094 2286.484375 87.355469 2286.296875 87.191406 C 2286.085938 87.027344 2285.289062 86.628906 2284.515625 86.324219 C 2283.273438 85.808594 2282.757812 85.738281 2280.066406 85.738281 C 2277.253906 85.738281 2276.902344 85.785156 2275.378906 86.417969 C 2271.984375 87.800781 2270.414062 89.210938 2268.1875 92.894531 C 2267.578125 93.902344 2266.828125 97.046875 2266.828125 98.617188 C 2266.828125 100.28125 2267.484375 103.050781 2268.257812 104.621094 C 2268.539062 105.207031 2269.382812 106.429688 2270.132812 107.34375 L 2271.46875 109.03125 L 2271 109.804688 C 2270.554688 110.558594 2262.519531 118.71875 2260.738281 120.246094 C 2257.4375 123.058594 2252.679688 126.578125 2250.546875 127.75 C 2243.308594 131.738281 2237.875 132.980469 2233.214844 131.714844 C 2228.082031 130.332031 2224.96875 125.476562 2223.84375 117.054688 C 2223.117188 111.660156 2222.929688 107.015625 2223.210938 102.230469 C 2223.867188 91.953125 2223.984375 90.335938 2224.3125 88.554688 C 2224.476562 87.519531 2224.710938 85.878906 2224.78125 84.917969 C 2224.875 83.957031 2225.085938 82.523438 2225.25 81.75 C 2225.414062 80.976562 2225.625 79.664062 2225.71875 78.820312 C 2225.789062 77.972656 2226 76.707031 2226.1875 76.003906 C 2226.351562 75.300781 2226.5625 74.148438 2226.65625 73.445312 C 2226.84375 71.804688 2227.40625 69.644531 2227.710938 69.339844 C 2227.847656 69.199219 2228.644531 69.128906 2229.535156 69.152344 C 2232.230469 69.292969 2235.71875 68.167969 2238.015625 66.433594 C 2239.304688 65.449219 2240.898438 63.664062 2241.460938 62.585938 C 2243.050781 59.464844 2243.050781 59.441406 2243.050781 55.945312 C 2243.027344 52.453125 2243.097656 52.664062 2241.578125 49.519531 C 2240.007812 46.304688 2235.71875 43.351562 2231.996094 42.929688 C 2229.792969 42.695312 2227.125 42.976562 2225.460938 43.609375 C 2224.21875 44.078125 2222.625 44.96875 2222.179688 45.390625 C 2222.015625 45.53125 2221.59375 45.929688 2221.195312 46.257812 C 2219.464844 47.714844 2217.871094 50.457031 2217.285156 52.921875 C 2216.464844 56.464844 2217.050781 59.605469 2219.207031 63.382812 C 2219.628906 64.132812 2221.898438 66.386719 2222.601562 66.761719 C 2223.46875 67.207031 2223.84375 67.957031 2223.46875 68.402344 C 2223.328125 68.589844 2223.023438 69.058594 2222.8125 69.433594 C 2222.039062 70.84375 2220.796875 72.859375 2220.050781 73.9375 C 2219.628906 74.550781 2219.277344 75.113281 2219.277344 75.183594 C 2219.277344 75.300781 2216.699219 79.125 2215.433594 80.882812 C 2214.589844 82.054688 2212.808594 84.449219 2212.554688 84.800781 C 2207.5625 91.085938 2203.441406 95.449219 2199.714844 98.40625 C 2197.070312 100.515625 2195.945312 101.335938 2195.710938 101.335938 C 2195.617188 101.335938 2195.359375 101.480469 2195.171875 101.667969 C 2194.65625 102.136719 2191.257812 103.917969 2190.882812 103.917969 C 2190.71875 103.917969 2190.277344 104.082031 2189.878906 104.292969 C 2189.199219 104.667969 2187.675781 105.042969 2184.722656 105.582031 C 2182.78125 105.933594 2178.75 105.394531 2176.757812 104.503906 C 2172.472656 102.628906 2169.449219 100.257812 2166.359375 96.410156 C 2163.289062 92.589844 2161.367188 89.46875 2158.746094 84.097656 C 2157.082031 80.671875 2156.871094 80.25 2156.027344 78.113281 C 2155.746094 77.410156 2155.300781 76.378906 2155.066406 75.816406 C 2154.832031 75.277344 2154.621094 74.714844 2154.621094 74.597656 C 2154.621094 74.480469 2154.503906 74.101562 2154.363281 73.726562 C 2153.496094 71.617188 2151.765625 66.433594 2150.992188 63.6875 C 2150.804688 63.03125 2150.453125 61.765625 2150.195312 60.875 C 2148.71875 55.710938 2148.273438 54.070312 2147.453125 50.433594 C 2147.265625 49.589844 2146.9375 48.347656 2146.75 47.667969 C 2146.539062 46.984375 2146.421875 46.28125 2146.492188 46.117188 C 2146.5625 45.953125 2147.289062 45.578125 2148.109375 45.296875 C 2152.46875 43.75 2155.628906 41.332031 2157.949219 37.742188 C 2159.191406 35.84375 2159.730469 34.53125 2160.382812 31.902344 C 2161.0625 29.160156 2161.085938 27.070312 2160.476562 24.417969 C 2159.683594 21.089844 2158.746094 19.046875 2156.941406 16.773438 C 2154.621094 13.839844 2152.023438 12.011719 2148.25 10.671875 C 2147.3125 10.34375 2143.355469 9.804688 2142.558594 9.898438 C 2142.441406 9.898438 2141.480469 9.992188 2140.449219 10.085938 Z M 2140.449219 10.085938 " fill-opacity="1" fill-rule="nonzero"/><path fill="rgb(6.669617%, 6.669617%, 6.669617%)" d="M 2036.558594 175.910156 C 2036.207031 176.613281 2036.230469 193.574219 2036.605469 193.949219 C 2037.003906 194.347656 2248.582031 194.347656 2248.980469 193.949219 C 2249.191406 193.738281 2249.261719 191.414062 2249.261719 184.941406 C 2249.261719 177.316406 2249.214844 176.144531 2248.886719 175.839844 C 2248.558594 175.488281 2238.578125 175.464844 2142.675781 175.464844 C 2038.246094 175.464844 2036.816406 175.464844 2036.558594 175.910156 Z M 2036.558594 175.910156 " fill-opacity="1" fill-rule="nonzero"/></svg>