<svg xmlns="http://www.w3.org/2000/svg" xmlns:xlink="http://www.w3.org/1999/xlink" width="4032" zoomAndPan="magnify" viewBox="0 0 3024 647.999998" height="864" preserveAspectRatio="xMidYMid meet" version="1.0"><defs><g/></defs><rect x="-302.4" width="3628.8" fill="rgb(100%, 100%, 100%)" y="-64.8" height="777.599998" fill-opacity="1"/><rect x="-302.4" width="3628.8" fill="rgb(100%, 100%, 100%)" y="-64.8" height="777.599998" fill-opacity="1"/><rect x="-302.4" width="3628.8" fill="rgb(100%, 100%, 100%)" y="-64.8" height="777.599998" fill-opacity="1"/><rect x="-302.4" width="3628.8" fill="rgb(100%, 100%, 100%)" y="-64.8" height="777.599998" fill-opacity="1"/><g fill="rgb(6.669617%, 6.669617%, 6.669617%)" fill-opacity="1"><g transform="translate(-4.024836, 544.98272)"><g><path d="M 267.230469 0.335938 L 212.875 -96.59375 C 243.503906 -109.71875 260.835938 -137.652344 260.835938 -176.191406 C 260.835938 -229.871094 227.011719 -267.230469 168.113281 -267.230469 L 28.777344 -267.230469 L 28.777344 0 L 95.414062 0 L 95.414062 -88.179688 L 145.898438 -88.179688 L 190.664062 0.335938 Z M 95.414062 -211.023438 L 155.492188 -211.023438 C 182.921875 -211.023438 194.53125 -199.582031 194.53125 -178.210938 C 194.53125 -157.847656 183.761719 -144.386719 155.492188 -144.386719 L 95.414062 -144.386719 Z M 95.414062 -211.023438 "/></g></g></g><g fill="rgb(6.669617%, 6.669617%, 6.669617%)" fill-opacity="1"><g transform="translate(283.305468, 544.98272)"><g><path d="M 208.5 0 L 291.96875 0 L 184.101562 -155.492188 L 287.257812 -267.230469 L 202.273438 -267.230469 L 96.089844 -142.199219 L 96.089844 -267.230469 L 29.113281 -267.230469 L 29.113281 0 L 96.089844 0 L 96.089844 -60.078125 L 139.671875 -107.195312 Z M 208.5 0 "/></g></g></g><g fill="rgb(6.669617%, 6.669617%, 6.669617%)" fill-opacity="1"><g transform="translate(587.80049, 544.98272)"><g/></g></g><g fill="rgb(6.669617%, 6.669617%, 6.669617%)" fill-opacity="1"><g transform="translate(690.189722, 544.98272)"><g><path d="M 247.207031 -267.230469 L 190.664062 -90.03125 L 134.121094 -267.230469 L 29.113281 -267.230469 L 29.113281 0 L 96.089844 0 L 96.089844 -199.246094 L 97.941406 -199.246094 L 161.71875 0 L 219.4375 0 L 283.386719 -199.246094 L 285.238281 -199.246094 L 285.238281 0 L 352.042969 0 L 352.042969 -267.230469 Z M 247.207031 -267.230469 "/></g></g></g><g fill="rgb(6.669617%, 6.669617%, 6.669617%)" fill-opacity="1"><g transform="translate(1081.686179, 544.98272)"><g><path d="M 110.054688 4.207031 C 167.609375 4.207031 210.855469 -31.132812 210.855469 -98.445312 C 210.855469 -166.765625 167.609375 -202.105469 110.054688 -202.105469 C 52.671875 -202.105469 8.582031 -166.597656 8.582031 -98.445312 C 8.582031 -31.132812 52.671875 4.207031 110.054688 4.207031 Z M 110.222656 -47.625 C 89.355469 -47.625 72.867188 -60.917969 72.867188 -98.445312 C 72.867188 -136.8125 89.355469 -150.445312 110.222656 -150.445312 C 131.089844 -150.445312 147.582031 -136.8125 147.582031 -98.445312 C 147.582031 -60.917969 131.089844 -47.625 110.222656 -47.625 Z M 110.222656 -47.625 "/></g></g></g><g fill="rgb(6.669617%, 6.669617%, 6.669617%)" fill-opacity="1"><g transform="translate(1311.800854, 544.98272)"><g><path d="M 143.207031 4.207031 C 192.175781 4.207031 224.488281 -36.515625 224.488281 -99.117188 C 224.488281 -161.214844 192.683594 -202.105469 144.554688 -202.105469 C 115.609375 -202.105469 99.453125 -191.503906 89.1875 -178.882812 L 88.347656 -178.882812 L 88.347656 -267.230469 L 23.222656 -267.230469 L 23.222656 0 L 86.664062 0 L 86.664062 -19.351562 L 87.84375 -19.351562 C 96.089844 -8.414062 112.074219 4.207031 143.207031 4.207031 Z M 120.996094 -47.457031 C 99.453125 -47.457031 84.476562 -65.964844 84.476562 -99.789062 C 84.476562 -131.089844 99.453125 -150.273438 120.996094 -150.273438 C 144.21875 -150.273438 158.859375 -134.289062 158.859375 -99.789062 C 158.859375 -62.769531 144.21875 -47.457031 120.996094 -47.457031 Z M 120.996094 -47.457031 "/></g></g></g><g fill="rgb(6.669617%, 6.669617%, 6.669617%)" fill-opacity="1"><g transform="translate(1556.724368, 544.98272)"><g><path d="M 23.222656 -224.488281 L 88.179688 -224.488281 L 88.179688 -267.230469 L 23.222656 -267.230469 Z M 23.222656 0 L 88.179688 0 L 88.179688 -198.234375 L 23.222656 -198.234375 Z M 23.222656 0 "/></g></g></g><g fill="rgb(6.669617%, 6.669617%, 6.669617%)" fill-opacity="1"><g transform="translate(1678.465878, 544.98272)"><g><path d="M 23.222656 0 L 88.347656 0 L 88.347656 -267.230469 L 23.222656 -267.230469 Z M 23.222656 0 "/></g></g></g><g fill="rgb(6.669617%, 6.669617%, 6.669617%)" fill-opacity="1"><g transform="translate(1800.375663, 544.98272)"><g><path d="M 112.242188 -45.941406 C 82.121094 -45.941406 72.699219 -66.304688 73.539062 -84.8125 L 199.75 -84.8125 C 201.433594 -97.433594 201.769531 -101.136719 201.769531 -106.859375 C 201.769531 -171.308594 157.34375 -202.105469 107.699219 -202.105469 C 50.988281 -202.105469 8.582031 -163.402344 8.582031 -100.800781 C 8.582031 -27.933594 56.039062 3.871094 115.441406 3.871094 C 153.808594 3.871094 181.574219 -9.085938 200.589844 -42.070312 L 150.105469 -70.339844 C 139.335938 -50.316406 125.203125 -45.941406 112.242188 -45.941406 Z M 106.859375 -156.839844 C 129.578125 -156.839844 138.328125 -142.199219 138.664062 -123.519531 L 74.546875 -123.519531 C 75.558594 -141.691406 83.46875 -156.839844 106.859375 -156.839844 Z M 106.859375 -156.839844 "/></g></g></g><g fill="rgb(6.669617%, 6.669617%, 6.669617%)" fill-opacity="1"><g transform="translate(2022.076275, 544.98272)"><g/></g></g><g fill="rgb(6.669617%, 6.669617%, 6.669617%)" fill-opacity="1"><g transform="translate(2124.465553, 544.98272)"><g><path d="M 208.5 0 L 291.96875 0 L 184.101562 -155.492188 L 287.257812 -267.230469 L 202.273438 -267.230469 L 96.089844 -142.199219 L 96.089844 -267.230469 L 29.113281 -267.230469 L 29.113281 0 L 96.089844 0 L 96.089844 -60.078125 L 139.671875 -107.195312 Z M 208.5 0 "/></g></g></g><g fill="rgb(6.669617%, 6.669617%, 6.669617%)" fill-opacity="1"><g transform="translate(2428.960597, 544.98272)"><g><path d="M 23.222656 -224.488281 L 88.179688 -224.488281 L 88.179688 -267.230469 L 23.222656 -267.230469 Z M 23.222656 0 L 88.179688 0 L 88.179688 -198.234375 L 23.222656 -198.234375 Z M 23.222656 0 "/></g></g></g><g fill="rgb(6.669617%, 6.669617%, 6.669617%)" fill-opacity="1"><g transform="translate(2550.702107, 544.98272)"><g><path d="M 23.222656 0 L 88.179688 0 L 88.179688 -104.671875 C 88.179688 -137.992188 102.988281 -150.273438 123.519531 -150.273438 C 142.703125 -150.273438 155.15625 -139.839844 155.15625 -113.253906 L 155.15625 0 L 219.4375 0 L 219.4375 -129.238281 C 219.4375 -174.84375 191.671875 -202.105469 150.78125 -202.105469 C 121.332031 -202.105469 100.296875 -189.652344 89.1875 -175.347656 L 87 -175.347656 L 87 -198.234375 L 23.222656 -198.234375 Z M 23.222656 0 "/></g></g></g><g fill="rgb(6.669617%, 6.669617%, 6.669617%)" fill-opacity="1"><g transform="translate(2799.495921, 544.98272)"><g><path d="M 105.007812 72.867188 C 146.574219 72.867188 205.304688 56.542969 205.304688 -17.5 L 205.304688 -198.234375 L 140.515625 -198.234375 L 140.515625 -176.695312 L 138.328125 -176.695312 C 128.398438 -192.515625 109.382812 -202.105469 87.675781 -202.105469 C 47.457031 -202.105469 8.582031 -170.804688 8.582031 -104.839844 C 8.582031 -40.890625 46.277344 -7.40625 89.355469 -7.40625 C 113.757812 -7.40625 131.257812 -17.667969 138.496094 -31.804688 L 140.683594 -31.804688 L 140.683594 -14.136719 C 140.683594 16.15625 121.164062 25.746094 102.148438 25.746094 C 87.167969 25.746094 73.035156 20.195312 59.570312 2.1875 L 8.917969 27.429688 C 27.765625 63.777344 74.042969 72.867188 105.007812 72.867188 Z M 109.71875 -55.699219 C 87.84375 -55.699219 74.210938 -72.359375 74.210938 -103.660156 C 74.210938 -135.464844 88.011719 -151.789062 109.382812 -151.789062 C 131.597656 -151.789062 145.5625 -134.289062 145.5625 -103.660156 C 145.5625 -71.183594 131.257812 -55.699219 109.71875 -55.699219 Z M 109.71875 -55.699219 "/></g></g></g><path fill="rgb(6.669617%, 6.669617%, 6.669617%)" d="M 2281.171875 38.265625 C 2278.929688 38.46875 2276.511719 39.167969 2274.324219 40.246094 C 2273.453125 40.683594 2272.519531 41.238281 2270.714844 42.433594 C 2268.675781 43.773438 2265.46875 47.472656 2264.277344 49.921875 C 2263.839844 50.796875 2263.371094 51.757812 2263.226562 52.050781 C 2263.050781 52.339844 2262.671875 53.59375 2262.351562 54.816406 C 2259.875 64.230469 2263.839844 74.226562 2272.140625 79.5 C 2273.539062 80.40625 2275.492188 81.394531 2275.839844 81.394531 C 2275.988281 81.394531 2276.539062 81.570312 2277.035156 81.804688 C 2277.558594 82.007812 2278.316406 82.328125 2278.78125 82.503906 C 2279.6875 82.882812 2279.746094 83.203125 2279.160156 84.949219 C 2278.929688 85.652344 2278.667969 86.671875 2278.550781 87.222656 C 2278.347656 88.390625 2277.414062 92.207031 2276.773438 94.363281 C 2276.539062 95.152344 2276.25 96.347656 2276.074219 96.988281 C 2275.722656 98.414062 2274.851562 101.589844 2274.0625 104.125 C 2273.742188 105.175781 2273.21875 106.894531 2272.898438 107.972656 C 2272.578125 109.050781 2272.257812 110.070312 2272.140625 110.246094 C 2272.054688 110.390625 2271.792969 111.148438 2271.558594 111.90625 C 2271.355469 112.695312 2270.832031 114.210938 2270.394531 115.347656 C 2269.984375 116.453125 2269.519531 117.792969 2269.34375 118.320312 C 2269.199219 118.84375 2268.878906 119.628906 2268.644531 120.066406 C 2268.414062 120.503906 2268.207031 121.03125 2268.207031 121.234375 C 2268.207031 121.410156 2268.003906 121.933594 2267.769531 122.398438 C 2267.566406 122.835938 2267.101562 123.828125 2266.75 124.585938 C 2264.480469 129.917969 2262.441406 133.996094 2260.402344 137.347656 C 2260.050781 137.902344 2259.554688 138.75 2259.292969 139.242188 C 2259.03125 139.710938 2258.710938 140.175781 2258.625 140.261719 C 2258.535156 140.351562 2258.070312 140.992188 2257.574219 141.71875 C 2253.960938 147.230469 2248.777344 152.183594 2244.261719 154.398438 C 2243.417969 154.835938 2242.484375 155.300781 2242.195312 155.445312 C 2241.902344 155.621094 2240.648438 156.03125 2239.425781 156.351562 C 2236.425781 157.167969 2232.113281 157.195312 2229.171875 156.464844 C 2226.460938 155.796875 2222.558594 154.308594 2221.015625 153.347656 C 2220.78125 153.203125 2220.199219 152.882812 2219.703125 152.621094 C 2218.65625 152.035156 2215.683594 150.113281 2215.480469 149.878906 C 2215.390625 149.792969 2214.867188 149.386719 2214.316406 149.007812 C 2212.917969 148.042969 2208.136719 143.730469 2206.070312 141.574219 C 2202.371094 137.757812 2198.351562 132.863281 2194.007812 126.859375 C 2192.816406 125.226562 2189.171875 119.835938 2188.96875 119.425781 C 2188.882812 119.28125 2188.210938 118.203125 2187.484375 117.09375 C 2185.621094 114.238281 2184.980469 113.160156 2184.484375 112.113281 C 2184.28125 111.617188 2183.929688 111.09375 2183.753906 111.003906 C 2183.582031 110.886719 2183.433594 110.363281 2183.433594 109.839844 C 2183.433594 109.109375 2183.640625 108.730469 2184.191406 108.351562 C 2187.25 106.371094 2189.40625 103.195312 2190.457031 99.203125 C 2191.648438 94.625 2190.863281 90.285156 2188.039062 85.882812 C 2187.046875 84.367188 2184.132812 81.714844 2182.503906 80.898438 C 2179.296875 79.328125 2178.832031 79.210938 2174.695312 79.210938 C 2170.558594 79.210938 2170.179688 79.296875 2166.828125 80.898438 C 2165.167969 81.714844 2161.292969 85.535156 2160.449219 87.222656 C 2158.789062 90.460938 2158.527344 91.566406 2158.527344 95.238281 C 2158.527344 98.882812 2158.820312 100.046875 2160.390625 103.105469 C 2163.1875 108.46875 2170.414062 112.316406 2176.179688 111.527344 C 2178.570312 111.207031 2178.6875 111.265625 2179.035156 113.363281 C 2179.179688 114.121094 2179.445312 115.492188 2179.617188 116.367188 C 2179.910156 117.96875 2180.785156 123.1875 2181.394531 127.003906 C 2181.570312 128.109375 2181.863281 130.09375 2182.007812 131.375 C 2182.152344 132.65625 2182.472656 135.132812 2182.734375 136.914062 C 2183.316406 141.253906 2184.308594 154.777344 2184.308594 158.300781 C 2184.308594 162.003906 2183.261719 172.582031 2182.675781 174.652344 C 2181.105469 180.304688 2180.171875 182.433594 2178.105469 185.085938 C 2174.433594 189.777344 2168.546875 191.117188 2160.421875 189.078125 C 2159.371094 188.816406 2158.121094 188.4375 2157.59375 188.203125 C 2157.101562 187.96875 2156.574219 187.765625 2156.429688 187.765625 C 2156.226562 187.765625 2152.234375 185.785156 2150.019531 184.558594 C 2148.796875 183.890625 2145.273438 181.527344 2143.960938 180.507812 C 2142.535156 179.402344 2142.476562 179.371094 2141.078125 178.324219 C 2137.117188 175.351562 2125.988281 164.511719 2124.238281 161.886719 C 2123.773438 161.160156 2123.773438 161.128906 2125.347656 159.382812 C 2127.472656 156.992188 2128.753906 154.398438 2129.394531 151.105469 C 2129.917969 148.511719 2129.917969 148.308594 2129.425781 145.714844 C 2128.316406 139.796875 2124.355469 135.078125 2118.761719 132.976562 C 2117.132812 132.335938 2116.375 132.25 2113.371094 132.25 C 2110.402344 132.25 2109.585938 132.367188 2107.984375 132.949219 C 2106.933594 133.328125 2105.886719 133.824219 2105.625 134.054688 C 2105.390625 134.261719 2105.011719 134.433594 2104.808594 134.433594 C 2104.605469 134.433594 2103.378906 135.511719 2102.070312 136.824219 C 2098.167969 140.757812 2097.03125 143.761719 2097.292969 149.414062 C 2097.496094 153.726562 2098.515625 156.203125 2101.398438 159.410156 C 2105.421875 163.867188 2111.011719 165.53125 2117.453125 164.191406 C 2118.414062 163.984375 2119.34375 163.695312 2119.550781 163.546875 C 2119.722656 163.375 2120.277344 163.140625 2120.773438 162.996094 C 2121.9375 162.675781 2122.140625 162.964844 2124.910156 168.152344 C 2125.492188 169.230469 2126.308594 170.71875 2126.714844 171.445312 C 2127.648438 173.136719 2135.660156 189.164062 2136.621094 191.261719 C 2137.320312 192.835938 2141.457031 202.191406 2142.183594 203.941406 C 2142.417969 204.40625 2142.855469 205.601562 2143.234375 206.5625 C 2143.582031 207.523438 2144.046875 208.691406 2144.28125 209.183594 C 2144.660156 210.03125 2145.183594 211.429688 2146 213.847656 C 2146.234375 214.488281 2146.757812 215.917969 2147.164062 217.054688 C 2147.574219 218.160156 2148.097656 219.675781 2148.332031 220.40625 C 2149.410156 223.902344 2150.050781 225.972656 2150.515625 227.691406 C 2150.835938 228.738281 2151.246094 230.109375 2151.449219 230.75 L 2151.828125 231.917969 L 2416.285156 231.917969 L 2416.984375 229.585938 C 2417.390625 228.304688 2417.976562 226.320312 2418.296875 225.214844 C 2418.617188 224.078125 2419.140625 222.503906 2419.429688 221.714844 C 2419.722656 220.902344 2419.984375 220.054688 2419.984375 219.824219 C 2419.984375 219.589844 2420.160156 219.035156 2420.390625 218.628906 C 2420.597656 218.21875 2420.859375 217.492188 2420.976562 217.023438 C 2421.207031 216.09375 2421.296875 215.859375 2424.527344 207.582031 C 2425.753906 204.464844 2427.0625 201.171875 2427.472656 200.296875 C 2428.199219 198.695312 2428.664062 197.617188 2429.597656 195.488281 C 2430.472656 193.507812 2431.519531 191.261719 2433.066406 188.027344 C 2433.878906 186.308594 2434.667969 184.617188 2434.84375 184.238281 C 2434.988281 183.859375 2435.25 183.335938 2435.425781 183.101562 C 2435.570312 182.871094 2435.832031 182.34375 2436.007812 181.9375 C 2436.152344 181.527344 2436.414062 181.003906 2436.589844 180.773438 C 2436.734375 180.539062 2437.027344 180.015625 2437.171875 179.605469 C 2437.582031 178.613281 2442.472656 169.40625 2443.757812 167.21875 C 2444.136719 166.578125 2444.570312 165.734375 2444.746094 165.324219 C 2444.921875 164.917969 2445.386719 164.191406 2445.796875 163.664062 C 2446.523438 162.703125 2447.136719 162.644531 2448.386719 163.460938 C 2449.320312 164.042969 2452.785156 164.742188 2454.796875 164.742188 C 2457.855469 164.742188 2461.351562 163.664062 2463.972656 161.886719 C 2465.867188 160.632812 2468.402344 157.691406 2469.304688 155.710938 C 2469.769531 154.660156 2470.296875 153.496094 2470.46875 153.117188 C 2470.9375 152.183594 2470.9375 144.664062 2470.46875 143.730469 C 2470.296875 143.351562 2469.710938 142.097656 2469.21875 140.992188 C 2468.488281 139.417969 2467.730469 138.425781 2465.953125 136.679688 C 2464.703125 135.453125 2463.507812 134.433594 2463.332031 134.433594 C 2463.15625 134.433594 2462.777344 134.261719 2462.546875 134.054688 C 2462.285156 133.851562 2461.292969 133.355469 2460.332031 132.976562 C 2458.789062 132.335938 2458.148438 132.25 2454.796875 132.25 C 2451.300781 132.25 2450.863281 132.308594 2448.972656 133.09375 C 2444.746094 134.8125 2442.792969 136.5625 2440.027344 141.136719 C 2439.269531 142.390625 2438.335938 146.296875 2438.335938 148.25 C 2438.335938 150.316406 2439.152344 153.757812 2440.113281 155.710938 C 2440.464844 156.4375 2441.511719 157.953125 2442.445312 159.089844 L 2444.105469 161.1875 L 2443.523438 162.148438 C 2442.96875 163.082031 2432.976562 173.222656 2430.761719 175.117188 C 2426.65625 178.613281 2420.742188 182.988281 2418.089844 184.445312 C 2409.089844 189.398438 2402.332031 190.941406 2396.535156 189.367188 C 2390.152344 187.648438 2386.277344 181.617188 2384.882812 171.15625 C 2383.976562 164.453125 2383.746094 158.679688 2384.09375 152.738281 C 2384.910156 139.972656 2385.054688 137.960938 2385.464844 135.746094 C 2385.667969 134.464844 2385.957031 132.425781 2386.046875 131.230469 C 2386.164062 130.035156 2386.425781 128.257812 2386.628906 127.296875 C 2386.832031 126.332031 2387.09375 124.703125 2387.210938 123.652344 C 2387.300781 122.601562 2387.5625 121.03125 2387.792969 120.15625 C 2387.996094 119.28125 2388.261719 117.851562 2388.375 116.980469 C 2388.609375 114.9375 2389.308594 112.257812 2389.6875 111.878906 C 2389.863281 111.703125 2390.851562 111.617188 2391.960938 111.644531 C 2395.308594 111.820312 2399.652344 110.421875 2402.503906 108.265625 C 2404.109375 107.042969 2406.089844 104.828125 2406.789062 103.484375 C 2408.769531 99.609375 2408.769531 99.582031 2408.769531 95.238281 C 2408.738281 90.894531 2408.828125 91.160156 2406.933594 87.253906 C 2404.980469 83.261719 2399.652344 79.589844 2395.019531 79.0625 C 2392.28125 78.773438 2388.960938 79.121094 2386.890625 79.910156 C 2385.347656 80.492188 2383.367188 81.601562 2382.8125 82.125 C 2382.609375 82.300781 2382.085938 82.792969 2381.589844 83.203125 C 2379.433594 85.007812 2377.453125 88.417969 2376.722656 91.480469 C 2375.703125 95.878906 2376.433594 99.785156 2379.113281 104.476562 C 2379.636719 105.410156 2382.464844 108.207031 2383.335938 108.671875 C 2384.414062 109.226562 2384.882812 110.160156 2384.414062 110.714844 C 2384.238281 110.945312 2383.859375 111.527344 2383.597656 111.996094 C 2382.636719 113.742188 2381.09375 116.25 2380.160156 117.589844 C 2379.636719 118.347656 2379.199219 119.046875 2379.199219 119.136719 C 2379.199219 119.28125 2375.996094 124.03125 2374.421875 126.21875 C 2373.375 127.675781 2371.160156 130.648438 2370.839844 131.082031 C 2364.632812 138.894531 2359.507812 144.3125 2354.875 147.984375 C 2351.582031 150.609375 2350.183594 151.628906 2349.894531 151.628906 C 2349.777344 151.628906 2349.457031 151.804688 2349.222656 152.035156 C 2348.582031 152.621094 2344.359375 154.835938 2343.890625 154.835938 C 2343.6875 154.835938 2343.136719 155.039062 2342.640625 155.300781 C 2341.796875 155.765625 2339.902344 156.234375 2336.230469 156.902344 C 2333.8125 157.339844 2328.800781 156.671875 2326.324219 155.5625 C 2320.996094 153.230469 2317.238281 150.289062 2313.390625 145.507812 C 2309.574219 140.757812 2307.1875 136.882812 2303.921875 130.210938 C 2301.855469 125.953125 2301.59375 125.429688 2300.542969 122.777344 C 2300.195312 121.902344 2299.640625 120.621094 2299.351562 119.921875 C 2299.058594 119.25 2298.796875 118.550781 2298.796875 118.40625 C 2298.796875 118.261719 2298.652344 117.792969 2298.476562 117.328125 C 2297.398438 114.707031 2295.242188 108.265625 2294.28125 104.855469 C 2294.046875 104.039062 2293.609375 102.464844 2293.289062 101.359375 C 2291.457031 94.945312 2290.902344 92.90625 2289.882812 88.390625 C 2289.648438 87.339844 2289.242188 85.796875 2289.007812 84.949219 C 2288.746094 84.105469 2288.601562 83.230469 2288.6875 83.027344 C 2288.773438 82.824219 2289.679688 82.359375 2290.699219 82.007812 C 2296.117188 80.085938 2300.050781 77.082031 2302.933594 72.625 C 2304.476562 70.261719 2305.148438 68.632812 2305.964844 65.367188 C 2306.808594 61.957031 2306.835938 59.363281 2306.078125 56.070312 C 2305.089844 51.933594 2303.921875 49.398438 2301.679688 46.570312 C 2298.796875 42.925781 2295.5625 40.65625 2290.871094 38.992188 C 2289.707031 38.585938 2284.785156 37.914062 2283.792969 38.03125 C 2283.648438 38.03125 2282.453125 38.148438 2281.171875 38.265625 Z M 2281.171875 38.265625 " fill-opacity="1" fill-rule="nonzero"/><path fill="rgb(6.669617%, 6.669617%, 6.669617%)" d="M 2151.972656 244.273438 C 2151.535156 245.148438 2151.566406 266.21875 2152.03125 266.683594 C 2152.527344 267.179688 2415.644531 267.179688 2416.140625 266.683594 C 2416.402344 266.421875 2416.488281 263.535156 2416.488281 255.492188 C 2416.488281 246.023438 2416.429688 244.5625 2416.023438 244.1875 C 2415.613281 243.75 2403.203125 243.71875 2283.9375 243.71875 C 2154.070312 243.71875 2152.292969 243.71875 2151.972656 244.273438 Z M 2151.972656 244.273438 " fill-opacity="1" fill-rule="nonzero"/></svg>