 <svg version="1.0" xmlns="http://www.w3.org/2000/svg"  width="900.000000pt" height="675.000000pt" viewBox="0 0 900.000000 675.000000"  preserveAspectRatio="xMidYMid meet">  <g transform="translate(0.000000,675.000000) scale(0.100000,-0.100000)" fill="#0000ff" stroke="none"> <path d="M744 3935 c-10 -8 -24 -15 -31 -15 -13 0 -74 -39 -95 -61 -60 -61 -82 -166 -63 -293 7 -45 16 -58 85 -127 43 -43 89 -81 104 -85 14 -3 26 -10 26 -14 0 -4 12 -13 28 -19 75 -30 214 -124 246 -166 39 -50 36 -114 -6 -160 -29 -33 -35 -35 -93 -35 -54 0 -64 3 -88 28 -23 23 -26 37 -29 102 l-3 75 -145 0 -145 0 -3 -54 c-3 -45 9 -103 35 -166 17 -43 59 -93 88 -106 11 -5 27 -13 35 -18 71 -40 76 -41 249 -41 152 0 175 2 208 20 21 11 43 20 50 20 20 0 102 88 109 118 4 15 13 36 20 47 9 13 14 51 14 113 0 74 -4 103 -21 140 -37 81 -120 152 -264 228 -134 70 -135 71 -187 114 -68 57 -61 156 14 193 45 22 96 15 132 -18 19 -18 26 -35 28 -77 l3 -53 130 0 130 0 3 66 c5 110 -41 179 -156 237 -39 20 -58 22 -215 22 -137 0 -177 -3 -193 -15z"/> <path d="M4446 3935 c-15 -8 -35 -15 -43 -15 -14 0 -65 -33 -92 -61 -56 -56 -74 -105 -74 -209 0 -92 11 -129 51 -178 51 -62 115 -108 247 -176 42 -22 81 -46 87 -53 6 -7 16 -13 22 -13 18 0 80 -63 100 -103 17 -33 18 -41 5 -79 -21 -64 -53 -88 -119 -88 -43 1 -61 6 -84 24 -25 21 -29 32 -35 102 l-6 79 -140 0 -140 0 -3 -68 c-2 -43 2 -78 12 -100 8 -17 17 -42 21 -54 11 -39 115 -133 148 -133 8 0 28 -7 43 -15 41 -21 321 -22 350 0 10 8 28 15 39 15 24 0 55 21 99 66 53 54 60 66 68 118 18 114 20 149 10 184 -6 20 -13 48 -16 62 -3 14 -21 44 -41 68 -36 42 -161 132 -183 132 -7 0 -12 4 -12 9 0 5 -12 14 -27 20 -16 6 -35 15 -43 20 -8 5 -22 12 -30 16 -22 9 -50 26 -97 60 -66 47 -79 128 -31 191 13 17 74 26 119 19 45 -8 71 -43 79 -110 l5 -40 124 -3 c68 -1 128 1 132 5 8 8 -2 89 -19 157 -12 44 -87 122 -129 132 -15 4 -38 13 -52 20 -38 20 -306 19 -345 -1z"/> <path d="M7875 3936 c-11 -7 -32 -16 -46 -19 -34 -8 -113 -79 -135 -120 -30 -57 -38 -146 -38 -427 -1 -305 5 -365 42 -428 36 -63 116 -117 197 -132 22 -4 66 -13 97 -19 43 -9 71 -9 110 -1 29 6 73 15 98 19 90 16 202 99 217 161 3 14 12 45 19 70 11 33 14 91 12 220 l-3 175 -190 0 -190 0 0 -70 0 -70 45 -5 c69 -8 70 -10 70 -120 0 -114 -14 -150 -69 -176 -42 -20 -123 -14 -151 11 -43 38 -50 93 -50 365 0 282 9 338 62 380 35 27 123 27 155 1 28 -23 53 -84 53 -127 l0 -34 130 0 c150 0 150 0 131 83 -7 29 -15 65 -18 82 -12 60 -112 165 -156 165 -8 0 -28 7 -43 15 -40 20 -320 22 -349 1z"/> <path d="M1740 3894 c-6 -14 -10 -45 -10 -68 0 -24 -7 -60 -15 -79 -8 -20 -15 -56 -15 -80 0 -25 -7 -61 -15 -80 -8 -20 -15 -56 -15 -80 0 -25 -7 -61 -15 -80 -8 -20 -15 -58 -15 -86 0 -27 -7 -62 -15 -77 -8 -16 -15 -54 -15 -85 0 -30 -5 -60 -11 -66 -6 -6 -13 -39 -16 -74 -3 -35 -11 -82 -20 -105 -8 -22 -13 -58 -11 -80 l3 -39 125 -3 c90 -2 130 1 143 10 13 10 20 36 26 108 5 52 14 108 20 123 6 16 11 56 11 90 0 34 7 80 15 102 8 22 14 66 15 98 0 32 5 67 11 79 6 11 13 54 16 96 3 43 11 96 19 120 8 23 14 74 14 112 0 49 4 70 13 70 21 0 47 -81 47 -147 0 -34 5 -74 11 -90 6 -15 15 -69 20 -120 4 -51 13 -101 18 -112 6 -11 11 -48 11 -83 1 -35 7 -81 15 -103 8 -22 15 -65 15 -95 0 -30 5 -71 11 -90 6 -19 14 -64 17 -100 l7 -65 139 -3 c77 -1 144 2 149 7 5 5 3 20 -6 37 -8 16 -17 60 -20 97 -2 38 -10 74 -16 80 -6 6 -11 33 -11 59 0 27 -7 65 -15 85 -8 19 -15 58 -15 85 0 27 -7 65 -15 85 -8 19 -15 55 -15 80 0 24 -7 60 -15 80 -8 19 -15 56 -15 82 -1 25 -7 64 -15 86 -8 22 -15 56 -15 76 0 20 -7 61 -16 90 -9 30 -18 60 -20 67 -3 9 -60 12 -244 12 l-240 0 -10 -26z"/> <path d="M2709 3683 c-7 -131 -13 -380 -14 -553 l0 -315 130 0 130 0 5 495 c3 322 8 494 15 493 6 -1 13 -20 17 -42 4 -22 12 -49 17 -60 6 -11 11 -44 11 -73 0 -29 7 -66 15 -82 8 -15 15 -48 15 -72 0 -24 6 -61 14 -81 8 -21 17 -67 19 -102 3 -35 10 -68 16 -74 6 -6 11 -35 11 -64 0 -30 7 -70 15 -90 8 -19 15 -55 15 -79 0 -23 5 -55 11 -71 7 -15 15 -44 18 -63 l6 -35 130 0 130 0 14 30 c8 16 17 59 21 95 4 36 12 78 18 93 7 16 12 48 12 71 0 24 7 60 15 79 8 20 15 56 15 80 0 25 7 61 15 80 8 20 15 56 15 79 0 24 7 61 15 83 8 22 14 63 15 91 0 27 5 55 11 61 6 6 13 39 16 74 2 35 7 70 9 78 16 50 23 -60 29 -494 4 -269 9 -493 12 -497 6 -10 235 -10 248 0 12 8 3 1070 -9 1090 -9 14 -422 17 -445 3 -9 -6 -15 -35 -18 -82 -3 -41 -11 -93 -19 -117 -8 -23 -14 -67 -14 -96 0 -30 -7 -70 -15 -89 -8 -20 -15 -62 -15 -92 0 -31 -5 -65 -10 -75 -6 -11 -15 -55 -20 -97 -5 -43 -15 -102 -21 -130 -16 -65 -39 -71 -39 -10 -1 23 -7 60 -15 82 -8 22 -15 66 -15 98 0 32 -7 74 -15 94 -8 19 -15 59 -15 88 0 29 -7 72 -15 95 -8 23 -15 66 -15 96 0 29 -5 65 -12 81 -6 15 -14 57 -17 93 l-6 65 -221 3 -221 2 -14 -237z"/> <path d="M5307 3914 c-4 -4 -7 -211 -7 -460 l0 -452 26 -51 c14 -28 35 -62 47 -74 28 -29 90 -67 110 -67 8 0 28 -7 43 -15 41 -21 277 -21 318 0 15 8 38 15 50 16 25 0 104 56 120 84 6 11 14 22 18 25 3 3 16 32 27 66 20 58 21 76 19 495 l-3 434 -130 0 -130 0 -5 -435 c-5 -478 -5 -474 -66 -504 -44 -21 -83 -20 -114 1 -56 39 -55 23 -60 498 l-5 440 -126 3 c-69 1 -128 -1 -132 -4z"/> <path d="M6415 3908 c-3 -7 -4 -254 -3 -548 l3 -535 129 -3 129 -3 -7 133 c-14 307 -19 765 -7 772 6 4 13 0 17 -11 3 -10 12 -31 20 -46 7 -16 14 -36 14 -45 0 -9 7 -30 15 -46 8 -15 15 -40 15 -55 0 -15 7 -36 15 -47 8 -10 15 -33 15 -50 0 -16 7 -39 15 -50 8 -10 15 -30 15 -44 0 -14 7 -38 15 -54 8 -15 15 -37 15 -48 0 -11 6 -34 14 -51 8 -18 16 -43 19 -57 3 -14 10 -41 17 -60 27 -80 32 -97 39 -130 4 -19 12 -44 19 -55 6 -11 13 -28 16 -38 5 -16 21 -17 193 -15 l188 3 0 545 0 545 -130 0 -130 0 3 -150 c1 -82 7 -273 13 -423 8 -182 8 -277 2 -283 -14 -14 -53 53 -53 90 0 15 -7 36 -15 47 -8 10 -15 33 -15 49 0 17 -7 41 -15 55 -8 14 -14 36 -15 50 0 14 -7 38 -15 54 -8 15 -15 40 -15 55 0 15 -7 36 -15 47 -8 10 -15 33 -15 50 0 16 -7 39 -15 50 -8 10 -15 33 -15 49 0 17 -7 41 -15 55 -8 14 -14 36 -15 50 0 14 -7 38 -15 54 -8 15 -15 40 -15 55 0 15 -5 32 -12 39 -17 17 -397 17 -403 0z"/> </g> </svg> 