 <svg version="1.0" xmlns="http://www.w3.org/2000/svg"  width="900.000000pt" height="132.000000pt" viewBox="0 0 900.000000 132.000000"  preserveAspectRatio="xMidYMid meet">  <g transform="translate(0.000000,132.000000) scale(0.100000,-0.100000)" fill="#000000" stroke="none"> <path d="M5940 1195 c-19 -7 -44 -14 -55 -14 -11 -1 -49 -16 -85 -33 -68 -35 -201 -155 -220 -199 -5 -13 -14 -31 -19 -39 -35 -58 -61 -167 -61 -251 0 -53 22 -176 37 -204 6 -11 19 -37 29 -58 39 -79 179 -209 259 -240 6 -2 26 -10 45 -18 49 -19 311 -19 360 0 19 8 40 16 45 18 46 18 142 92 192 147 86 97 133 223 133 356 0 55 -18 155 -35 195 -36 86 -56 116 -125 185 -78 78 -155 123 -255 151 -71 19 -202 21 -245 4z m228 -158 c15 -8 45 -23 67 -33 42 -20 130 -101 158 -145 30 -49 57 -143 57 -199 0 -56 -27 -149 -57 -199 -26 -42 -143 -151 -162 -151 -9 0 -22 -5 -28 -11 -14 -14 -102 -32 -153 -32 -61 0 -139 15 -151 29 -6 8 -20 14 -30 14 -19 0 -136 109 -162 151 -52 85 -73 233 -42 293 8 15 15 36 15 46 0 10 7 23 15 30 8 7 15 18 15 25 0 35 148 165 188 165 9 0 26 7 36 15 26 20 197 21 234 2z"/> <path d="M170 1132 c-57 -59 -83 -109 -105 -200 -17 -69 -17 -75 0 -144 23 -96 48 -140 125 -223 83 -90 100 -120 100 -185 0 -65 -18 -101 -87 -172 -31 -31 -52 -61 -49 -67 9 -14 195 -15 230 -1 14 5 26 15 26 21 0 7 6 20 13 28 31 39 49 120 45 208 -5 115 -33 174 -132 278 -75 79 -96 119 -96 187 0 65 21 101 111 193 49 50 89 98 89 108 0 15 -12 17 -112 17 l-112 0 -46 -48z"/> <path d="M690 1165 c0 -14 19 -51 58 -110 6 -11 15 -27 19 -35 4 -8 25 -46 48 -85 22 -38 44 -77 48 -85 4 -8 16 -28 27 -45 11 -16 24 -39 29 -51 5 -11 28 -51 50 -88 23 -36 41 -69 41 -73 0 -3 8 -15 18 -26 15 -17 17 -44 19 -215 1 -107 4 -201 7 -208 7 -18 147 -19 164 -2 8 8 12 66 12 195 0 192 2 201 51 283 12 19 32 55 46 80 13 25 33 59 44 75 10 17 22 37 26 45 4 8 26 47 48 85 23 39 44 77 48 85 4 8 21 38 37 65 72 118 70 125 -37 125 -91 0 -108 -9 -141 -71 -13 -24 -32 -57 -42 -74 -11 -16 -23 -37 -27 -45 -7 -15 -86 -152 -104 -180 -5 -8 -12 -23 -15 -32 -14 -40 -51 -10 -90 72 -4 8 -26 47 -49 85 -22 39 -44 77 -48 85 -4 8 -16 29 -27 45 -11 17 -24 40 -29 52 -24 54 -45 63 -141 63 -74 0 -90 -3 -90 -15z"/> <path d="M3355 1158 c-3 -13 -4 -248 -3 -523 l3 -500 85 0 85 0 3 65 c4 119 -21 107 234 112 l223 4 67 34 c116 57 205 167 234 290 36 148 0 280 -107 395 -117 124 -196 144 -571 145 l-248 0 -5 -22z m632 -200 c169 -112 169 -324 0 -436 -40 -27 -43 -27 -234 -30 -142 -3 -198 -1 -208 8 -20 17 -22 459 -2 479 9 9 59 12 208 9 193 -3 196 -3 236 -30z"/> <path d="M4476 1164 c-14 -14 -16 -74 -16 -513 0 -373 3 -500 12 -509 17 -17 152 -16 167 1 7 9 12 86 13 213 l3 199 230 0 230 0 5 -210 5 -210 85 0 85 0 3 500 c1 275 0 510 -3 523 -5 20 -11 22 -85 22 -44 0 -81 -1 -82 -2 -1 -2 -4 -100 -7 -218 l-6 -215 -210 -3 c-115 -1 -220 0 -232 3 -23 5 -23 6 -23 208 0 145 -3 206 -12 215 -18 18 -143 16 -162 -4z"/> <path d="M7638 1169 c-17 -9 -18 -36 -18 -344 0 -298 -2 -335 -16 -335 -8 0 -68 42 -132 93 -125 100 -190 151 -317 249 -44 34 -84 67 -90 74 -5 6 -39 33 -75 59 -36 27 -67 52 -70 55 -28 31 -143 111 -155 106 -13 -5 -15 -71 -15 -489 0 -362 3 -486 12 -495 16 -16 150 -16 166 0 9 9 12 92 12 310 0 262 2 298 15 298 9 0 80 -51 158 -113 78 -62 158 -125 177 -140 19 -15 69 -54 110 -87 41 -33 111 -88 155 -122 44 -34 86 -68 93 -75 36 -35 132 -103 146 -103 14 0 16 54 16 525 0 508 -1 525 -19 535 -25 13 -131 13 -153 -1z"/> <path d="M7957 1174 c-9 -9 6 -41 55 -125 24 -40 47 -81 51 -89 4 -8 16 -28 27 -45 11 -16 26 -43 34 -60 8 -16 29 -52 45 -80 17 -27 35 -59 41 -70 6 -11 19 -34 29 -51 73 -119 71 -112 71 -320 0 -218 -6 -204 90 -204 96 0 90 -14 90 204 l0 191 40 69 c22 37 40 70 40 71 0 2 26 48 58 102 32 54 61 105 65 113 4 8 16 29 27 45 21 33 33 55 73 129 15 27 31 54 36 60 17 22 19 55 4 60 -33 13 -154 6 -178 -10 -14 -9 -25 -20 -25 -25 0 -5 -18 -39 -41 -75 -22 -37 -45 -77 -50 -88 -5 -12 -18 -34 -29 -51 -11 -16 -23 -37 -27 -45 -5 -9 -23 -42 -42 -74 l-34 -59 -22 28 c-13 15 -32 46 -44 69 -12 22 -31 55 -41 71 -11 17 -23 37 -27 45 -16 35 -107 186 -121 203 -12 14 -32 17 -102 17 -48 0 -89 -3 -93 -6z"/> <path d="M1997 1073 c-14 -29 -74 -138 -113 -208 -13 -22 -32 -58 -44 -80 -21 -38 -54 -97 -106 -190 -24 -42 -25 -43 -94 -170 -24 -44 -51 -93 -61 -110 -10 -16 -28 -50 -41 -75 -12 -25 -29 -53 -36 -62 -8 -10 -12 -24 -9 -33 8 -19 165 -22 189 -2 9 6 31 39 49 72 18 33 43 78 56 100 12 22 34 63 48 90 14 28 34 64 44 80 10 17 35 62 55 100 60 109 77 136 88 133 12 -4 28 -33 144 -246 16 -32 50 -93 74 -137 24 -44 48 -89 54 -100 16 -30 38 -55 47 -55 5 0 20 24 34 52 14 29 35 69 47 88 21 35 98 181 172 323 22 42 45 77 51 77 11 0 25 -20 63 -90 14 -25 31 -56 39 -70 26 -45 77 -138 104 -187 15 -26 36 -64 47 -83 12 -19 32 -59 47 -87 14 -29 34 -57 45 -63 23 -12 177 -13 184 -1 7 10 -5 40 -32 86 -10 17 -38 66 -62 110 -24 44 -51 94 -61 110 -10 17 -27 48 -39 70 -12 22 -35 63 -50 90 -15 28 -38 68 -50 90 -12 22 -29 54 -39 70 -10 17 -37 66 -61 110 -24 44 -51 94 -61 110 -10 17 -27 49 -39 73 -12 23 -27 42 -33 42 -7 0 -23 -21 -35 -47 -13 -27 -39 -75 -57 -108 -19 -33 -47 -85 -63 -115 -16 -30 -43 -82 -61 -114 -18 -32 -44 -81 -58 -107 -14 -27 -28 -49 -32 -49 -11 0 -34 29 -58 75 -11 22 -30 56 -41 75 -12 19 -33 58 -47 85 -24 46 -50 95 -116 215 -35 63 -53 90 -61 90 -3 0 -13 -12 -21 -27z"/> <path d="M8673 235 c0 -27 2 -38 4 -22 2 15 2 37 0 50 -2 12 -4 0 -4 -28z"/> <path d="M8733 230 c0 -30 2 -43 4 -27 2 15 2 39 0 55 -2 15 -4 2 -4 -28z"/> </g> </svg> 