 <svg version="1.0" xmlns="http://www.w3.org/2000/svg"  width="900.000000pt" height="180.000000pt" viewBox="0 0 900.000000 180.000000"  preserveAspectRatio="xMidYMid meet">  <g transform="translate(0.000000,180.000000) scale(0.100000,-0.100000)" fill="#000000" stroke="none"> <path d="M0 1680 l0 -120 303 0 c222 0 306 -3 315 -12 9 -9 12 -196 12 -780 l0 -767 228 2 227 2 5 695 c5 671 6 696 25 725 34 51 79 92 127 114 43 19 64 21 262 21 l216 0 0 120 0 120 -860 0 -860 0 0 -120z"/> <path d="M2277 1781 c-3 -14 -17 -21 -51 -26 -25 -4 -46 -11 -46 -15 0 -4 -11 -11 -24 -14 -28 -7 -118 -94 -151 -146 -12 -19 -26 -50 -29 -68 -4 -17 -12 -34 -17 -37 -12 -8 -12 -1152 0 -1160 5 -3 13 -20 17 -38 16 -75 114 -188 194 -225 96 -43 130 -46 690 -46 l535 -1 0 108 0 108 -395 2 c-385 2 -396 3 -441 24 -47 23 -119 86 -119 104 0 6 -7 17 -15 25 -21 22 -22 405 -1 423 10 8 145 11 492 11 l479 -1 3 110 3 111 -412 0 c-482 0 -443 -9 -559 127 -17 19 -27 169 -16 228 7 36 98 145 121 145 7 0 26 7 41 15 25 13 91 15 424 15 l395 -1 3 121 3 120 -560 0 c-543 0 -559 -1 -564 -19z"/> <path d="M3957 1781 c-3 -13 -17 -21 -45 -26 -23 -3 -46 -13 -53 -21 -6 -8 -18 -14 -27 -14 -19 0 -142 -120 -142 -139 0 -8 -6 -22 -14 -30 -37 -42 -40 -102 -40 -661 -1 -594 -1 -588 57 -684 41 -65 88 -112 150 -145 99 -53 119 -55 699 -58 l537 -3 3 102 c2 57 0 106 -3 111 -3 4 -183 8 -400 10 l-394 2 -53 29 c-55 30 -112 87 -112 111 0 7 -6 15 -12 17 -10 4 -14 113 -16 494 -3 484 -3 489 19 533 26 53 76 106 109 116 14 4 28 13 32 19 5 8 128 12 415 13 223 2 409 6 412 10 3 5 5 59 3 121 l-3 112 -558 0 c-540 0 -559 -1 -564 -19z"/> <path d="M5320 912 c0 -677 3 -891 12 -900 9 -9 73 -12 225 -12 l213 0 0 761 c0 505 3 767 10 780 10 18 24 19 301 19 275 0 293 -1 337 -21 55 -25 101 -69 131 -124 21 -39 21 -46 21 -728 l0 -688 228 3 227 3 3 705 c3 759 4 742 -49 855 -35 76 -159 177 -234 191 -24 4 -39 13 -42 25 -5 18 -30 19 -694 19 l-689 0 0 -888z"/> <path d="M7587 1782 c-2 -12 -17 -21 -38 -26 -56 -10 -101 -38 -164 -101 -61 -61 -89 -105 -101 -160 -4 -16 -11 -35 -16 -41 -14 -18 -5 -1100 10 -1151 15 -53 66 -137 107 -180 47 -47 137 -92 200 -99 31 -4 58 -11 61 -15 7 -12 941 -12 948 0 3 4 29 11 58 15 80 10 124 34 197 107 76 77 98 116 108 197 4 37 12 57 24 65 22 13 25 28 7 25 -10 -2 -13 99 -14 478 -2 533 -7 594 -57 679 -32 53 -122 145 -142 145 -7 0 -18 6 -24 14 -6 8 -32 17 -57 21 -34 5 -48 12 -51 26 -5 18 -21 19 -528 19 -500 0 -523 -1 -528 -18z m771 -243 c63 -28 107 -72 137 -136 l25 -52 0 -456 c0 -441 -1 -458 -21 -502 -11 -25 -26 -52 -32 -60 -38 -47 -85 -83 -107 -83 -9 0 -22 -6 -28 -13 -10 -9 -66 -12 -211 -12 l-198 0 -56 29 c-58 29 -117 85 -117 111 0 7 -6 15 -12 17 -10 4 -14 113 -16 494 -3 488 -3 489 19 534 28 56 71 98 129 127 42 21 58 23 243 23 180 0 202 -2 245 -21z"/> </g> </svg> 