 <svg version="1.0" xmlns="http://www.w3.org/2000/svg"  width="900.000000pt" height="267.000000pt" viewBox="0 0 900.000000 267.000000"  preserveAspectRatio="xMidYMid meet">  <g transform="translate(0.000000,267.000000) scale(0.100000,-0.100000)" fill="#000000" stroke="none"> <path d="M3376 2146 c-115 -113 -115 -118 0 -232 60 -58 94 -84 111 -84 16 0 51 26 110 83 74 72 86 88 86 117 0 29 -12 45 -86 117 -60 57 -94 83 -110 83 -17 0 -51 -26 -111 -84z"/> <path d="M6240 1742 c-152 -52 -279 -148 -365 -278 -32 -48 -41 -66 -81 -164 -29 -68 -26 -329 3 -420 49 -150 123 -254 248 -346 48 -36 167 -94 192 -94 10 0 40 -7 67 -15 71 -22 891 -21 951 0 22 8 48 15 58 15 23 0 150 63 197 97 128 95 226 250 261 414 23 113 23 150 -1 264 -21 102 -40 157 -69 206 -12 19 -24 41 -28 49 -26 60 -182 198 -253 226 -8 3 -28 12 -45 19 -105 45 -106 45 -610 44 -403 -1 -487 -4 -525 -17z m942 -243 c101 -20 176 -63 242 -138 110 -124 126 -322 40 -490 -27 -54 -109 -127 -180 -161 l-64 -30 -444 0 c-431 0 -445 1 -492 21 -125 55 -206 148 -240 277 -44 165 17 349 148 445 67 50 89 60 153 73 78 15 762 18 837 3z"/> <path d="M1295 1737 c-46 -18 -70 -38 -89 -74 -28 -56 -21 -87 42 -181 160 -237 372 -549 476 -700 28 -40 56 -81 61 -90 32 -54 128 -172 156 -193 89 -67 153 -89 258 -89 82 0 98 3 157 32 75 37 140 102 223 224 30 43 87 126 126 184 131 191 224 329 298 438 41 59 94 136 118 172 52 76 69 112 69 145 0 33 -19 75 -48 105 -20 21 -33 25 -86 25 -82 0 -94 -11 -209 -181 -51 -76 -118 -174 -148 -217 -30 -43 -61 -89 -69 -102 -8 -13 -39 -59 -69 -102 -30 -43 -100 -146 -156 -229 -57 -83 -112 -161 -123 -172 -32 -32 -82 -54 -106 -48 -40 10 -97 68 -164 169 -38 56 -106 157 -153 225 -46 68 -91 134 -99 147 -8 13 -39 59 -69 102 -30 43 -82 119 -116 168 -140 208 -152 222 -202 239 -26 9 -47 16 -47 15 -1 0 -15 -6 -31 -12z"/> <path d="M3884 1736 c-50 -14 -78 -40 -94 -89 -16 -51 2 -101 76 -208 94 -136 218 -318 234 -344 8 -13 39 -59 69 -102 30 -43 104 -152 165 -243 130 -192 195 -262 289 -308 61 -29 75 -32 162 -32 86 0 101 3 159 31 79 38 142 102 231 234 38 55 91 133 119 173 28 40 58 84 66 97 17 26 147 217 231 338 30 43 61 89 69 102 8 12 39 58 68 101 64 96 69 138 22 202 -24 34 -37 42 -74 47 -95 15 -119 -4 -240 -182 -91 -135 -211 -311 -280 -411 -28 -40 -58 -84 -66 -97 -31 -49 -156 -232 -192 -281 -24 -32 -54 -58 -79 -69 -39 -18 -41 -18 -76 0 -52 28 -66 48 -298 390 -116 171 -230 338 -300 440 -27 39 -65 95 -86 125 -20 31 -43 61 -50 67 -27 21 -83 30 -125 19z"/> <path d="M3424 1731 c-12 -5 -34 -25 -48 -44 l-26 -34 0 -581 0 -582 40 -40 c37 -37 45 -40 93 -40 54 0 85 14 119 55 16 18 17 67 18 611 l0 590 -35 34 c-29 28 -43 34 -87 37 -29 1 -63 -1 -74 -6z"/> </g> </svg> 