 <svg version="1.0" xmlns="http://www.w3.org/2000/svg"  width="900.000000pt" height="273.000000pt" viewBox="0 0 900.000000 273.000000"  preserveAspectRatio="xMidYMid meet">  <g transform="translate(0.000000,273.000000) scale(0.100000,-0.100000)" fill="#ff7000" stroke="none"> <path d="M115 2621 c-13 -26 -15 -180 -15 -1266 l0 -1236 21 -30 20 -29 1262 0 1261 0 23 27 23 26 0 1246 c-1 1204 -1 1247 -19 1269 l-19 22 -1271 0 -1270 0 -16 -29z m1467 -774 c5 -10 17 -17 26 -17 9 -1 26 -8 37 -18 37 -32 95 -106 95 -121 0 -9 7 -29 15 -45 13 -24 15 -89 15 -400 0 -204 -4 -377 -8 -384 -7 -9 -42 -12 -143 -10 l-134 3 -5 345 c-6 383 -4 373 -74 411 -33 17 -58 19 -271 19 l-235 0 -2 -387 -3 -388 -140 0 -140 0 0 500 0 499 25 7 c14 4 229 6 479 4 410 -2 454 -3 463 -18z m561 16 l47 -5 -2 -501 -3 -502 -133 -3 -132 -3 -10 26 c-16 41 -13 960 3 973 22 18 132 26 230 15z m-818 -393 c12 -24 15 -77 15 -299 0 -151 -4 -281 -10 -295 l-10 -26 -129 0 c-119 0 -131 2 -141 19 -6 12 -10 126 -10 301 0 355 -11 330 151 330 l118 0 16 -30z"/> <path d="M5265 1841 c-27 -5 -82 -13 -121 -19 -38 -6 -87 -18 -107 -27 l-37 -15 0 -65 c0 -80 7 -84 98 -59 51 13 105 18 227 18 146 1 164 -1 201 -21 23 -12 49 -34 59 -49 19 -30 33 -114 19 -115 -5 0 -54 -2 -109 -4 -375 -14 -555 -116 -555 -315 0 -126 75 -219 211 -259 90 -27 255 -45 336 -38 132 13 219 26 243 36 14 5 37 12 53 15 l27 6 0 319 c0 293 -2 324 -20 382 -44 138 -159 201 -386 213 -49 2 -111 1 -139 -3z m353 -642 c2 -104 -1 -139 -11 -147 -7 -6 -55 -17 -106 -23 -175 -24 -319 15 -358 96 -14 29 -15 40 -4 76 9 31 48 85 65 89 1 0 33 11 71 25 62 21 86 23 205 22 l135 -2 3 -136z"/> <path d="M6380 1840 c-130 -25 -161 -37 -236 -93 -61 -45 -94 -90 -130 -177 -25 -59 -27 -77 -27 -200 0 -113 3 -145 21 -198 58 -165 161 -253 339 -287 96 -18 136 -19 239 0 102 18 192 64 250 128 85 95 114 183 114 352 0 180 -33 270 -133 362 -52 48 -107 77 -187 97 -74 19 -193 27 -250 16z m185 -159 c70 -27 118 -70 150 -138 25 -52 27 -69 28 -171 0 -148 -19 -207 -89 -277 -40 -40 -61 -53 -103 -63 -90 -21 -154 -14 -226 26 -42 23 -71 57 -102 121 -25 52 -27 64 -27 186 1 150 14 192 84 260 74 72 185 94 285 56z"/> <path d="M7450 1844 c-145 -25 -255 -55 -298 -82 l-22 -14 2 -427 3 -426 95 0 95 0 5 375 c3 206 7 376 8 376 19 12 69 24 114 30 84 9 148 -3 184 -34 59 -52 59 -49 64 -412 l5 -335 75 -3 c41 -2 85 0 97 3 l23 5 0 349 c0 192 3 356 6 365 12 31 93 57 177 57 69 1 82 -2 113 -26 70 -54 68 -43 74 -415 l5 -335 75 -3 c41 -2 85 0 97 3 l23 5 0 348 c-1 359 -5 402 -44 467 -85 139 -354 170 -561 66 -56 -29 -74 -30 -105 -7 -66 48 -226 84 -310 70z"/> <path d="M3425 1811 c-3 -5 -1 -12 5 -16 5 -3 38 -43 72 -88 34 -45 94 -122 134 -172 76 -96 124 -163 124 -175 0 -4 -14 -25 -31 -46 -17 -22 -40 -52 -52 -68 -12 -16 -36 -45 -53 -65 -17 -20 -52 -65 -79 -101 -27 -36 -69 -88 -93 -117 -24 -29 -41 -57 -37 -63 4 -6 47 -10 105 -10 l98 0 34 43 c18 23 37 47 43 53 5 6 48 60 94 121 76 99 87 110 103 99 9 -7 68 -80 130 -162 l113 -149 113 -3 c92 -2 112 0 112 12 0 8 -3 16 -8 18 -4 2 -52 62 -107 133 -54 72 -102 132 -105 135 -13 10 -130 169 -130 176 0 6 130 179 172 229 75 89 166 211 162 217 -3 4 -49 8 -103 8 l-99 0 -34 -40 c-19 -21 -73 -89 -119 -150 -46 -60 -91 -110 -99 -110 -9 0 -58 56 -109 125 -142 189 -122 175 -245 175 -58 0 -107 -4 -111 -9z"/> <path d="M4555 1808 c-3 -7 -4 -215 -3 -463 l3 -450 95 0 95 0 0 460 0 460 -93 3 c-68 2 -94 -1 -97 -10z"/> <path d="M8686 1811 c-10 -15 -8 -903 2 -913 5 -5 47 -8 93 -6 l84 3 0 460 0 460 -87 3 c-48 1 -89 -2 -92 -7z"/> </g> </svg> 