<?xml version="1.0" encoding="UTF-8"?>
<svg width="250px" height="25px" viewBox="0 0 250 25" version="1.1" xmlns="http://www.w3.org/2000/svg" xmlns:xlink="http://www.w3.org/1999/xlink">
    <title>编组@2x</title>
    <defs>
        <polygon id="path-1" points="0 0.575320513 11.5812821 0.575320513 11.5812821 19.461859 0 19.461859"></polygon>
        <polygon id="path-3" points="0 24.8633974 249.365385 24.8633974 249.365385 -6.41025641e-05 0 -6.41025641e-05"></polygon>
    </defs>
    <g id="页面-1" stroke="none" stroke-width="1" fill="none" fill-rule="evenodd">
        <g id="web_narzo50_H5" transform="translate(-55.000000, -72.000000)">
            <g id="编组" transform="translate(55.000000, 72.000000)">
                <path d="M131.653654,5.11660256 C129.25109,5.11660256 127.228013,6.06532051 125.819038,7.6275 L125.819038,5.39673077 L122.899808,5.39673077 L122.899808,24.4666026 L125.819038,24.4666026 L125.819038,13.878141 L125.838269,13.878141 L125.838269,13.8749359 C125.838269,10.6448077 128.431859,8.02685897 131.660064,8.02685897 C134.88891,8.02685897 137.481859,10.6448077 137.481859,13.8749359 L137.481859,13.878141 L137.490833,13.878141 L137.490833,24.4666026 L140.410705,24.4666026 L140.410705,13.8730128 L140.409423,13.8730128 C140.408141,9.03647436 136.48891,5.11660256 131.653654,5.11660256" id="Fill-1" fill="#FEFEFE"></path>
                <path d="M152.357436,21.7588462 C148.576667,21.7588462 145.510641,18.6928205 145.510641,14.9101282 C145.510641,11.1280769 148.576667,8.06141026 152.357436,8.06141026 C156.138205,8.06141026 159.204231,11.1280769 159.204231,14.9101282 C159.204231,18.6928205 156.138205,21.7588462 152.357436,21.7588462 L152.357436,21.7588462 Z M159.21,7.94410256 C157.445897,6.20820513 155.027308,5.13576923 152.357436,5.13576923 C146.960641,5.13576923 142.585641,9.51269231 142.585641,14.9107692 C142.585641,20.3094872 146.960641,24.6857692 152.357436,24.6857692 C155.027308,24.6857692 157.445897,23.6133333 159.21,21.8774359 L159.21,24.4665385 L162.129872,24.4665385 L162.129872,5.39666667 L159.21,5.39666667 L159.21,7.94410256 Z" id="Fill-3" fill="#FEFEFE"></path>
                <path d="M201.690064,21.9375641 C197.809936,21.9375641 194.665064,18.7914103 194.665064,14.910641 C194.665064,11.0292308 197.809936,7.88307692 201.690064,7.88307692 C205.570192,7.88307692 208.715064,11.0292308 208.715064,14.910641 C208.715064,18.7914103 205.570192,21.9375641 201.690064,21.9375641 M201.690064,4.95807692 C196.195833,4.95807692 191.740705,9.41384615 191.740705,14.910641 C191.740705,20.4074359 196.195833,24.8632051 201.690064,24.8632051 C207.184936,24.8632051 211.639423,20.4074359 211.639423,14.910641 C211.639423,9.41384615 207.184936,4.95807692 201.690064,4.95807692" id="Fill-5" fill="#FEFEFE"></path>
                <path d="M168.803077,7.52858974 L168.803077,5.39782051 L165.874872,5.39910256 L165.874872,24.4683333 L168.803077,24.4683333 L168.803077,24.4676923 L168.803077,13.9388462 C168.803077,9.54525641 171.819103,8.19910256 174.612692,8.19910256 L174.612692,5.3824359 L174.61141,5.3824359 L174.612692,5.37794872 C171.864615,5.37794872 169.856282,6.19525641 168.803077,7.52858974" id="Fill-7" fill="#FEFEFE"></path>
                <polygon id="Fill-9" fill="#FEFEFE" points="189.713397 9.02660256 189.714038 9.02660256 190.456987 7.98237179 190.456987 7.98173077 190.459551 7.97852564 190.459551 7.97788462 191.010192 7.20480769 191.010192 7.20352564 191.012115 7.20096154 191.012115 5.40160256 177.314038 5.40160256 177.314038 5.39839744 177.313397 5.39839744 177.313397 8.24903846 186.548654 8.24903846 177.037115 21.6067308 177.038397 21.6067308 176.483269 22.3849359 176.485192 24.461859 191.367244 24.461859 191.367244 21.5253205 180.813397 21.5253205"></polygon>
                <path d="M226.52609,12.5926282 L224.167756,12.5926282 L224.489551,8.41121795 L232.101731,8.41121795 L232.101731,5.51634615 L221.647885,5.51634615 L220.924167,15.5945513 L226.393397,15.5945513 C228.429936,15.5945513 229.824167,16.7201923 229.824167,18.5964744 C229.824167,20.4721154 228.429936,21.6253205 226.33891,21.6253205 C224.381859,21.6253205 223.094679,20.7407051 222.613269,19.0791667 L219.960064,20.6060897 C220.951731,23.3137821 223.497244,24.6272436 226.33891,24.6272436 C229.797244,24.6272436 232.905577,22.5362179 232.905577,18.5964744 C232.905577,14.6830128 229.930577,12.5926282 226.52609,12.5926282" id="Fill-11" fill="#FEFEFE"></path>
                <path d="M241.994551,21.6251923 C239.233013,21.6251923 237.705449,19.2130128 237.705449,14.8976282 C237.705449,10.5822436 239.233013,8.1700641 241.994551,8.1700641 C244.781731,8.1700641 246.283013,10.5822436 246.283013,14.8976282 C246.283013,19.2130128 244.781731,21.6251923 241.994551,21.6251923 M241.994551,5.16814103 C237.277244,5.16814103 234.623397,9.10852564 234.623397,14.8976282 C234.623397,20.6867308 237.277244,24.6271154 241.994551,24.6271154 C246.711859,24.6271154 249.365064,20.6867308 249.365064,14.8976282 C249.365064,9.10852564 246.711859,5.16814103 241.994551,5.16814103" id="Fill-13" fill="#FEFEFE"></path>
                <path d="M82.0139103,5.31128205 C79.4863462,5.31128205 77.2998077,6.39846154 75.9350641,8.31320513 C75.0395513,6.85166667 73.3722436,5.31128205 70.3254487,5.31128205 C68.2671154,5.31128205 66.5036538,6.04397436 65.2677564,7.39333333 L65.2677564,5.56705128 L62.2703205,5.56705128 L62.2703205,24.4170513 L65.2677564,24.4170513 L65.2677564,12.3439744 C65.2677564,9.82089744 67.5998077,8.12666667 69.7773718,8.12666667 C72.4241667,8.12666667 74.0683974,9.99461538 74.0683974,13.0016667 L74.0683974,24.4170513 L77.0658333,24.4170513 L77.0658333,12.6362821 C77.0658333,10.4555128 78.2696795,8.12666667 81.6485256,8.12666667 C84.2773718,8.12666667 85.9760897,10.0401282 85.9760897,13.0016667 L85.9760897,24.4170513 L88.9735256,24.4170513 L88.9735256,13.0016667 C88.9735256,8.25807692 86.306859,5.31128205 82.0139103,5.31128205" id="Fill-15" fill="#FEFEFE"></path>
                <path d="M15.8690385,12.9816667 C16.5889103,10.0611538 19.1126282,8.05346154 22.1299359,8.05346154 C25.1177564,8.05346154 27.4126282,10.0182051 27.9401923,12.9816667 L15.8690385,12.9816667 Z M22.2030128,5.23807692 C16.7100641,5.23807692 12.7235256,9.33294872 12.7235256,14.9739744 C12.7235256,20.6842308 16.5914744,24.6726923 22.1299359,24.6726923 C25.8004487,24.6726923 28.6600641,23.0912821 30.3991667,20.0976923 L30.5485256,19.840641 L27.9792949,18.1887179 L27.8151923,18.4688462 C26.4594231,20.7810256 24.6530128,21.8579487 22.1299359,21.8579487 C18.6158333,21.8579487 15.9151923,19.2271795 15.7305769,15.6874359 L30.9889103,15.6874359 L30.9889103,14.7162821 C30.9709615,11.865 30.0767308,9.45217949 28.4030128,7.73807692 C26.8280128,6.12653846 24.6260897,5.23807692 22.2030128,5.23807692 L22.2030128,5.23807692 Z" id="Fill-17" fill="#FEFEFE"></path>
                <g transform="translate(0.000000, 4.991603)">
                    <mask id="mask-2" fill="white">
                        <use xlink:href="#path-1"></use>
                    </mask>
                    <g id="Clip-20"></g>
                    <polygon id="Fill-19" fill="#FEFEFE" mask="url(#mask-2)" points="-0.000128205128 19.461859 2.99730769 19.461859 2.99730769 3.39070513 11.5812821 3.39070513 11.5812821 0.575320513 -0.000128205128 0.575320513"></polygon>
                </g>
                <path d="M94.6757692,12.9816667 C95.395641,10.0611538 97.919359,8.05346154 100.936667,8.05346154 C103.924487,8.05346154 106.219359,10.0182051 106.746282,12.9816667 L94.6757692,12.9816667 Z M101.009744,5.23807692 C95.5167949,5.23807692 91.5296154,9.33294872 91.5296154,14.9739744 C91.5296154,20.6842308 95.3975641,24.6726923 100.936667,24.6726923 C104.606538,24.6726923 107.466154,23.0912821 109.205256,20.0976923 L109.354615,19.840641 L106.786026,18.1887179 L106.621923,18.4688462 C105.266154,20.7810256 103.459744,21.8579487 100.936667,21.8579487 C97.4225641,21.8579487 94.7219231,19.2271795 94.5373077,15.6874359 L109.795641,15.6874359 L109.795641,14.7162821 C109.777692,11.865 108.882821,9.45217949 107.209744,7.73807692 C105.634744,6.12653846 103.432821,5.23807692 101.009744,5.23807692 L101.009744,5.23807692 Z" id="Fill-21" fill="#FEFEFE"></path>
                <mask id="mask-4" fill="white">
                    <use xlink:href="#path-3"></use>
                </mask>
                <g id="Clip-24"></g>
                <polygon id="Fill-23" fill="#FEFEFE" mask="url(#mask-4)" points="55.3839744 24.4172436 58.3814103 24.4172436 58.3814103 -6.41025641e-05 55.3839744 -6.41025641e-05"></polygon>
                <path d="M42.5626923,21.7482051 C38.9088462,21.7482051 36.1537179,18.8667949 36.1537179,15.0469231 C36.1537179,11.2052564 38.9088462,8.30910256 42.5626923,8.30910256 C46.3524359,8.30910256 48.8992308,11.0167949 48.8992308,15.0469231 C48.8992308,19.0546154 46.3524359,21.7482051 42.5626923,21.7482051 L42.5626923,21.7482051 Z M48.5338462,7.33730769 C46.9530769,6.04307692 44.8691026,5.31102564 42.7088462,5.31102564 C40.0287179,5.31102564 37.5883333,6.30846154 35.8370513,8.11871795 C34.1082051,9.90525641 33.1562821,12.3655128 33.1562821,15.0469231 C33.1562821,17.7257692 34.1088462,20.1802564 35.8376923,21.9578205 C37.5870513,23.7552564 40.0267949,24.745641 42.7088462,24.745641 C44.8979487,24.745641 46.980641,24.0180769 48.5338462,22.7283333 L48.5338462,24.4533333 L51.4947436,24.4533333 L51.4947436,5.60333333 L48.5338462,5.60333333 L48.5338462,7.33730769 Z" id="Fill-25" fill="#FEFEFE" mask="url(#mask-4)"></path>
            </g>
        </g>
    </g>
</svg>